<svg width="27" height="25" viewBox="0 0 27 25" fill="none" xmlns="http://www.w3.org/2000/svg">
<path d="M7.59375 11.8125H5.90625C5.4694 11.8125 5.11523 12.1667 5.11523 12.6035C5.11523 13.0404 5.4694 13.3945 5.90625 13.3945H7.59375C8.0306 13.3945 8.38477 13.0404 8.38477 12.6035C8.38477 12.1667 8.0306 11.8125 7.59375 11.8125Z" fill="white"/>
<path d="M7.59375 15.1875H5.90625C5.4694 15.1875 5.11523 15.5417 5.11523 15.9785C5.11523 16.4154 5.4694 16.7695 5.90625 16.7695H7.59375C8.0306 16.7695 8.38477 16.4154 8.38477 15.9785C8.38477 15.5417 8.0306 15.1875 7.59375 15.1875Z" fill="white"/>
<path d="M7.59375 18.5625H5.90625C5.4694 18.5625 5.11523 18.9167 5.11523 19.3535C5.11523 19.7904 5.4694 20.1445 5.90625 20.1445H7.59375C8.0306 20.1445 8.38477 19.7904 8.38477 19.3535C8.38477 18.9167 8.0306 18.5625 7.59375 18.5625Z" fill="white"/>
<path d="M14.3438 11.8125H12.6562C12.2194 11.8125 11.8652 12.1667 11.8652 12.6035C11.8652 13.0404 12.2194 13.3945 12.6562 13.3945H14.3438C14.7806 13.3945 15.1348 13.0404 15.1348 12.6035C15.1348 12.1667 14.7806 11.8125 14.3438 11.8125Z" fill="white"/>
<path d="M14.3438 15.1875H12.6562C12.2194 15.1875 11.8652 15.5417 11.8652 15.9785C11.8652 16.4154 12.2194 16.7695 12.6562 16.7695H14.3438C14.7806 16.7695 15.1348 16.4154 15.1348 15.9785C15.1348 15.5417 14.7806 15.1875 14.3438 15.1875Z" fill="white"/>
<path d="M14.3438 18.5625H12.6562C12.2194 18.5625 11.8652 18.9167 11.8652 19.3535C11.8652 19.7904 12.2194 20.1445 12.6562 20.1445H14.3438C14.7806 20.1445 15.1348 19.7904 15.1348 19.3535C15.1348 18.9167 14.7806 18.5625 14.3438 18.5625Z" fill="white"/>
<path d="M21.0938 11.8125H19.4062C18.9694 11.8125 18.6152 12.1667 18.6152 12.6035C18.6152 13.0404 18.9694 13.3945 19.4062 13.3945H21.0938C21.5306 13.3945 21.8848 13.0404 21.8848 12.6035C21.8848 12.1667 21.5306 11.8125 21.0938 11.8125Z" fill="white"/>
<path d="M21.0938 15.1875H19.4062C18.9694 15.1875 18.6152 15.5417 18.6152 15.9785C18.6152 16.4154 18.9694 16.7695 19.4062 16.7695H21.0938C21.5306 16.7695 21.8848 16.4154 21.8848 15.9785C21.8848 15.5417 21.5306 15.1875 21.0938 15.1875Z" fill="white"/>
<path d="M21.0938 18.5625H19.4062C18.9694 18.5625 18.6152 18.9167 18.6152 19.3535C18.6152 19.7904 18.9694 20.1445 19.4062 20.1445H21.0938C21.5306 20.1445 21.8848 19.7904 21.8848 19.3535C21.8848 18.9167 21.5306 18.5625 21.0938 18.5625Z" fill="white"/>
<path d="M24.627 2.10938H22.7285V0.791016C22.7285 0.354164 22.3744 0 21.9375 0C21.5006 0 21.1465 0.354164 21.1465 0.791016V2.10938H14.291V0.791016C14.291 0.354164 13.9369 0 13.5 0C13.0631 0 12.709 0.354164 12.709 0.791016V2.10938H5.85352V0.791016C5.85352 0.354164 5.49935 0 5.0625 0C4.62565 0 4.27148 0.354164 4.27148 0.791016V2.10938H2.37305C1.06455 2.10938 0 3.17392 0 4.48242V21.9902C0 23.2987 1.06455 24.3633 2.37305 24.3633H24.627C25.9355 24.3633 27 23.2987 27 21.9902C27 21.4797 27 4.92671 27 4.48242C27 3.17392 25.9355 2.10938 24.627 2.10938ZM1.58203 4.48242C1.58203 4.04626 1.93688 3.69141 2.37305 3.69141H4.27148V5.00977C4.27148 5.44662 4.62565 5.80078 5.0625 5.80078C5.49935 5.80078 5.85352 5.44662 5.85352 5.00977V3.69141H12.709V5.00977C12.709 5.44662 13.0631 5.80078 13.5 5.80078C13.9369 5.80078 14.291 5.44662 14.291 5.00977V3.69141H21.1465V5.00977C21.1465 5.44662 21.5006 5.80078 21.9375 5.80078C22.3744 5.80078 22.7285 5.44662 22.7285 5.00977V3.69141H24.627C25.0631 3.69141 25.418 4.04626 25.418 4.48242V7.59375H1.58203V4.48242ZM24.627 22.7812H2.37305C1.93688 22.7812 1.58203 22.4264 1.58203 21.9902V9.17578H25.418V21.9902C25.418 22.4264 25.0631 22.7812 24.627 22.7812Z" fill="white"/>
</svg>
