<svg width="41" height="38" viewBox="0 0 41 38" fill="none" xmlns="http://www.w3.org/2000/svg">
<path d="M38.7353 8.39078C38.8159 8.14647 38.8551 7.89043 38.8513 7.63321C38.8505 7.09884 38.6672 6.58077 38.3318 6.16481C37.9963 5.74886 37.5288 5.45997 37.0068 5.34599V5.09803C37.0057 4.31429 36.6939 3.56297 36.1396 3.00889C35.5853 2.45481 34.8338 2.14322 34.0501 2.14247H33.6502C33.5361 1.62175 33.2477 1.15558 32.8326 0.821114C32.4175 0.486649 31.9007 0.303939 31.3676 0.303223H9.5307C8.99764 0.303939 8.48079 0.486649 8.06571 0.821114C7.65062 1.15558 7.36219 1.62175 7.24813 2.14247H6.7116C5.92787 2.14322 5.17643 2.45481 4.62215 3.00889C4.06786 3.56297 3.756 4.31429 3.75497 5.09803V5.34599C3.23289 5.45997 2.76542 5.74886 2.42996 6.16481C2.09451 6.58077 1.9112 7.09884 1.91042 7.63321C1.90667 7.89034 1.94587 8.1463 2.0264 8.39053C1.4089 8.75974 0.89763 9.28271 0.542481 9.90841C0.187332 10.5341 0.000427784 11.2412 0 11.9607V12.8257C0.000460525 13.2309 0.161638 13.6194 0.448171 13.9059C0.734704 14.1924 1.12319 14.3536 1.5284 14.354H6.79536C7.20057 14.3536 7.58905 14.1924 7.87559 13.9059C8.16212 13.6194 8.3233 13.2309 8.32376 12.8257V11.9607C8.32343 11.2691 8.15066 10.5886 7.8211 9.98061C7.49153 9.37265 7.01557 8.85646 6.43629 8.47876C6.55815 8.16343 6.61028 7.82545 6.58912 7.48805C6.56796 7.15065 6.474 6.82183 6.31369 6.5242C6.15339 6.22656 5.93054 5.96716 5.66047 5.76382C5.3904 5.56048 5.07951 5.41802 4.74915 5.34624V5.09803C4.74988 4.57787 4.9569 4.07925 5.32481 3.71155C5.69271 3.34385 6.19145 3.1371 6.7116 3.13666H7.24813C7.36219 3.65738 7.65062 4.12355 8.06571 4.45802C8.48079 4.79248 8.99764 4.97519 9.5307 4.97591H18.2931V6.58724H16.5413C16.3114 6.5875 16.0909 6.67896 15.9283 6.84154C15.7658 7.00413 15.6743 7.22457 15.674 7.4545V9.83749C15.674 10.0332 15.7406 10.2231 15.8629 10.376L17.8512 13.0458C15.6814 13.6703 13.8152 15.0674 12.6048 16.9735H10.2464C9.74877 16.9741 9.27107 17.1689 8.91511 17.5166C8.55915 17.8643 8.35307 18.3373 8.34083 18.8347L6.26131 31.2008C6.10751 32.0563 6.28135 32.9385 6.74825 33.6717C7.21516 34.405 7.94093 34.9356 8.78125 35.1582V36.0661C8.78456 36.5669 8.98583 37.0461 9.34114 37.399C9.69645 37.752 10.177 37.9501 10.6778 37.9501C11.1786 37.9501 11.6591 37.752 12.0144 37.399C12.3697 37.0461 12.571 36.5669 12.5743 36.0661V35.2742H27.7719V36.0661C27.7752 36.5669 27.9765 37.0461 28.3318 37.399C28.6871 37.752 29.1676 37.9501 29.6684 37.9501C30.1693 37.9501 30.6498 37.752 31.0051 37.399C31.3604 37.0461 31.5617 36.5669 31.565 36.0661V35.2657C32.0695 35.2317 32.5604 35.0875 33.0032 34.8434C33.446 34.5993 33.8299 34.261 34.1279 33.8526C34.426 33.4441 34.6308 32.9752 34.7281 32.479C34.8255 31.9828 34.8129 31.4713 34.6912 30.9806L32.2937 18.7889C32.1055 17.7202 31.3257 16.974 30.3957 16.974H28.1568C26.9464 15.068 25.0803 13.6708 22.9105 13.0463L24.8989 10.3765C25.0211 10.2236 25.0877 10.0337 25.0877 9.83798V7.4545C25.0874 7.22457 24.996 7.00413 24.8334 6.84154C24.6708 6.67896 24.4503 6.5875 24.2204 6.58724H22.4687V4.97591H31.3676C31.9007 4.97519 32.4175 4.79248 32.8326 4.45802C33.2477 4.12355 33.5361 3.65738 33.6502 3.13666H34.0501C34.5703 3.1371 35.069 3.34385 35.4369 3.71155C35.8048 4.07925 36.0118 4.57787 36.0126 5.09803V5.34599C35.6824 5.41813 35.3717 5.5608 35.1017 5.76422C34.8318 5.96763 34.6091 6.22699 34.4487 6.52453C34.2884 6.82206 34.1943 7.15074 34.1728 7.48804C34.1513 7.82534 34.203 8.1633 34.3243 8.47876C33.7454 8.85666 33.2697 9.3729 32.9403 9.9808C32.611 10.5887 32.4383 11.2691 32.438 11.9605V12.8255C32.4384 13.2307 32.5996 13.6192 32.8861 13.9057C33.1727 14.1922 33.5612 14.3534 33.9664 14.3538H39.2333C39.6385 14.3534 40.027 14.1923 40.3135 13.9058C40.6 13.6193 40.7612 13.2309 40.7617 12.8257V11.9607C40.7613 11.2412 40.5744 10.5342 40.2192 9.90851C39.8641 9.28284 39.3528 8.75993 38.7353 8.39078V8.39078ZM7.32957 12.8257C7.32939 12.9673 7.27305 13.1031 7.1729 13.2032C7.07276 13.3033 6.93698 13.3597 6.79536 13.3598H1.5284C1.38677 13.3597 1.25098 13.3034 1.15083 13.2032C1.05068 13.1031 0.994342 12.9673 0.994188 12.8257V12.0601H7.32957V12.8257ZM7.19999 11.0659H1.12376C1.31702 10.4099 1.71738 9.83417 2.265 9.42463C2.81261 9.01508 3.47806 8.79377 4.16188 8.79377C4.8457 8.79377 5.51115 9.01508 6.05876 9.42463C6.60637 9.83417 7.00673 10.4099 7.19999 11.0659V11.0659ZM5.59952 7.63321C5.59957 7.76932 5.57898 7.90466 5.53846 8.03461C4.70057 7.74025 3.79045 7.7219 2.94139 7.98225C2.91517 7.8678 2.90282 7.75061 2.9046 7.63321C2.9046 7.27584 3.04657 6.93311 3.29926 6.68041C3.55196 6.42771 3.89469 6.28575 4.25206 6.28575C4.60943 6.28575 4.95216 6.42771 5.20486 6.68041C5.45755 6.93311 5.59952 7.27584 5.59952 7.63321V7.63321ZM11.5801 36.067C11.5778 36.3048 11.4817 36.5321 11.3127 36.6995C11.1438 36.8668 10.9155 36.9607 10.6777 36.9607C10.4399 36.9607 10.2117 36.8668 10.0427 36.6995C9.87371 36.5321 9.77763 36.3048 9.77536 36.067V35.2751H11.5801V36.067ZM30.5708 36.067C30.5685 36.3048 30.4724 36.5321 30.3035 36.6995C30.1345 36.8668 29.9063 36.9607 29.6684 36.9607C29.4306 36.9607 29.2024 36.8668 29.0334 36.6995C28.8644 36.5321 28.7684 36.3048 28.7661 36.067V35.2751H30.5708V36.067ZM30.3957 17.9686C30.9111 17.9686 31.2289 18.4692 31.3154 18.9654C31.3159 18.969 31.3166 18.9725 31.3173 18.9761L33.7182 31.1849C33.7199 31.1931 33.7218 31.202 33.7239 31.2105C33.8157 31.5745 33.8232 31.9546 33.7459 32.3219C33.6686 32.6892 33.5085 33.034 33.2778 33.3301C33.0471 33.6262 32.7519 33.8657 32.4147 34.0305C32.0774 34.1953 31.707 34.2809 31.3317 34.2809H9.66848C9.30702 34.2809 8.94997 34.2015 8.62259 34.0483C8.2952 33.8951 8.00547 33.6719 7.7739 33.3943C7.54233 33.1168 7.37457 32.7918 7.28248 32.4422C7.1904 32.0927 7.17624 31.7272 7.241 31.3716L9.32764 18.9622C9.33222 18.9348 9.33452 18.9071 9.33452 18.8794C9.33491 18.6377 9.43116 18.406 9.60214 18.2351C9.77313 18.0643 10.0049 17.9682 10.2466 17.968H12.0565C11.3942 19.3711 11.0973 20.9187 11.1933 22.4673C11.2893 24.0158 11.7752 25.5149 12.6057 26.8254C13.4363 28.1359 14.5846 29.2152 15.9439 29.963C17.3033 30.7109 18.8296 31.103 20.3811 31.103C21.9326 31.103 23.4589 30.7109 24.8183 29.963C26.1777 29.2152 27.326 28.1359 28.1565 26.8254C28.987 25.5149 29.4729 24.0158 29.5689 22.4673C29.6649 20.9187 29.368 19.3711 28.7057 17.968L30.3957 17.9686ZM28.5921 21.894C28.5927 23.5182 28.1117 25.1061 27.2098 26.4568C26.308 27.8076 25.0258 28.8605 23.5254 29.4825C22.0251 30.1045 20.3739 30.2676 18.7809 29.9511C17.1879 29.6346 15.7245 28.8528 14.5758 27.7046C13.4271 26.5564 12.6447 25.0933 12.3276 23.5004C12.0105 21.9074 12.173 20.2563 12.7943 18.7557C13.4157 17.2551 14.4682 15.9725 15.8186 15.0701C17.169 14.1677 18.7567 13.686 20.3809 13.686C22.5574 13.6879 24.6443 14.5532 26.1836 16.0919C27.723 17.6306 28.5892 19.7171 28.5921 21.8936V21.894ZM21.8473 12.809C20.8757 12.6527 19.8855 12.6527 18.9139 12.809L17.3468 10.7047H23.4144L21.8473 12.809ZM24.0932 7.58126V9.71048H16.6682V7.58126H24.0932ZM19.287 6.58707V4.97591H21.4742V6.58724L19.287 6.58707ZM31.3676 3.98172H9.5307C9.17474 3.98172 8.83336 3.84031 8.58166 3.58861C8.32995 3.33691 8.18855 2.99553 8.18855 2.63956C8.18855 2.2836 8.32995 1.94222 8.58166 1.69052C8.83336 1.43882 9.17474 1.29741 9.5307 1.29741H31.3676C31.7236 1.29741 32.065 1.43882 32.3167 1.69052C32.5684 1.94222 32.7098 2.2836 32.7098 2.63956C32.7098 2.99553 32.5684 3.33691 32.3167 3.58861C32.065 3.84031 31.7236 3.98172 31.3676 3.98172V3.98172ZM36.5097 6.28658C36.8668 6.28686 37.2092 6.4288 37.4618 6.68126C37.7145 6.93372 37.8566 7.27607 37.8571 7.63321C37.8589 7.75069 37.8465 7.86797 37.8202 7.9825C36.9712 7.72193 36.0609 7.74014 35.2229 8.03444C35.1829 7.90445 35.1624 7.76922 35.1622 7.63321C35.1627 7.27607 35.3049 6.93372 35.5575 6.68126C35.8101 6.4288 36.1525 6.28686 36.5097 6.28658V6.28658ZM39.7675 12.8257C39.7674 12.9673 39.711 13.1031 39.6109 13.2032C39.5107 13.3034 39.3749 13.3597 39.2333 13.3598H33.9664C33.8247 13.3597 33.689 13.3033 33.5888 13.2032C33.4887 13.1031 33.4323 12.9673 33.4321 12.8257V12.0601H39.7675V12.8257ZM33.5621 11.0659C33.7554 10.41 34.1558 9.8342 34.7034 9.42467C35.251 9.01515 35.9165 8.79384 36.6003 8.79384C37.2841 8.79384 37.9496 9.01515 38.4972 9.42467C39.0448 9.8342 39.4452 10.41 39.6384 11.0659H33.5621Z" fill="white"/>
<path d="M19.0732 16.3504C19.0732 16.6337 19.1571 16.9107 19.3145 17.1463C19.4718 17.382 19.6955 17.5656 19.9573 17.6741C20.219 17.7826 20.507 17.811 20.7849 17.7558C21.0628 17.7005 21.3181 17.5641 21.5185 17.3638C21.7189 17.1635 21.8553 16.9082 21.9106 16.6304C21.9659 16.3525 21.9376 16.0644 21.8291 15.8027C21.7207 15.5409 21.5371 15.3171 21.3015 15.1597C21.0659 15.0023 20.789 14.9183 20.5056 14.9183C20.1259 14.9187 19.7619 15.0697 19.4933 15.3382C19.2248 15.6067 19.0737 15.9707 19.0732 16.3504V16.3504ZM20.5056 15.9125C20.5922 15.9126 20.6768 15.9383 20.7488 15.9865C20.8207 16.0346 20.8768 16.103 20.9099 16.183C20.943 16.2631 20.9516 16.3511 20.9347 16.436C20.9178 16.5209 20.876 16.5989 20.8148 16.6601C20.7535 16.7213 20.6755 16.763 20.5906 16.7798C20.5057 16.7967 20.4176 16.788 20.3376 16.7549C20.2577 16.7217 20.1893 16.6656 20.1412 16.5936C20.0931 16.5216 20.0674 16.437 20.0674 16.3504C20.0676 16.2343 20.1139 16.1229 20.196 16.0409C20.2782 15.9588 20.3895 15.9126 20.5056 15.9125V15.9125Z" fill="white"/>
<path d="M16.1307 19.1013C16.4139 19.1012 16.6907 19.0171 16.9262 18.8597C17.1616 18.7023 17.3451 18.4786 17.4534 18.217C17.5618 17.9553 17.5901 17.6674 17.5348 17.3896C17.4795 17.1118 17.343 16.8567 17.1427 16.6565C16.9425 16.4562 16.6873 16.3199 16.4095 16.2647C16.1317 16.2094 15.8438 16.2378 15.5822 16.3462C15.3205 16.4546 15.0969 16.6382 14.9396 16.8737C14.7822 17.1092 14.6982 17.386 14.6982 17.6692C14.6987 18.049 14.8498 18.413 15.1184 18.6814C15.3869 18.9499 15.751 19.1009 16.1307 19.1013V19.1013ZM16.1307 17.2314C16.2173 17.2315 16.3019 17.2572 16.3738 17.3054C16.4458 17.3535 16.5019 17.4219 16.5349 17.502C16.568 17.582 16.5766 17.67 16.5597 17.7549C16.5427 17.8398 16.501 17.9178 16.4398 17.979C16.3785 18.0402 16.3005 18.0818 16.2156 18.0987C16.1306 18.1156 16.0426 18.1069 15.9626 18.0737C15.8826 18.0406 15.8143 17.9844 15.7662 17.9124C15.7181 17.8404 15.6924 17.7558 15.6924 17.6692C15.6926 17.5531 15.7388 17.4418 15.821 17.3597C15.9032 17.2776 16.0146 17.2314 16.1307 17.2314V17.2314Z" fill="white"/>
<path d="M20.5088 26.0817C20.2256 26.0817 19.9487 26.1658 19.7133 26.3232C19.4778 26.4806 19.2944 26.7043 19.186 26.966C19.0777 27.2277 19.0494 27.5156 19.1047 27.7934C19.16 28.0711 19.2965 28.3263 19.4968 28.5265C19.6971 28.7267 19.9522 28.8631 20.23 28.9183C20.5078 28.9735 20.7957 28.9451 21.0574 28.8367C21.319 28.7283 21.5426 28.5447 21.7 28.3092C21.8573 28.0737 21.9413 27.7968 21.9412 27.5136C21.9408 27.1339 21.7897 26.7699 21.5211 26.5014C21.2526 26.233 20.8885 26.082 20.5088 26.0817V26.0817ZM20.5088 27.9515C20.4222 27.9514 20.3376 27.9256 20.2656 27.8775C20.1937 27.8293 20.1376 27.7609 20.1045 27.6809C20.0715 27.6009 20.0629 27.5129 20.0798 27.4279C20.0967 27.343 20.1385 27.2651 20.1997 27.2039C20.261 27.1427 20.339 27.101 20.4239 27.0842C20.5089 27.0673 20.5969 27.076 20.6769 27.1091C20.7568 27.1423 20.8252 27.1984 20.8733 27.2704C20.9214 27.3424 20.9471 27.427 20.9471 27.5136C20.9469 27.6298 20.9006 27.7411 20.8185 27.8232C20.7363 27.9053 20.6249 27.9514 20.5088 27.9515V27.9515Z" fill="white"/>
<path d="M24.6582 21.932C24.6581 22.2153 24.7419 22.4923 24.8993 22.728C25.0566 22.9637 25.2802 23.1474 25.542 23.2559C25.8037 23.3644 26.0918 23.3929 26.3697 23.3377C26.6476 23.2825 26.9029 23.1461 27.1033 22.9458C27.3037 22.7455 27.4402 22.4903 27.4956 22.2124C27.5509 21.9345 27.5225 21.6464 27.4141 21.3846C27.3057 21.1229 27.1221 20.8991 26.8865 20.7417C26.6509 20.5842 26.3739 20.5002 26.0906 20.5002C25.7109 20.5006 25.3469 20.6516 25.0784 20.92C24.8099 21.1884 24.6588 21.5523 24.6582 21.932V21.932ZM26.0906 21.4941C26.1772 21.4942 26.2618 21.5199 26.3338 21.5681C26.4057 21.6162 26.4618 21.6846 26.4949 21.7646C26.528 21.8446 26.5366 21.9327 26.5197 22.0176C26.5027 22.1025 26.461 22.1805 26.3997 22.2417C26.3385 22.3029 26.2605 22.3446 26.1756 22.3614C26.0906 22.3783 26.0026 22.3696 25.9226 22.3365C25.8426 22.3033 25.7743 22.2472 25.7262 22.1752C25.6781 22.1032 25.6524 22.0185 25.6524 21.932C25.6527 21.8159 25.699 21.7047 25.7811 21.6227C25.8632 21.5406 25.9745 21.4945 26.0906 21.4944V21.4941Z" fill="white"/>
<path d="M16.3571 21.9319C16.3572 21.6485 16.2733 21.3715 16.1159 21.1359C15.9586 20.9003 15.7349 20.7166 15.4732 20.6081C15.2114 20.4996 14.9234 20.4712 14.6455 20.5264C14.3676 20.5816 14.1123 20.718 13.9119 20.9183C13.7115 21.1186 13.5751 21.3738 13.5197 21.6517C13.4644 21.9296 13.4928 22.2176 13.6012 22.4794C13.7096 22.7412 13.8932 22.9649 14.1288 23.1224C14.3643 23.2798 14.6413 23.3638 14.9246 23.3638C15.3044 23.3634 15.6684 23.2125 15.937 22.944C16.2055 22.6756 16.3566 22.3116 16.3571 21.9319V21.9319ZM14.4865 21.9319C14.4864 21.8451 14.512 21.7604 14.5601 21.6882C14.6082 21.6161 14.6766 21.5598 14.7567 21.5266C14.8368 21.4933 14.9249 21.4846 15.01 21.5015C15.095 21.5183 15.1731 21.56 15.2345 21.6213C15.2958 21.6826 15.3376 21.7607 15.3546 21.8457C15.3715 21.9308 15.3628 22.0189 15.3297 22.099C15.2965 22.1791 15.2403 22.2476 15.1682 22.2958C15.0961 22.3439 15.0114 22.3696 14.9246 22.3696C14.8085 22.3695 14.6972 22.3234 14.615 22.2413C14.5329 22.1593 14.4867 22.048 14.4865 21.9319Z" fill="white"/>
<path d="M16.336 24.4564C16.0528 24.4564 15.776 24.5405 15.5405 24.6979C15.305 24.8553 15.1215 25.0789 15.0132 25.3406C14.9049 25.6023 14.8766 25.8902 14.9319 26.168C14.9871 26.4458 15.1236 26.7009 15.3238 26.9011C15.5241 27.1014 15.7793 27.2377 16.0571 27.293C16.3349 27.3482 16.6228 27.3198 16.8844 27.2114C17.1461 27.103 17.3697 26.9195 17.5271 26.684C17.6844 26.4485 17.7684 26.1716 17.7684 25.8884C17.7679 25.5087 17.6168 25.1447 17.3483 24.8762C17.0798 24.6077 16.7157 24.4568 16.336 24.4564V24.4564ZM16.336 26.3263C16.2494 26.3262 16.1648 26.3005 16.0928 26.2523C16.0209 26.2042 15.9648 26.1357 15.9317 26.0557C15.8986 25.9757 15.89 25.8877 15.9069 25.8028C15.9239 25.7179 15.9656 25.6399 16.0268 25.5787C16.0881 25.5175 16.1661 25.4758 16.251 25.4589C16.336 25.4421 16.424 25.4508 16.504 25.4839C16.584 25.5171 16.6523 25.5732 16.7004 25.6452C16.7485 25.7172 16.7742 25.8018 16.7742 25.8884C16.774 26.0045 16.7278 26.1158 16.6456 26.1979C16.5635 26.28 16.4521 26.3262 16.336 26.3263Z" fill="white"/>
<path d="M24.3829 24.3072C24.0997 24.3073 23.8228 24.3913 23.5874 24.5487C23.3519 24.7061 23.1684 24.9298 23.0601 25.1915C22.9517 25.4531 22.9234 25.7411 22.9787 26.0188C23.034 26.2966 23.1705 26.5517 23.3708 26.752C23.5711 26.9522 23.8262 27.0886 24.104 27.1438C24.3818 27.199 24.6697 27.1706 24.9314 27.0622C25.193 26.9538 25.4166 26.7702 25.574 26.5347C25.7313 26.2992 25.8153 26.0224 25.8153 25.7391C25.8148 25.3595 25.6637 24.9955 25.3951 24.727C25.1266 24.4586 24.7626 24.3076 24.3829 24.3072V24.3072ZM24.3829 26.177C24.2963 26.1769 24.2117 26.1512 24.1397 26.1031C24.0678 26.0549 24.0117 25.9865 23.9786 25.9065C23.9455 25.8265 23.9369 25.7384 23.9538 25.6535C23.9707 25.5686 24.0125 25.4906 24.0737 25.4294C24.135 25.3682 24.213 25.3265 24.2979 25.3097C24.3828 25.2928 24.4709 25.3015 24.5509 25.3347C24.6308 25.3678 24.6992 25.4239 24.7473 25.4959C24.7954 25.5679 24.8211 25.6526 24.8211 25.7391C24.8209 25.8553 24.7746 25.9666 24.6925 26.0487C24.6103 26.1307 24.499 26.1769 24.3829 26.177Z" fill="white"/>
<path d="M24.4119 19.4668C24.6951 19.4667 24.9719 19.3826 25.2074 19.2252C25.4428 19.0679 25.6263 18.8442 25.7347 18.5825C25.843 18.3208 25.8713 18.0329 25.816 17.7551C25.7607 17.4774 25.6243 17.2222 25.424 17.022C25.2238 16.8217 24.9686 16.6854 24.6908 16.6302C24.413 16.5749 24.1251 16.6033 23.8634 16.7117C23.6018 16.8201 23.3782 17.0036 23.2208 17.2391C23.0635 17.4746 22.9795 17.7515 22.9795 18.0347C22.98 18.4144 23.1311 18.7784 23.3996 19.0469C23.6681 19.3154 24.0322 19.4664 24.4119 19.4668ZM24.4119 17.5968C24.4985 17.5969 24.5831 17.6227 24.655 17.6708C24.727 17.719 24.7831 17.7874 24.8162 17.8674C24.8493 17.9474 24.8579 18.0354 24.8409 18.1203C24.824 18.2052 24.7823 18.2832 24.721 18.3444C24.6598 18.4056 24.5818 18.4473 24.4968 18.4642C24.4119 18.481 24.3239 18.4724 24.2439 18.4392C24.1639 18.4061 24.0956 18.3499 24.0475 18.2779C23.9994 18.2059 23.9737 18.1213 23.9737 18.0347C23.9739 17.9186 24.0201 17.8073 24.1023 17.7252C24.1844 17.6431 24.2957 17.597 24.4119 17.5968V17.5968Z" fill="white"/>
<path d="M17.2363 21.8527C17.2361 22.4892 17.4246 23.1115 17.7781 23.6408C18.1315 24.1701 18.634 24.5828 19.222 24.8265C19.81 25.0703 20.4571 25.1341 21.0813 25.0101C21.7056 24.8861 22.2791 24.5797 22.7293 24.1297C23.1794 23.6797 23.486 23.1063 23.6103 22.4821C23.7345 21.8578 23.6709 21.2107 23.4274 20.6227C23.1838 20.0346 22.7714 19.532 22.2422 19.1783C21.713 18.8247 21.0908 18.6359 20.4543 18.6359C19.6013 18.6367 18.7834 18.9759 18.1801 19.5789C17.5769 20.182 17.2374 20.9997 17.2363 21.8527V21.8527ZM22.678 21.8527C22.6782 22.2926 22.548 22.7226 22.3038 23.0885C22.0596 23.4543 21.7124 23.7395 21.3061 23.908C20.8997 24.0765 20.4526 24.1207 20.0211 24.035C19.5897 23.9494 19.1934 23.7377 18.8822 23.4267C18.5711 23.1158 18.3592 22.7195 18.2733 22.2881C18.1874 21.8567 18.2314 21.4095 18.3997 21.0031C18.568 20.5967 18.853 20.2494 19.2187 20.005C19.5844 19.7606 20.0144 19.6301 20.4543 19.6301C21.0437 19.6306 21.6088 19.8649 22.0257 20.2816C22.4426 20.6983 22.6772 21.2633 22.678 21.8527V21.8527Z" fill="white"/>
</svg>
