<svg width="25" height="26" viewBox="0 0 25 26" fill="none" xmlns="http://www.w3.org/2000/svg">
<path d="M13.3333 7.16667C12.8733 7.16667 12.5 7.54 12.5 8C12.5 8.46 12.8733 8.83334 13.3333 8.83334C15.1717 8.83334 16.6667 10.3283 16.6667 12.1667C16.6667 12.6267 17.04 13 17.5 13C17.96 13 18.3333 12.6267 18.3333 12.1667C18.3333 9.41 16.09 7.16667 13.3333 7.16667Z" fill="white"/>
<path d="M13.3333 3.83331C12.8733 3.83331 12.5 4.20665 12.5 4.66665C12.5 5.12665 12.8733 5.49998 13.3333 5.49998C17.01 5.49998 20 8.48998 20 12.1666C20 12.6266 20.3733 13 20.8333 13C21.2933 13 21.6667 12.6266 21.6667 12.1666C21.6667 7.57165 17.9283 3.83331 13.3333 3.83331Z" fill="white"/>
<path d="M13.3333 0.5C12.8733 0.5 12.5 0.873333 12.5 1.33333C12.5 1.79333 12.8733 2.16667 13.3333 2.16667C18.8483 2.16667 23.3333 6.65167 23.3333 12.1667C23.3333 12.6267 23.7067 13 24.1667 13C24.6267 13 25 12.6267 25 12.1667C25 5.73333 19.765 0.5 13.3333 0.5Z" fill="white"/>
<path d="M22.5 18.8334C20.08 18.8334 17.775 18.3067 15.65 17.2684C15.45 17.1684 15.22 17.1567 15.0117 17.23C14.8017 17.3034 14.63 17.4567 14.5333 17.655L13.2233 20.3667C9.83333 18.475 7.02667 15.67 5.13667 12.28L7.84667 10.9667C8.04667 10.87 8.19833 10.6984 8.27167 10.4884C8.34333 10.28 8.33 10.05 8.23167 9.85002C7.19333 7.72502 6.66667 5.42002 6.66667 3.00002C6.66667 2.54002 6.29333 2.16669 5.83333 2.16669H0.833333C0.373333 2.16669 0 2.54002 0 3.00002C0 15.4067 10.0933 25.5 22.5 25.5C22.96 25.5 23.3333 25.1267 23.3333 24.6667V19.6667C23.3333 19.2067 22.96 18.8334 22.5 18.8334Z" fill="white"/>
</svg>
