<svg width="25" height="25" viewBox="0 0 25 25" fill="none" xmlns="http://www.w3.org/2000/svg">
<path d="M23.0263 16.4605C21.4842 16.4605 19.9737 16.2197 18.5408 15.7461C17.8421 15.5053 17.05 15.6908 16.5895 16.1592L13.7513 18.3027C10.4961 16.5658 8.41185 14.4829 6.6961 11.2487L8.78161 8.47766C9.30661 7.95136 9.49479 7.18422 9.26979 6.4645C8.79474 5.025 8.55266 3.51316 8.55266 1.97369C8.55266 0.885506 7.66715 0 6.57897 0H1.97369C0.885506 0 0 0.885506 0 1.97369C0 14.6697 10.3303 25 23.0263 25C24.1145 25 25 24.1145 25 23.0263V18.4342C25 17.346 24.1145 16.4605 23.0263 16.4605ZM23.6842 23.0263C23.6842 23.3895 23.3882 23.6842 23.0263 23.6842C11.0552 23.6842 1.31577 13.9448 1.31577 1.97369C1.31577 1.61053 1.61182 1.31577 1.97369 1.31577H6.57897C6.94084 1.31577 7.23689 1.61053 7.23689 1.97369C7.23689 3.65397 7.50007 5.30397 8.01582 6.86843C8.09211 7.11446 8.03031 7.36845 7.78952 7.61843L5.39476 10.7895C5.24347 10.9908 5.21978 11.2605 5.33426 11.4842C7.28555 15.3171 9.65533 17.6882 13.5159 19.6658C13.7382 19.7816 14.0106 19.7579 14.2119 19.6053L17.4514 17.15C17.6277 16.9763 17.8869 16.9158 18.1211 16.9934C19.6949 17.5132 21.3449 17.7763 23.0264 17.7763C23.3883 17.7763 23.6844 18.0711 23.6844 18.4342V23.0263H23.6842Z" fill="white"/>
</svg>
