<svg width="44" height="39" viewBox="0 0 44 39" fill="none" xmlns="http://www.w3.org/2000/svg">
<path d="M11.8179 31.1309C9.68176 31.1309 7.9502 32.8626 7.9502 34.9986C7.9502 37.1347 9.68184 38.8663 11.8179 38.8663C13.954 38.8663 15.6855 37.1346 15.6855 34.9986C15.6856 32.8626 13.954 31.1309 11.8179 31.1309ZM11.8179 37.1474C10.6312 37.1474 9.66918 36.1854 9.66918 34.9987C9.66918 33.812 10.6312 32.85 11.8179 32.85C13.0046 32.85 13.9665 33.812 13.9665 34.9987C13.9666 36.1854 13.0046 37.1474 11.8179 37.1474Z" fill="#818181"/>
<path d="M28.1489 31.1309C26.0128 31.1309 24.2812 32.8626 24.2812 34.9986C24.2812 37.1347 26.0129 38.8663 28.1489 38.8663C30.2849 38.8663 32.0166 37.1346 32.0166 34.9986C32.0166 32.8626 30.285 31.1309 28.1489 31.1309ZM28.1489 37.1474C26.9622 37.1474 26.0002 36.1854 26.0002 34.9987C26.0002 33.812 26.9622 32.85 28.1489 32.85C29.3356 32.85 30.2976 33.812 30.2976 34.9987C30.2977 36.1854 29.3356 37.1474 28.1489 37.1474Z" fill="#818181"/>
<path d="M36.8721 8.5696C36.6931 8.37408 36.4482 8.25169 36.1845 8.22578L8.20814 7.83901L7.43461 5.47539C6.88966 3.89534 5.41005 2.82864 3.73877 2.81096H0.859491C0.384793 2.81096 0 3.19575 0 3.67045C0 4.14515 0.384793 4.52994 0.859491 4.52994H3.73877C4.67328 4.55059 5.49617 5.15064 5.80158 6.03407L11.2593 22.4933L10.8296 23.4817C10.3503 24.7177 10.4943 26.1088 11.2164 27.2204C11.9316 28.3123 13.1349 28.9861 14.4395 29.0254H31.1566C31.6313 29.0254 32.0161 28.6406 32.0161 28.1659C32.0161 27.6912 31.6313 27.3064 31.1566 27.3064H14.4394C13.7027 27.288 13.0245 26.9004 12.6345 26.275C12.2489 25.6573 12.1697 24.8962 12.4196 24.2122L12.7635 23.4387L30.8557 21.5478C32.843 21.3289 34.4778 19.8835 34.9383 17.9379L37.0011 9.30004C37.0941 9.05129 37.0447 8.77154 36.8721 8.5696ZM33.2623 17.5512C32.9833 18.8036 31.9199 19.7274 30.6409 19.8289L12.7635 21.6767L8.76682 9.55799L35.1101 9.94476L33.2623 17.5512Z" fill="#818181"/>
<path d="M26.7437 8.82955L26.7437 8.82617C26.7747 4.3527 30.3528 0.855351 34.9482 0.883963L34.9485 0.883965C39.2929 0.909723 42.8577 4.57265 42.8112 9.01354C42.7991 10.068 42.5794 11.1097 42.1646 12.0792C41.7497 13.0489 41.1478 13.9274 40.3933 14.6646C39.6388 15.4017 38.7464 15.9832 37.7671 16.3756C36.7877 16.768 35.7406 16.9638 34.6856 16.9518C33.6305 16.9397 32.5882 16.72 31.6181 16.3053C30.648 15.8906 29.7691 15.2889 29.0317 14.5347C28.2942 13.7804 27.7126 12.8884 27.32 11.9095C26.9275 10.9307 26.7316 9.88407 26.7437 8.82955Z" fill="white" stroke="#FF0000" stroke-width="1.5"/>
<path d="M37.6914 12.6916H31.1699V11.7429L34.4007 8.73772C34.867 8.29461 35.1978 7.92536 35.3932 7.62995C35.593 7.33076 35.693 7.03157 35.693 6.73237C35.693 6.3385 35.562 6.02037 35.3 5.77799C35.0424 5.5356 34.6938 5.41441 34.2541 5.41441C33.7301 5.41441 33.3238 5.55075 33.0351 5.82343C32.7464 6.09612 32.6021 6.46916 32.6021 6.94257H30.9834C30.9834 6.43886 31.1166 5.98629 31.3831 5.58484C31.654 5.1796 32.0381 4.86526 32.5355 4.64181C33.0373 4.41836 33.6146 4.30664 34.2674 4.30664C35.2089 4.30664 35.9505 4.50926 36.4923 4.91449C37.0386 5.31594 37.3117 5.87267 37.3117 6.58467C37.3117 6.99748 37.174 7.43112 36.8987 7.88559C36.6278 8.33627 36.1815 8.84945 35.5597 9.42511L33.1883 11.5895H37.6914V12.6916Z" fill="#323636"/>
</svg>
