<svg width="29" height="29" viewBox="0 0 29 29" fill="none" xmlns="http://www.w3.org/2000/svg">
<path d="M14.5 29C22.4949 29 29 22.4955 29 14.5C29 13.12 28.8074 11.76 28.4259 10.4576C28.238 9.81712 27.5692 9.44925 26.927 9.63717C26.286 9.82449 25.9193 10.4956 26.1066 11.1361C26.4226 12.2182 26.5833 13.3504 26.5833 14.5C26.5833 21.1626 21.1626 26.5833 14.5 26.5833C7.83735 26.5833 2.41667 21.1626 2.41667 14.5C2.41667 7.83735 7.83735 2.41667 14.5 2.41667C16.9214 2.41667 19.251 3.12467 21.237 4.46369C21.7898 4.83687 22.5415 4.69026 22.9141 4.13742C23.287 3.58399 23.1415 2.83292 22.5881 2.46003C20.2015 0.850789 17.4049 0 14.5 0C6.50512 0 0 6.50453 0 14.5C0 22.4955 6.50512 29 14.5 29V29Z" fill="#FF0000"/>
<path d="M26.9368 2.77065L14.4995 15.2074L10.5204 11.229C10.0484 10.7573 9.2838 10.7573 8.81179 11.229C8.34008 11.701 8.34008 12.4656 8.81179 12.9376L13.6451 17.771C13.8814 18.0073 14.19 18.125 14.4995 18.125C14.8089 18.125 15.1175 18.0073 15.3538 17.771L28.6454 4.47931C29.1172 4.00731 29.1172 3.24266 28.6454 2.77065C28.1734 2.29894 27.4088 2.29894 26.9368 2.77065Z" fill="#FF0000"/>
</svg>
