<svg width="27" height="27" viewBox="0 0 27 27" fill="none" xmlns="http://www.w3.org/2000/svg">
<path d="M23.046 3.95408C20.4962 1.40426 17.106 0 13.5 0C9.89402 0 6.50384 1.40426 3.95402 3.95408C1.40421 6.50389 0 9.89402 0 13.5C0 17.106 1.40421 20.4962 3.95402 23.0459C6.50384 25.5957 9.89402 27 13.5 27C17.106 27 20.4962 25.5957 23.046 23.0459C25.5958 20.4961 27 17.106 27 13.5C27 9.89402 25.5958 6.50384 23.046 3.95408ZM13.5 24.3502C7.51713 24.3502 2.6498 19.4828 2.6498 13.5C2.6498 13.4902 2.65011 13.4805 2.65017 13.4708C2.65017 13.4683 2.6498 13.4659 2.6498 13.4635C2.6498 13.4593 2.65032 13.4553 2.65043 13.4512C2.67674 7.54001 7.45379 2.7308 13.3526 2.6517C13.3649 2.65112 13.3771 2.64985 13.3896 2.64985C13.3971 2.64985 13.4044 2.65075 13.4118 2.65096C13.4413 2.65075 13.4706 2.64985 13.5001 2.64985C19.4829 2.64985 24.3503 7.51723 24.3503 13.5001C24.3503 19.4829 19.4829 24.3502 13.5 24.3502Z" fill="#FF0000"/>
<path d="M21.742 14.1517C21.3008 14.1517 20.9432 13.7941 20.9432 13.3529C20.9432 12.9117 21.3008 12.5541 21.742 12.5541H22.7049C22.2526 8.1204 18.6569 4.60317 14.1887 4.27295V5.11116C14.1887 5.55234 13.8311 5.90998 13.3899 5.90998C12.9487 5.90998 12.5911 5.55234 12.5911 5.11116V4.29204C8.18902 4.72341 4.68256 8.2525 4.28584 12.6645H5.14815C5.58932 12.6645 5.94697 13.0221 5.94697 13.4633C5.94697 13.9045 5.58932 14.2621 5.14815 14.2621H4.2793C4.64659 18.7451 8.22335 22.3328 12.7015 22.7176V21.705C12.7015 21.2638 13.0591 20.9062 13.5003 20.9062C13.9415 20.9062 14.2991 21.2638 14.2991 21.705V22.7176C18.8139 22.3297 22.4125 18.686 22.7296 14.1517H21.742V14.1517ZM16.734 11.3959L14.0652 14.0648C13.9154 14.2146 13.7123 14.2988 13.5004 14.2988C13.2885 14.2988 13.0853 14.2146 12.9355 14.0648L8.29001 9.41924C7.97803 9.10732 7.97803 8.60154 8.29001 8.28957C8.60193 7.97759 9.10771 7.97759 9.41969 8.28957L13.5004 12.3703L15.6044 10.2663C15.9163 9.95429 16.4221 9.95429 16.7341 10.2663C17.046 10.5782 17.046 11.084 16.734 11.3959Z" fill="#FF0000"/>
</svg>
