<svg width="80" height="80" viewBox="0 0 80 80" fill="none" xmlns="http://www.w3.org/2000/svg">
<path d="M46.2538 17.6562C35.8838 17.6562 27.5024 29.6637 27.5024 40C27.5024 40.6641 27.5366 41.2952 27.6044 41.8921V41.8939L55.2919 49.1956H55.2937L55.2949 49.1937L64.7347 42.9999C64.9129 42.0862 65.0051 41.0889 65.0051 40C65.0051 29.6423 56.6067 17.6562 46.2538 17.6562Z" fill="#4FA898"/>
<path d="M55.2937 49.1955L55.2949 49.1937C55.3108 49.1833 71.5735 38.5137 71.604 38.4936C73.9669 37.0172 77.0891 38.0377 78.1231 40.6231C78.811 42.3406 78.3703 44.3017 77.0152 45.559L58.0533 63.3294C56.8966 64.403 55.3779 64.9999 53.7995 64.9999H27.5024L13.5439 51.0424L19.3927 45.9252C22.6095 43.1085 26.7419 41.5624 31.0012 41.5624C34.8156 41.5624 38.528 42.8002 41.58 45.0872C42.0463 45.3704 42.7562 46.2499 44.1711 46.2499H50.9416C52.915 46.2499 54.6027 47.4688 55.2919 49.1955H55.2937Z" fill="#FED2A4"/>
<path d="M46.2539 1.5625C43.2898 1.5625 40.457 1.98608 37.7798 2.76428L42.7862 11.756H49.7215L54.728 2.76428C52.0514 1.98608 49.218 1.5625 46.2539 1.5625Z" fill="#4FA898"/>
<path d="M51.8149 12.3066C48.1721 11.1139 44.3376 11.1133 40.6923 12.3066C39.0546 12.8467 38.161 14.6125 38.7 16.2531C39.1126 17.5049 40.2327 18.3143 41.4736 18.3924L41.5127 18.5016L50.784 18.4284L50.7931 18.4015C52.1244 18.4217 53.3696 17.5831 53.8072 16.2531C54.3462 14.6125 53.4526 12.8467 51.8149 12.3066Z" fill="#EAFAFF"/>
<path d="M30.628 68.1252L20.3148 78.4377L1.56348 59.6877L11.8767 49.3752C17.0669 54.5651 27.5309 65.0283 30.628 68.1252Z" fill="#96C8EF"/>
<path d="M33.753 57.1875C34.6155 57.1875 35.3156 56.4874 35.3156 55.625C35.3156 54.7626 34.6155 54.0625 33.753 54.0625C32.8906 54.0625 32.1904 54.7626 32.1904 55.625C32.1904 56.4874 32.8906 57.1875 33.753 57.1875Z" fill="black"/>
<path d="M0.457796 60.7922L19.2091 79.5422C19.8195 80.1526 20.8083 80.1526 21.4187 79.5422L31.732 69.2297C32.3424 68.6194 32.3424 67.6306 31.732 67.0203L31.2742 66.5625H53.7989C55.7772 66.5625 57.6652 65.8209 59.121 64.4696L78.078 46.7041C79.8927 45.0189 80.4939 42.3419 79.5735 40.0433C78.9081 38.3795 77.5494 37.1063 75.8464 36.5503C74.1428 35.993 72.2951 36.2189 70.7752 37.1686C70.7655 37.1747 66.5666 39.9298 66.5666 39.9298C66.5379 31.46 61.4185 22.428 54.3715 18.3618C54.7737 17.8998 55.0899 17.3529 55.2914 16.7407C56.0977 14.2877 54.7573 11.6327 52.3004 10.8215C52.2235 10.7959 52.1466 10.7733 52.0697 10.7495L56.0922 3.52417C56.3235 3.10852 56.3534 2.60986 56.1722 2.17041C55.9915 1.73035 55.6204 1.39648 55.1632 1.26404C52.2791 0.425415 49.2814 0 46.2533 0C43.2257 0 40.2274 0.425415 37.3433 1.26343C36.8861 1.39648 36.515 1.72974 36.3337 2.1698C36.1531 2.60986 36.1824 3.10852 36.4143 3.52417L40.4368 10.7495C40.3587 10.7739 40.2805 10.7971 40.2024 10.8228C37.7492 11.6327 36.4094 14.2871 37.2158 16.7419C37.4172 17.3529 37.7358 17.8979 38.1393 18.3606C30.9873 22.4872 25.9393 31.6119 25.9393 40C25.9393 40.2289 25.9448 40.4547 25.9521 40.6787C23.1535 41.4423 20.5514 42.8333 18.3631 44.7491L13.6142 48.9038L12.9806 48.2703C12.3703 47.6599 11.3814 47.6599 10.771 48.2703L0.457796 58.5828C-0.152599 59.1931 -0.152599 60.1819 0.457796 60.7922ZM40.1328 3.77869C42.1349 3.34412 44.1858 3.125 46.2533 3.125C48.3207 3.125 50.3716 3.34412 52.3743 3.77869L48.892 10.033C47.1365 9.78821 45.3688 9.78821 43.6151 10.033L40.1328 3.77869ZM41.1778 13.7915C44.3842 12.7423 47.88 12.663 51.3244 13.7903C52.1442 14.0607 52.5916 14.9469 52.3224 15.7648C52.1198 16.3806 51.5704 16.7987 50.9338 16.8359C47.8525 15.8563 44.6522 15.8545 41.5721 16.8329C41.5721 16.8329 41.5721 16.8329 41.5715 16.8329C40.9294 16.7926 40.3843 16.3727 40.1841 15.7654C39.9149 14.9463 40.3623 14.0601 41.1778 13.7915ZM42.0421 19.9713C44.7517 18.9954 47.5589 18.9722 50.2751 19.9054C57.5352 22.4017 63.442 31.416 63.442 40C63.442 40.7275 63.3962 41.4209 63.3058 42.0691L55.7949 46.9965C54.6321 45.556 52.8699 44.6875 50.9411 44.6875H47.8159V42.8564C49.6348 42.2113 50.9411 40.4742 50.9411 38.4375C50.9411 35.8527 48.8383 33.75 46.2533 33.75C45.392 33.75 44.6906 33.0493 44.6906 32.1875C44.6906 31.3257 45.392 30.625 46.2533 30.625C46.8069 30.625 47.391 30.9076 47.9434 31.4417C48.5636 32.0416 49.553 32.0251 50.1531 31.4056C50.7531 30.7855 50.7366 29.7961 50.1164 29.1962C49.3235 28.4283 48.53 27.9944 47.8159 27.7576V25.9375C47.8159 25.0745 47.1163 24.375 46.2533 24.375C45.3902 24.375 44.6906 25.0745 44.6906 25.9375V27.7686C42.8723 28.4137 41.5654 30.1508 41.5654 32.1875C41.5654 34.7723 43.6682 36.875 46.2533 36.875C47.1151 36.875 47.8159 37.5757 47.8159 38.4375C47.8159 39.2993 47.1151 40 46.2533 40C45.5855 40 44.8652 39.5801 44.2243 38.8177C43.6688 38.1573 42.6831 38.0719 42.0226 38.6273C41.3622 39.1827 41.2767 40.1685 41.8322 40.8289C42.6672 41.8225 43.6499 42.5146 44.6906 42.8638V44.6875H44.1706C43.4027 44.6875 43.0578 44.187 42.517 43.8373C39.2154 41.3629 35.1258 40 31.0007 40C30.3555 40 29.7091 40.0336 29.0658 40.0989C29.0658 40.0659 29.0645 40.0336 29.0645 40C29.0645 31.5363 34.8865 22.5519 42.0421 19.9713ZM20.4214 47.1002C23.3574 44.5294 27.1302 43.125 31.0007 43.125C34.4543 43.125 37.878 44.2657 40.6407 46.3367C41.0393 46.5698 42.149 47.8125 44.17 47.8125H50.9411C52.7198 47.8125 54.0663 49.2584 54.0663 50.9375C54.0663 52.6605 52.6642 54.0625 50.9411 54.0625H40.0028C39.1397 54.0625 38.4402 54.762 38.4402 55.625C38.4402 56.488 39.1397 57.1875 40.0028 57.1875H50.9411C54.3874 57.1875 57.1915 54.3835 57.1915 50.9375C57.1915 50.5792 57.1598 50.2258 57.1 49.8779L72.4447 39.8108C73.1747 39.3597 74.0604 39.2542 74.8759 39.5203C75.6962 39.7888 76.3512 40.4022 76.6716 41.2042C77.1227 42.3297 76.8395 43.5901 75.9459 44.4196L56.9895 62.1844C56.1191 62.9926 54.9862 63.4375 53.7989 63.4375H28.149L15.8294 51.1182L20.4214 47.1002ZM11.8758 51.5845L28.4175 68.125L20.3139 76.228L3.77224 59.6875L11.8758 51.5845Z" fill="black"/>
</svg>
