<svg width="28" height="20" viewBox="0 0 28 20" fill="none" xmlns="http://www.w3.org/2000/svg">
<path d="M27.9792 2.00724C27.9792 1.97525 28.0012 1.9441 27.9998 1.91248L19.4551 10.1458L27.9896 18.116C27.9946 18.0591 27.9792 18.0017 27.9792 17.9435V2.00724V2.00724Z" fill="#FF0000"/>
<path d="M18.1505 11.4128L14.6623 14.7688C14.4858 14.9387 14.2579 15.0238 14.0298 15.0238C13.8064 15.0238 13.5831 14.9423 13.4078 14.7789L9.92906 11.5373L1.33887 19.8173C1.54774 19.8924 1.77194 19.9506 2.00673 19.9506H26.0529C26.4016 19.9506 26.7286 19.8444 27.0129 19.6861L18.1505 11.4128Z" fill="#FF0000"/>
<path d="M14.0207 12.855L27.0611 0.293298C26.7658 0.117757 26.4222 0 26.0538 0H2.0076C1.52794 0 1.08842 0.186246 0.746094 0.470299L14.0207 12.855Z" fill="#FF0000"/>
<path d="M0 2.31326V17.9433C0 18.1228 0.0412394 18.2958 0.0860066 18.4611L8.56964 10.2916L0 2.31326Z" fill="#FF0000"/>
</svg>
