<svg width="70" height="70" viewBox="0 0 70 70" fill="none" xmlns="http://www.w3.org/2000/svg">
<path d="M57.5803 68.871C51.3481 68.871 46.29 63.813 46.29 57.5807C46.29 55.3565 46.9336 53.3017 48.04 51.5517L46.29 47.4194L51.5513 48.0404C53.3013 46.934 55.3561 46.2904 57.5803 46.2904C63.8125 46.2904 68.8706 51.3485 68.8706 57.5807C68.8706 63.813 63.8125 68.871 57.5803 68.871Z" fill="#E6E9ED"/>
<path d="M64.355 64.3549H50.8066C50.8066 62.9662 51.5857 61.7017 52.8276 61.092L55.3228 59.8388V58.9582C54.634 58.3372 54.1937 57.4566 54.1937 56.4517V54.3856C54.1937 52.5566 55.5711 50.9082 57.4002 50.8066C59.3534 50.705 60.9679 52.263 60.9679 54.1937V56.4517C60.9679 57.4566 60.5276 58.3372 59.8389 58.9582V59.8388L62.334 61.092C63.5759 61.7017 64.355 62.9662 64.355 64.3549Z" fill="#FF826E"/>
<path d="M39.5159 10.1613H66.6125C67.8545 10.1613 68.8706 11.1774 68.8706 12.4194V28.2258C68.8706 29.4677 67.8545 30.4839 66.6125 30.4839H51.9352L42.903 35V30.4839H39.5159C38.2739 30.4839 37.2578 29.4677 37.2578 28.2258V12.4194C37.2578 11.1774 38.2739 10.1613 39.5159 10.1613Z" fill="#B4DD7F"/>
<path d="M32.7417 3.38752V16.9359C32.7417 18.1778 31.7256 19.1939 30.4836 19.1939H20.3224V22.581L14.6772 19.1939H3.38696C2.14503 19.1939 1.12891 18.1778 1.12891 16.9359V3.38752C1.12891 2.14558 2.14503 1.12946 3.38696 1.12946H30.4836C31.7256 1.12946 32.7417 2.14558 32.7417 3.38752Z" fill="#E6E9ED"/>
<path d="M25.9675 12.4192C27.2146 12.4192 28.2256 11.4082 28.2256 10.1611C28.2256 8.91404 27.2146 7.90308 25.9675 7.90308C24.7204 7.90308 23.7095 8.91404 23.7095 10.1611C23.7095 11.4082 24.7204 12.4192 25.9675 12.4192Z" fill="#FF826E"/>
<path d="M16.9353 12.4192C18.1824 12.4192 19.1934 11.4082 19.1934 10.1611C19.1934 8.91404 18.1824 7.90308 16.9353 7.90308C15.6882 7.90308 14.6772 8.91404 14.6772 10.1611C14.6772 11.4082 15.6882 12.4192 16.9353 12.4192Z" fill="#FF826E"/>
<path d="M7.90307 12.4196C9.15016 12.4196 10.1611 11.4087 10.1611 10.1616C10.1611 8.91447 9.15016 7.9035 7.90307 7.9035C6.65599 7.9035 5.64502 8.91447 5.64502 10.1616C5.64502 11.4087 6.65599 12.4196 7.90307 12.4196Z" fill="#FF826E"/>
<path d="M41.7739 45.1614V51.9356L37.7884 52.9517C37.4046 54.3856 36.84 55.7404 36.1175 56.9936L38.2175 60.5275L33.4304 65.3146L29.8965 63.2146C28.6433 63.9372 27.2885 64.5017 25.8546 64.8856L24.8385 68.871H18.0643L17.0482 64.8856C15.6143 64.5017 14.2595 63.9372 13.0063 63.2146L9.47242 65.3146L4.68534 60.5275L6.78533 56.9936C6.06276 55.7404 5.49824 54.3856 5.11437 52.9517L1.12891 51.9356V45.1614L5.11437 44.1453C5.49824 42.7114 6.06276 41.3566 6.78533 40.1033L4.68534 36.5695L9.47242 31.7824L13.0063 33.8824C14.2595 33.1598 15.6143 32.5953 17.0482 32.2114L18.0643 28.226H24.8385L25.8546 32.2114C27.2885 32.5953 28.6433 33.1598 29.8965 33.8824L33.4304 31.7824L38.2175 36.5695L36.1175 40.1033C36.84 41.3566 37.4046 42.7114 37.7884 44.1453L41.7739 45.1614ZM33.8707 48.5485C33.8707 41.684 28.3159 36.1292 21.4514 36.1292C14.5869 36.1292 9.0321 41.684 9.0321 48.5485C9.0321 55.413 14.5869 60.9678 21.4514 60.9678C28.3159 60.9678 33.8707 55.413 33.8707 48.5485Z" fill="#FFC729"/>
<path d="M21.451 36.1293C28.3155 36.1293 33.8703 41.6841 33.8703 48.5486C33.8703 55.4131 28.3155 60.9679 21.451 60.9679C14.5866 60.9679 9.03174 55.4131 9.03174 48.5486C9.03174 41.6841 14.5866 36.1293 21.451 36.1293ZM27.0962 48.5486C27.0962 45.4325 24.5672 42.9035 21.451 42.9035C18.3349 42.9035 15.8059 45.4325 15.8059 48.5486C15.8059 51.6647 18.3349 54.1938 21.451 54.1938C24.5672 54.1938 27.0962 51.6647 27.0962 48.5486Z" fill="#FCD770"/>
<path d="M37.4205 40.1279L39.6368 36.3954L33.6044 30.363L29.8718 32.5792C28.8918 32.0622 27.8588 31.6354 26.7896 31.3057L25.7159 27.0967H17.1861L16.1135 31.3068C15.0443 31.6365 14.0112 32.0633 13.0312 32.5804L9.29867 30.3641L3.26628 36.3965L5.48256 40.1291C4.96546 41.1091 4.53869 42.1421 4.20901 43.2113L0 44.2839V52.8137L4.21014 53.8863C4.53982 54.9555 4.96659 55.9886 5.48369 56.9686L3.26741 60.7011L9.2998 66.7335L13.0324 64.5172C14.0124 65.0343 15.0454 65.4611 16.1146 65.7908L17.1872 69.9998H25.717L26.7896 65.7897C27.8588 65.46 28.8918 65.0332 29.8718 64.5161L33.6044 66.7324L39.6368 60.7L37.4205 56.9674C37.9376 55.9874 38.3643 54.9544 38.694 53.8852L42.903 52.8126V44.2828L38.6929 43.2102C38.3632 42.141 37.9376 41.1079 37.4205 40.1279ZM40.645 51.0581L36.8695 52.0211L36.6979 52.6579C36.3411 53.9868 35.8173 55.2547 35.141 56.4255L34.8113 56.9979L36.7984 60.3466L33.2487 63.8963L29.9 61.9092L29.3276 62.2389C28.1568 62.9152 26.8889 63.4379 25.5601 63.7958L24.9233 63.9674L23.9613 67.7418H18.9428L17.9798 63.9663L17.343 63.7947C16.0141 63.4379 14.7462 62.914 13.5754 62.2377L13.003 61.9081L9.65431 63.8951L6.10465 60.3455L8.09174 56.9968L7.76206 56.4244C7.08578 55.2536 6.56304 53.9857 6.20513 52.6568L6.03352 52.02L2.25805 51.0581V46.0395L6.03352 45.0765L6.20513 44.4397C6.56191 43.1108 7.08578 41.8429 7.76206 40.6721L8.09174 40.0997L6.10465 36.751L9.65431 33.2013L13.003 35.1884L13.5754 34.8588C14.7462 34.1825 16.0141 33.6597 17.343 33.3018L17.9798 33.1302L18.9417 29.3547H23.9602L24.9233 33.1302L25.5601 33.3018C26.8889 33.6586 28.1568 34.1825 29.3276 34.8588L29.9 35.1884L33.2487 33.2013L36.7984 36.751L34.8113 40.0997L35.141 40.6721C35.8173 41.8429 36.34 43.1108 36.6979 44.4397L36.8695 45.0765L40.645 46.0384V51.0581Z" fill="black"/>
<path d="M21.4517 35C13.9809 35 7.90332 41.0776 7.90332 48.5484C7.90332 56.0192 13.9809 62.0967 21.4517 62.0967C28.9224 62.0967 35 56.0192 35 48.5484C35 41.0776 28.9224 35 21.4517 35ZM21.4517 59.8387C15.2262 59.8387 10.1614 54.7738 10.1614 48.5484C10.1614 42.3229 15.2262 37.2581 21.4517 37.2581C27.6771 37.2581 32.7419 42.3229 32.7419 48.5484C32.7419 54.7738 27.6771 59.8387 21.4517 59.8387Z" fill="black"/>
<path d="M21.4514 41.774C17.7155 41.774 14.6772 44.8123 14.6772 48.5482C14.6772 52.2842 17.7155 55.3224 21.4514 55.3224C25.1874 55.3224 28.2256 52.2842 28.2256 48.5482C28.2256 44.8123 25.1874 41.774 21.4514 41.774ZM21.4514 53.0643C18.9608 53.0643 16.9353 51.0389 16.9353 48.5482C16.9353 46.0576 18.9608 44.0321 21.4514 44.0321C23.942 44.0321 25.9675 46.0576 25.9675 48.5482C25.9675 51.0389 23.942 53.0643 21.4514 53.0643Z" fill="black"/>
<path d="M66.6127 9.0321H39.516C37.6486 9.0321 36.1289 10.5518 36.1289 12.4192V28.2256C36.1289 30.093 37.6486 31.6127 39.516 31.6127H41.774V36.8266L52.2017 31.6127H66.6127C68.4801 31.6127 69.9997 30.093 69.9997 28.2256V12.4192C69.9997 10.5518 68.4801 9.0321 66.6127 9.0321ZM67.7417 28.2256C67.7417 28.8488 67.2359 29.3546 66.6127 29.3546H51.6688L44.0321 33.173V29.3546H39.516C38.8928 29.3546 38.387 28.8488 38.387 28.2256V12.4192C38.387 11.796 38.8928 11.2902 39.516 11.2902H66.6127C67.2359 11.2902 67.7417 11.796 67.7417 12.4192V28.2256Z" fill="black"/>
<path d="M3.38708 20.3225H14.3646L21.4515 24.5756V20.3225H30.4837C32.3512 20.3225 33.8708 18.8029 33.8708 16.9355V3.38709C33.8708 1.51967 32.3512 0 30.4837 0H3.38708C1.51967 0 0 1.51967 0 3.38709V16.9355C0 18.8029 1.51967 20.3225 3.38708 20.3225ZM2.25806 3.38709C2.25806 2.76387 2.76386 2.25806 3.38708 2.25806H30.4837C31.107 2.25806 31.6128 2.76387 31.6128 3.38709V16.9355C31.6128 17.5587 31.107 18.0645 30.4837 18.0645H19.1935V20.5856L14.9901 18.0645H3.38708C2.76386 18.0645 2.25806 17.5587 2.25806 16.9355V3.38709Z" fill="black"/>
<path d="M63.2258 24.8386H60.9678V15.8064H58.7097V24.8386H56.4517V13.5483H54.1936V24.8386H51.9355V18.0645H49.6775V24.8386H47.4194V20.3225H45.1614V24.8386H42.9033V27.0967H65.4839V13.5483H63.2258V24.8386Z" fill="black"/>
<path d="M7.9032 13.5482C9.77061 13.5482 11.2903 12.0286 11.2903 10.1611C11.2903 8.29372 9.77061 6.77405 7.9032 6.77405C6.03578 6.77405 4.51611 8.29372 4.51611 10.1611C4.51611 12.0286 6.03578 13.5482 7.9032 13.5482ZM7.9032 9.03211C8.52642 9.03211 9.03222 9.53791 9.03222 10.1611C9.03222 10.7844 8.52642 11.2902 7.9032 11.2902C7.27997 11.2902 6.77417 10.7844 6.77417 10.1611C6.77417 9.53791 7.27997 9.03211 7.9032 9.03211Z" fill="black"/>
<path d="M16.9354 13.5482C18.8028 13.5482 20.3225 12.0286 20.3225 10.1611C20.3225 8.29372 18.8028 6.77405 16.9354 6.77405C15.068 6.77405 13.5483 8.29372 13.5483 10.1611C13.5483 12.0286 15.068 13.5482 16.9354 13.5482ZM16.9354 9.03211C17.5586 9.03211 18.0644 9.53791 18.0644 10.1611C18.0644 10.7844 17.5586 11.2902 16.9354 11.2902C16.3122 11.2902 15.8064 10.7844 15.8064 10.1611C15.8064 9.53791 16.3122 9.03211 16.9354 9.03211Z" fill="black"/>
<path d="M25.9672 13.5482C27.8346 13.5482 29.3542 12.0286 29.3542 10.1611C29.3542 8.29372 27.8346 6.77405 25.9672 6.77405C24.0997 6.77405 22.5801 8.29372 22.5801 10.1611C22.5801 12.0286 24.0997 13.5482 25.9672 13.5482ZM25.9672 9.03211C26.5904 9.03211 27.0962 9.53791 27.0962 10.1611C27.0962 10.7844 26.5904 11.2902 25.9672 11.2902C25.3439 11.2902 24.8381 10.7844 24.8381 10.1611C24.8381 9.53791 25.3439 9.03211 25.9672 9.03211Z" fill="black"/>
<path d="M57.58 45.1614C55.3716 45.1614 53.2096 45.753 51.2992 46.8775L44.4912 46.0691L46.7809 51.4659C45.7185 53.3356 45.1607 55.4367 45.1607 57.5807C45.1607 64.4283 50.7325 70 57.58 70C64.4276 70 69.9993 64.4283 69.9993 57.5807C69.9993 50.7331 64.4276 45.1614 57.58 45.1614ZM51.2067 65.4839H63.9523C62.2079 66.8929 59.9916 67.742 57.5789 67.742C55.1662 67.742 52.9521 66.8929 51.2067 65.4839ZM56.0784 58.1215C55.5907 57.6823 55.322 57.0885 55.322 56.4517V54.3856C55.322 53.0973 56.2805 52.001 57.457 51.9389C58.0757 51.9028 58.6808 52.1241 59.1347 52.5565C59.5874 52.9878 59.8381 53.5681 59.8381 54.1936V56.4517C59.8381 57.0885 59.5694 57.6823 59.0816 58.1215L58.7091 58.458V60.5365L61.8297 62.0968C62.3321 62.3475 62.7227 62.746 62.9621 63.2259H52.1991C52.4384 62.746 52.8302 62.3475 53.3315 62.0968L56.451 60.5365V58.458L56.0784 58.1215ZM65.4573 63.988C65.3308 62.3147 64.3587 60.8368 62.839 60.077L61.1308 59.2234C61.7507 58.4331 62.0961 57.4565 62.0961 56.4517V54.1936C62.0961 52.9607 61.5836 51.7673 60.6894 50.9183C59.7816 50.058 58.6074 49.638 57.3384 49.6831C54.9415 49.8085 53.0639 51.8746 53.0639 54.3856V56.4517C53.0639 57.4565 53.4094 58.4331 54.0281 59.2234L52.3199 60.077C50.8002 60.8368 49.8281 62.3147 49.7017 63.988C48.2768 62.238 47.4188 60.0081 47.4188 57.5807C47.4188 55.6659 47.9641 53.7906 48.9972 52.158L49.3133 51.6578L48.0883 48.7698L51.8175 49.2135L52.1573 48.9989C53.7899 47.9648 55.6652 47.4194 57.58 47.4194C63.1834 47.4194 67.7413 51.9773 67.7413 57.5807C67.7413 60.0081 66.8832 62.238 65.4573 63.988Z" fill="black"/>
</svg>
