<svg width="41" height="41" viewBox="0 0 41 41" fill="none" xmlns="http://www.w3.org/2000/svg">
<path d="M20.0348 0.867188C8.96985 0.867188 0 9.83704 0 20.902C0 31.9669 8.96985 40.9368 20.0348 40.9368C31.0997 40.9368 40.0696 31.9669 40.0696 20.902C40.0696 9.83704 31.0997 0.867188 20.0348 0.867188ZM27.6782 11.0701L24.9071 11.0713C22.7341 11.0713 22.314 12.1039 22.314 13.619V16.9598H27.4957L27.4933 22.1924H22.3144V35.6205H16.9096V22.1924H12.3914V16.9598H16.9096V13.1008C16.9096 8.62245 19.6458 6.18343 23.6404 6.18343L27.6786 6.18958V11.0701H27.6782Z" fill="#554883"/>
</svg>
