<svg width="31" height="22" viewBox="0 0 31 22" fill="none" xmlns="http://www.w3.org/2000/svg">
<path d="M0 14.1998V18.2498C0 19.9498 1.35 21.2998 3 21.2998H28C29.65 21.2998 31 19.9498 31 18.2498V14.1998H0Z" fill="#EA2839"/>
<path d="M28 0.000244141H3C1.35 0.000244141 0 1.35024 0 3.05024V7.10023H31V3.05024C31 1.35024 29.65 0.000244141 28 0.000244141Z" fill="#FECB00"/>
<path d="M31 7.00003H0V14.25H31V7.00003Z" fill="#34B233"/>
<path d="M27.9997 21.2998C29.6497 21.2998 30.9997 19.9498 30.9997 18.2498V14.1998H19.6997L27.9997 21.2998Z" fill="#D31A30"/>
<path d="M28 0H3L11.3 7.09999H31V3.05C31 1.35 29.65 0 28 0Z" fill="#FCAE00"/>
<path d="M19.75 14.3H31V7.00003H11.25L19.75 14.3Z" fill="#269E23"/>
<path d="M28 0H3L26.15 7.09999H31V3.05C31 1.35 29.65 0 28 0Z" fill="#F99900"/>
<path d="M30.9999 8.55003V7.00003H25.8999L30.9999 8.55003Z" fill="#168410"/>
<path d="M31 18.25C31 19.95 29.65 21.3 28 21.3H3C1.35 21.3 0 19.95 0 18.25" fill="#BF102D"/>
<path d="M18.4999 12.3998L23.3499 8.89979H17.3499L15.4999 3.1998L13.6499 8.89979H7.6499L12.4999 12.3998L10.6499 18.0998L15.4999 14.5998L20.3499 18.0998L18.4999 12.3998Z" fill="white"/>
<path d="M15.4997 3.1998L13.6497 8.89979H13.4497L18.8497 13.4998L18.4997 12.3998L23.3497 8.89979H17.3497L15.4997 3.1998Z" fill="#D8D8D8"/>
</svg>
