<svg width="77" height="61" viewBox="0 0 77 61" fill="none" xmlns="http://www.w3.org/2000/svg">
<path d="M75.4961 59.3398H51.4336C51.4336 54.3559 55.4731 50.3164 60.457 50.3164H66.4727C71.4566 50.3164 75.4961 54.3559 75.4961 59.3398Z" fill="#91DEF5"/>
<path d="M25.5664 59.3398H1.50391C1.50391 54.3559 5.5434 50.3164 10.5273 50.3164H16.543C21.5269 50.3164 25.5664 54.3559 25.5664 59.3398Z" fill="#91DEF5"/>
<path d="M51.4336 59.3398H25.5664C25.5664 54.3559 29.6059 50.3164 34.5898 50.3164H42.4102C47.3941 50.3164 51.4336 54.3559 51.4336 59.3398Z" fill="#91DEF5"/>
<path d="M74.5937 17.5266L69.3315 22.6565L70.5737 29.8993C68.2006 28.651 66.5132 27.7652 64.0678 26.4794L57.5634 29.8993L58.8057 22.6565L53.542 17.5266L60.8149 16.4694L64.0678 9.87927L67.3208 16.4694L74.5937 17.5266Z" fill="#FFDA8F"/>
<path d="M63.4648 47.3086C66.7872 47.3086 69.4805 44.6153 69.4805 41.293C69.4805 37.9706 66.7872 35.2773 63.4648 35.2773C60.1425 35.2773 57.4492 37.9706 57.4492 41.293C57.4492 44.6153 60.1425 47.3086 63.4648 47.3086Z" fill="#FCE8D0"/>
<path d="M52.0578 12.042L45.2797 18.6502L46.8799 27.9804L38.5001 23.5755L30.1203 27.9804L31.7205 18.6502L24.9424 12.042L34.3102 10.681L38.5001 2.19141L42.69 10.681L52.0578 12.042Z" fill="#FFDA8F"/>
<path d="M38.5 47.3086C41.8223 47.3086 44.5156 44.6153 44.5156 41.293C44.5156 37.9706 41.8223 35.2773 38.5 35.2773C35.1777 35.2773 32.4844 37.9706 32.4844 41.293C32.4844 44.6153 35.1777 47.3086 38.5 47.3086Z" fill="#FCE8D0"/>
<path d="M23.4579 17.5266L18.1943 22.6565L19.4365 29.8993C17.0633 28.651 15.3759 27.7652 12.9321 26.4794L6.42619 29.8993L7.66842 22.6565L2.40625 17.5266L9.67914 16.4694L12.9321 9.87927L16.185 16.4694L23.4579 17.5266Z" fill="#FFDA8F"/>
<path d="M13.5352 47.3086C16.8575 47.3086 19.5508 44.6153 19.5508 41.293C19.5508 37.9706 16.8575 35.2773 13.5352 35.2773C10.2128 35.2773 7.51953 37.9706 7.51953 41.293C7.51953 44.6153 10.2128 47.3086 13.5352 47.3086Z" fill="#FCE8D0"/>
<path d="M21.0547 41.293C21.0547 37.1467 17.6814 33.7734 13.5352 33.7734C9.38889 33.7734 6.01562 37.1467 6.01562 41.293C6.01562 45.4392 9.38889 48.8125 13.5352 48.8125C17.6814 48.8125 21.0547 45.4392 21.0547 41.293ZM13.5352 45.8047C11.0474 45.8047 9.02344 43.7807 9.02344 41.293C9.02344 38.8052 11.0474 36.7812 13.5352 36.7812C16.0229 36.7812 18.0469 38.8052 18.0469 41.293C18.0469 43.7807 16.0229 45.8047 13.5352 45.8047Z" fill="black"/>
<path d="M1.50391 60.8438H31.7324C32.563 60.8438 33.2363 60.1703 33.2363 59.3398C33.2363 58.5094 32.563 57.8359 31.7324 57.8359H27.2213C27.92 54.4079 30.9585 51.8203 34.5898 51.8203H42.4102C46.0415 51.8203 49.0798 54.4079 49.7787 57.8359H45.2676C44.437 57.8359 43.7637 58.5094 43.7637 59.3398C43.7637 60.1703 44.437 60.8438 45.2676 60.8438H75.4961C76.3267 60.8438 77 60.1703 77 59.3398C77 53.5351 72.2774 48.8125 66.4727 48.8125H60.457C56.6317 48.8125 53.2771 50.864 51.4336 53.924C49.5901 50.864 46.2355 48.8125 42.4102 48.8125H34.5898C30.7645 48.8125 27.4099 50.864 25.5664 53.924C23.7229 50.864 20.3683 48.8125 16.543 48.8125H10.5273C4.72257 48.8125 0 53.5351 0 59.3398C0 60.1703 0.673299 60.8438 1.50391 60.8438ZM60.457 51.8203H66.4727C70.104 51.8203 73.1423 54.4079 73.8412 57.8359H53.0885C53.7874 54.4079 56.8257 51.8203 60.457 51.8203ZM10.5273 51.8203H16.543C20.1743 51.8203 23.2126 54.4079 23.9115 57.8359H3.1588C3.85767 54.4079 6.89601 51.8203 10.5273 51.8203Z" fill="black"/>
<path d="M46.0195 41.293C46.0195 37.1467 42.6463 33.7734 38.5 33.7734C34.3537 33.7734 30.9805 37.1467 30.9805 41.293C30.9805 45.4392 34.3537 48.8125 38.5 48.8125C42.6463 48.8125 46.0195 45.4392 46.0195 41.293ZM38.5 45.8047C36.0122 45.8047 33.9883 43.7807 33.9883 41.293C33.9883 38.8052 36.0122 36.7812 38.5 36.7812C40.9878 36.7812 43.0117 38.8052 43.0117 41.293C43.0117 43.7807 40.9878 45.8047 38.5 45.8047Z" fill="black"/>
<path d="M70.9844 41.293C70.9844 37.1467 67.6111 33.7734 63.4648 33.7734C59.3186 33.7734 55.9453 37.1467 55.9453 41.293C55.9453 45.4392 59.3186 48.8125 63.4648 48.8125C67.6111 48.8125 70.9844 45.4392 70.9844 41.293ZM63.4648 45.8047C60.9771 45.8047 58.9531 43.7807 58.9531 41.293C58.9531 38.8052 60.9771 36.7812 63.4648 36.7812C65.9526 36.7812 67.9766 38.8052 67.9766 41.293C67.9766 43.7807 65.9526 45.8047 63.4648 45.8047Z" fill="black"/>
<path d="M24.8882 17.0622C24.7114 16.5178 24.2408 16.1209 23.6743 16.0385L17.1837 15.0952L14.2807 9.21407C14.0273 8.70079 13.5046 8.37579 12.9322 8.37579C12.3598 8.37579 11.837 8.70079 11.5836 9.21407L8.68048 15.0952L2.18993 16.0385C1.6234 16.1209 1.15283 16.5178 0.975972 17.0622C0.799113 17.6065 0.946646 18.2043 1.35646 18.6037L6.05256 23.1818L4.94388 29.6454C4.84703 30.2097 5.07893 30.7798 5.54213 31.1162C6.00519 31.4525 6.61908 31.4969 7.1259 31.2308L12.9317 28.1789C13.9912 28.7361 18.7364 31.2307 18.7364 31.2307C19.248 31.4997 19.8617 31.4495 20.3203 31.1164C20.7835 30.7799 21.0155 30.2097 20.9187 29.6454L19.8101 23.1819L24.5074 18.6039C24.9176 18.2044 25.0651 17.6066 24.8882 17.0622ZM17.1445 21.5798C16.79 21.9252 16.6282 22.423 16.7119 22.911L17.4391 27.1504C17.4391 27.1504 14.9933 25.8647 13.6322 25.1487C13.1939 24.9183 12.6703 24.918 12.2323 25.1484L8.42347 27.1506L9.15061 22.911C9.23437 22.4232 9.07255 21.9254 8.71823 21.5799L5.63778 18.5768L9.89549 17.9581C10.3853 17.8868 10.8087 17.5791 11.0276 17.1353L12.9322 13.2773L14.8366 17.1353C15.0557 17.5791 15.479 17.8868 15.9689 17.9581L20.226 18.5768L17.1445 21.5798Z" fill="black"/>
<path d="M76.0238 17.0622C75.847 16.5178 75.3762 16.1209 74.8099 16.0385L68.3193 15.0952L65.4163 9.21407C65.1629 8.70079 64.6402 8.37579 64.0678 8.37579C63.4954 8.37579 62.9726 8.70079 62.7192 9.21407L59.8162 15.0952L53.3257 16.0385C52.7591 16.1209 52.2886 16.5178 52.1117 17.0622C51.9349 17.6066 52.0824 18.2044 52.4924 18.6039L57.1897 23.1819L56.0811 29.6454C55.9843 30.2097 56.2163 30.7798 56.6794 31.1162C57.1427 31.4529 57.7566 31.4969 58.2633 31.2308L64.0679 28.1788L69.8736 31.2307C70.3863 31.5002 70.9999 31.449 71.4575 31.1164C71.9207 30.7799 72.1528 30.2097 72.0559 29.6454L70.9472 23.1818L75.6433 18.6037C76.0531 18.2043 76.2007 17.6065 76.0238 17.0622ZM68.2814 21.5799C67.9271 21.9254 67.7653 22.423 67.849 22.911L68.5762 27.1506L64.7675 25.1486C64.5484 25.0332 64.3081 24.9758 64.0676 24.9758C63.8273 24.9758 63.5868 25.0334 63.3677 25.1484L59.5607 27.1503L60.2877 22.911C60.3715 22.4232 60.2096 21.9252 59.8552 21.5798L56.774 18.5768L61.0311 17.9581C61.5209 17.8868 61.9443 17.5791 62.1634 17.1353L64.0678 13.2773L65.9723 17.1353C66.1914 17.5791 66.6146 17.8868 67.1045 17.9581L71.3622 18.5768L68.2814 21.5799Z" fill="black"/>
<path d="M53.4879 11.5771C53.311 11.0327 52.8403 10.636 52.274 10.5536L43.6885 9.30639L39.8485 1.52593C39.5953 1.01249 39.0725 0.6875 38.5 0.6875C37.9274 0.6875 37.4047 1.01249 37.1514 1.52578L33.3115 9.30639L24.7262 10.5537C24.1596 10.6361 23.6891 11.0329 23.5122 11.5773C23.3352 12.1217 23.4827 12.7193 23.8925 13.1189L30.1046 19.1753L28.6381 27.7264C28.5413 28.2906 28.7732 28.8608 29.2364 29.1972C29.6996 29.5335 30.3133 29.578 30.8201 29.3118L38.5 25.2746L46.18 29.3116C46.6875 29.5786 47.3016 29.5329 47.7637 29.197C48.2269 28.8606 48.4588 28.2905 48.362 27.7262L46.8955 19.1752L53.1076 13.1188C53.5174 12.7192 53.6649 12.1215 53.4879 11.5771ZM44.2297 17.5734C43.8754 17.9188 43.7136 18.4164 43.7973 18.9045L44.8824 25.2315L39.1996 22.2443C38.9805 22.1291 38.7402 22.0717 38.4998 22.0717C38.2595 22.0717 38.0192 22.1293 37.8001 22.2443L32.1173 25.2315L33.2023 18.9045C33.2861 18.4166 33.1243 17.9188 32.7699 17.5734L28.1736 13.0922L34.5261 12.1692C35.0159 12.0979 35.4394 11.7902 35.6583 11.3464L38.5 5.58963L41.3413 11.3466C41.5604 11.7904 41.9838 12.0981 42.4736 12.1694L48.8261 13.0923L44.2297 17.5734Z" fill="black"/>
<path d="M38.5 60.8438C39.3306 60.8438 40.0039 60.1704 40.0039 59.3398C40.0039 58.5093 39.3306 57.8359 38.5 57.8359C37.6694 57.8359 36.9961 58.5093 36.9961 59.3398C36.9961 60.1704 37.6694 60.8438 38.5 60.8438Z" fill="black"/>
</svg>
