<?xml version="1.0" encoding="utf-8"?>
<!-- Generator: Adobe Illustrator 25.2.1, SVG Export Plug-In . SVG Version: 6.00 Build 0)  -->
<svg version="1.1" id="Layer_1" xmlns="http://www.w3.org/2000/svg" xmlns:xlink="http://www.w3.org/1999/xlink" x="0px" y="0px"
	 viewBox="0 0 69 48" style="enable-background:new 0 0 69 48;" xml:space="preserve">
<style type="text/css">
	.st0{fill:#73AF43;}
	.st1{fill:#F9B346;}
	.st2{fill:#F4F4F4;}
	.st3{fill:#494F9E;}
	.st4{fill:#ECECEF;}
	.st5{fill:#EDEDEF;}
	.st6{fill:#E1E2EA;}
	.st7{fill:#42489B;}
</style>
<g>
	<path class="st0" d="M0,43.59c0-3.86,0-7.72,0-11.58c22.77,0,45.55,0,68.32,0c0.22,0,0.45,0.01,0.67,0.02c0,3.45,0.01,6.91,0,10.36
		c0,0.89-0.16,1.75-0.55,2.55c-1.09,2.2-2.88,3.06-5.15,3.06c-17.54-0.01-35.07,0-52.61,0c-1.73,0-3.46,0.01-5.19,0
		c-1.86-0.01-3.6-0.49-4.73-2.11C0.32,45.25,0,44.28,0,43.59z"/>
	<path class="st1" d="M0,15.99c0-3.86,0-7.72,0-11.58c0-0.54,0.09-1.03,0.28-1.43C1.37,0.71,3.38,0,5.71,0
		c17.69,0.01,35.38,0,53.07,0c1.59,0,3.19-0.02,4.78,0c3.26,0.05,5.43,2.37,5.44,5.82c0.01,3.38,0,6.76-0.01,10.15
		c-0.25,0.01-0.49,0.01-0.74,0.01C45.5,16,22.75,16,0,15.99z"/>
	<path class="st2" d="M0,15.99c22.71,0,45.41,0,68.12,0c0.25,0,0.49-0.01,0.74-0.01c0.05,0.05,0.1,0.11,0.14,0.16
		c0,5.24,0,10.49,0,15.73c-0.05,0.05-0.09,0.11-0.14,0.16c-0.22-0.01-0.45-0.02-0.67-0.02c-22.73,0-45.46,0-68.19,0
		C0,26.67,0,21.33,0,15.99z M40.8,23.97c-0.03-3.74-2.91-6.77-6.39-6.74c-3.52,0.03-6.37,3.09-6.34,6.8
		c0.03,3.74,2.91,6.77,6.39,6.74C37.98,30.74,40.83,27.68,40.8,23.97z"/>
	<path class="st3" d="M40.8,23.98c0.03,3.49-2.82,6.36-6.34,6.39c-3.49,0.03-6.36-2.82-6.39-6.34c-0.03-3.49,2.82-6.36,6.34-6.39
		C37.89,17.61,40.77,20.46,40.8,23.98z M33.41,22.56c-0.16-0.91-0.49-1.6-0.74-2.31c-0.38-1.1-0.46-1.1-1.38-0.38
		c-0.35,0.27-0.4,0.44-0.03,0.75C31.96,21.21,32.62,21.84,33.41,22.56z M35.44,22.33c0.04,0.04,0.07,0.09,0.11,0.13
		c0.55-0.5,1.11-1,1.66-1.5c0.89-0.8,0.86-0.86-0.21-1.46c-0.4-0.23-0.52-0.11-0.64,0.26C36.07,20.62,35.75,21.47,35.44,22.33z
		 M35.94,22.91c0.15,0.01,0.22,0.04,0.28,0.02c0.65-0.22,1.31-0.44,1.96-0.68c1.09-0.39,1.1-0.46,0.38-1.38
		c-0.27-0.35-0.44-0.4-0.75-0.03C37.23,21.53,36.6,22.19,35.94,22.91z M35.9,25.06c0.67,0.73,1.29,1.37,1.86,2.06
		c0.33,0.4,0.52,0.42,0.84-0.02c0.67-0.91,0.68-0.97-0.34-1.31C37.51,25.53,36.8,25.16,35.9,25.06z M35.43,25.66
		c0.33,0.9,0.66,1.78,0.97,2.68c0.11,0.31,0.23,0.4,0.51,0.21c0.17-0.11,0.34-0.21,0.51-0.31c0.48-0.29,0.62-0.55,0.07-0.96
		c-0.53-0.4-0.99-0.9-1.5-1.34C35.84,25.81,35.73,25.57,35.43,25.66z M32.71,22.97c0.04-0.05,0.08-0.11,0.11-0.16
		c-0.65-0.72-1.31-1.44-1.96-2.16c-0.14-0.15-0.24-0.15-0.38,0.01c-0.26,0.3-0.48,0.64-0.66,1c-0.1,0.19-0.04,0.27,0.15,0.34
		C30.89,22.31,31.8,22.64,32.71,22.97z M32.82,25.21c-0.03-0.06-0.06-0.12-0.09-0.17c-0.68,0.24-1.36,0.48-2.05,0.73
		c-1.1,0.39-1.12,0.46-0.37,1.37c0.04,0.05,0.09,0.1,0.13,0.16c0.14,0.2,0.28,0.26,0.47,0.04C31.53,26.61,32.18,25.91,32.82,25.21z
		 M33.44,25.62c-0.18,0.04-0.24,0.04-0.27,0.06c-0.5,0.44-1,0.89-1.49,1.34c-0.91,0.82-0.89,0.92,0.22,1.49
		c0.06,0.03,0.12,0.06,0.18,0.09c0.18,0.11,0.28,0.06,0.35-0.13C32.74,27.55,33.07,26.64,33.44,25.62z M36.31,23.54
		c0.01,0.05,0.02,0.1,0.03,0.15c0.79,0.05,1.57,0.1,2.36,0.14c0.98,0.06,1.04-0.02,0.8-0.98c-0.03-0.13-0.08-0.26-0.12-0.38
		c-0.06-0.2-0.18-0.29-0.39-0.19C38.09,22.7,37.2,23.12,36.31,23.54z M36.33,24.31c-0.01,0.05-0.02,0.1-0.03,0.15
		c0.69,0.33,1.38,0.65,2.07,0.98c0.98,0.46,1.11,0.38,1.18-0.74c0.01-0.09,0.01-0.18,0.02-0.27c0.02-0.21-0.08-0.29-0.27-0.28
		C38.31,24.2,37.32,24.26,36.33,24.31z M34.73,22.01c0.06,0.03,0.12,0.05,0.18,0.08c0.35-0.73,0.69-1.47,1.04-2.2
		c0.35-0.76,0.32-0.82-0.49-0.97c-0.13-0.02-0.27-0.01-0.4-0.04c-0.39-0.08-0.51,0.08-0.48,0.46
		C34.65,20.23,34.68,21.12,34.73,22.01z M32.43,23.7c-0.62-0.6-1.39-0.86-2.12-1.22c-0.75-0.36-0.81-0.32-0.96,0.49
		c-0.02,0.13-0.01,0.27-0.04,0.4c-0.08,0.39,0.07,0.51,0.46,0.48C30.65,23.79,31.54,23.75,32.43,23.7z M33.93,22.02
		c0.07-0.02,0.13-0.04,0.2-0.06c0.05-0.95,0.1-1.89,0.15-2.84c0.01-0.15-0.04-0.26-0.22-0.26c-0.47,0.01-1.01-0.02-1.33,0.33
		c-0.23,0.25,0.19,0.58,0.27,0.89c0.04,0.13,0.11,0.24,0.17,0.36C33.43,20.97,33.68,21.49,33.93,22.02z M30.89,24.27
		c0-0.02,0-0.03,0-0.05c-0.18-0.01-0.36-0.03-0.53-0.04c-1.15-0.08-1.3,0.13-0.89,1.25c0.02,0.04,0.03,0.09,0.04,0.13
		c0.07,0.23,0.21,0.25,0.41,0.15c0.75-0.36,1.5-0.7,2.24-1.06c0.11-0.05,0.28-0.1,0.22-0.28c-0.06-0.17-0.23-0.1-0.35-0.1
		C31.65,24.26,31.27,24.27,30.89,24.27z M34.22,27.61c-0.02,0-0.04,0-0.05,0c0-0.4,0.01-0.8,0-1.21c0-0.12,0.06-0.29-0.11-0.35
		c-0.17-0.06-0.22,0.11-0.27,0.23c-0.36,0.75-0.71,1.49-1.05,2.24c-0.04,0.09-0.14,0.22-0.02,0.3c0.43,0.27,0.93,0.38,1.41,0.28
		c0.33-0.07,0.13-0.45,0.14-0.69C34.28,28.15,34.23,27.88,34.22,27.61z M34.94,25.98c-0.07,0.02-0.14,0.05-0.21,0.07
		c-0.05,0.75-0.09,1.5-0.14,2.25c-0.05,0.9,0.02,0.97,0.91,0.77c0.17-0.04,0.34-0.1,0.51-0.16c0.13-0.05,0.24-0.13,0.16-0.3
		C35.77,27.74,35.35,26.86,34.94,25.98z M34.4,23.04c-0.54,0.01-0.95,0.45-0.93,1c0.02,0.52,0.43,0.91,0.95,0.91
		c0.55,0,0.97-0.42,0.96-0.97C35.38,23.44,34.95,23.03,34.4,23.04z"/>
	<path class="st4" d="M33.41,22.56c-0.8-0.73-1.45-1.36-2.15-1.95c-0.37-0.31-0.31-0.48,0.03-0.75c0.92-0.72,1-0.71,1.38,0.38
		C32.92,20.97,33.26,21.65,33.41,22.56z"/>
	<path class="st4" d="M35.44,22.33c0.31-0.85,0.63-1.71,0.92-2.57c0.13-0.37,0.24-0.49,0.64-0.26c1.08,0.6,1.1,0.66,0.21,1.46
		c-0.55,0.5-1.11,1-1.66,1.5C35.51,22.41,35.47,22.37,35.44,22.33z"/>
	<path class="st4" d="M35.94,22.91c0.66-0.72,1.29-1.38,1.88-2.07c0.31-0.37,0.48-0.31,0.75,0.03c0.72,0.92,0.71,1-0.38,1.38
		c-0.65,0.23-1.3,0.46-1.96,0.68C36.16,22.94,36.09,22.92,35.94,22.91z"/>
	<path class="st4" d="M35.9,25.06c0.89,0.1,1.6,0.48,2.35,0.73c1.03,0.34,1.01,0.4,0.34,1.31c-0.32,0.43-0.51,0.41-0.84,0.02
		C37.19,26.43,36.57,25.79,35.9,25.06z"/>
	<path class="st4" d="M35.43,25.66c0.3-0.09,0.41,0.15,0.57,0.28c0.5,0.44,0.96,0.94,1.5,1.34c0.55,0.41,0.41,0.67-0.07,0.96
		c-0.17,0.1-0.35,0.2-0.51,0.31c-0.28,0.19-0.41,0.1-0.51-0.21C36.09,27.44,35.75,26.56,35.43,25.66z"/>
	<path class="st4" d="M32.71,22.97c-0.91-0.33-1.82-0.66-2.74-0.98c-0.19-0.07-0.25-0.15-0.15-0.34c0.18-0.36,0.4-0.69,0.66-1
		c0.13-0.15,0.24-0.16,0.38-0.01c0.65,0.72,1.31,1.44,1.96,2.16C32.79,22.86,32.75,22.92,32.71,22.97z"/>
	<path class="st4" d="M32.82,25.21c-0.64,0.71-1.28,1.41-1.92,2.12c-0.19,0.22-0.33,0.16-0.47-0.04c-0.04-0.05-0.08-0.1-0.13-0.16
		c-0.74-0.92-0.72-0.98,0.37-1.37c0.68-0.24,1.36-0.48,2.05-0.73C32.76,25.09,32.79,25.15,32.82,25.21z"/>
	<path class="st4" d="M33.44,25.62c-0.36,1.02-0.7,1.93-1.02,2.85c-0.07,0.2-0.17,0.24-0.35,0.13c-0.06-0.03-0.12-0.06-0.18-0.09
		c-1.11-0.57-1.13-0.67-0.22-1.49c0.5-0.45,0.99-0.89,1.49-1.34C33.2,25.66,33.25,25.66,33.44,25.62z"/>
	<path class="st5" d="M36.31,23.54c0.89-0.42,1.78-0.84,2.67-1.26c0.22-0.1,0.33-0.02,0.39,0.19c0.04,0.13,0.08,0.25,0.12,0.38
		c0.24,0.96,0.18,1.04-0.8,0.98c-0.79-0.05-1.57-0.09-2.36-0.14C36.33,23.64,36.32,23.59,36.31,23.54z"/>
	<path class="st5" d="M36.33,24.31c0.99-0.05,1.98-0.11,2.96-0.16c0.19-0.01,0.29,0.07,0.27,0.28c-0.01,0.09-0.01,0.18-0.02,0.27
		c-0.07,1.12-0.2,1.21-1.18,0.74c-0.69-0.32-1.38-0.65-2.07-0.98C36.31,24.41,36.32,24.36,36.33,24.31z"/>
	<path class="st5" d="M34.73,22.01c-0.05-0.89-0.08-1.78-0.15-2.67c-0.03-0.39,0.09-0.54,0.48-0.46c0.13,0.03,0.27,0.01,0.4,0.04
		c0.81,0.15,0.84,0.21,0.49,0.97c-0.35,0.74-0.69,1.47-1.04,2.2C34.85,22.06,34.79,22.04,34.73,22.01z"/>
	<path class="st5" d="M32.43,23.7c-0.89,0.05-1.78,0.08-2.66,0.15c-0.39,0.03-0.54-0.09-0.46-0.48c0.03-0.13,0.01-0.27,0.04-0.4
		c0.15-0.81,0.22-0.85,0.96-0.49C31.03,22.84,31.81,23.11,32.43,23.7z"/>
	<path class="st5" d="M33.93,22.02c-0.25-0.53-0.5-1.05-0.75-1.58c-0.06-0.12-0.14-0.24-0.17-0.36c-0.09-0.31-0.5-0.64-0.27-0.89
		c0.32-0.34,0.86-0.32,1.33-0.33c0.18,0,0.23,0.11,0.22,0.26c-0.05,0.95-0.1,1.89-0.15,2.84C34.06,21.98,34,22,33.93,22.02z"/>
	<path class="st5" d="M30.89,24.27c0.38,0,0.76-0.01,1.14,0c0.12,0,0.29-0.06,0.35,0.1c0.06,0.17-0.11,0.22-0.22,0.28
		c-0.75,0.36-1.5,0.7-2.24,1.06c-0.2,0.1-0.34,0.08-0.41-0.15c-0.01-0.04-0.02-0.09-0.04-0.13c-0.41-1.12-0.26-1.33,0.89-1.25
		c0.18,0.01,0.36,0.03,0.53,0.04C30.89,24.24,30.89,24.26,30.89,24.27z"/>
	<path class="st5" d="M34.22,27.61c0.02,0.27,0.06,0.54,0.05,0.8c-0.01,0.24,0.19,0.63-0.14,0.69c-0.48,0.1-0.98-0.01-1.41-0.28
		c-0.12-0.08-0.03-0.21,0.02-0.3c0.35-0.75,0.7-1.5,1.05-2.24c0.05-0.11,0.1-0.28,0.27-0.23c0.17,0.05,0.1,0.23,0.11,0.35
		c0.01,0.4,0,0.8,0,1.21C34.18,27.61,34.2,27.61,34.22,27.61z"/>
	<path class="st5" d="M34.94,25.98c0.41,0.88,0.82,1.76,1.24,2.64c0.08,0.17-0.03,0.25-0.16,0.3c-0.17,0.06-0.34,0.12-0.51,0.16
		c-0.88,0.2-0.96,0.13-0.91-0.77c0.04-0.75,0.09-1.5,0.14-2.25C34.81,26.03,34.87,26.01,34.94,25.98z"/>
	<path class="st6" d="M34.4,23.04c0.55-0.01,0.98,0.4,0.99,0.95c0.01,0.55-0.42,0.97-0.96,0.97c-0.52,0-0.93-0.4-0.95-0.91
		C33.45,23.5,33.86,23.06,34.4,23.04z M33.88,23.99c0.02,0.34,0.19,0.55,0.54,0.56c0.35,0.01,0.55-0.18,0.55-0.53
		c0.01-0.34-0.18-0.55-0.53-0.55C34.1,23.45,33.92,23.65,33.88,23.99z"/>
	<path class="st7" d="M33.88,23.99c0.04-0.34,0.22-0.54,0.56-0.53c0.35,0.01,0.54,0.21,0.53,0.55c-0.01,0.35-0.21,0.53-0.55,0.53
		C34.07,24.54,33.9,24.33,33.88,23.99z"/>
</g>
</svg>
