<svg width="69" height="48" viewBox="0 0 69 48" fill="none" xmlns="http://www.w3.org/2000/svg">
<path d="M67.4242 23.998V44.5683C67.42 45.829 66.3989 46.8501 65.1382 46.8538H3.42862C2.1679 46.8501 1.14676 45.829 1.14258 44.5683V23.998H67.4242Z" fill="#CFD8DC"/>
<path d="M63.9963 23.998L63.9957 44.5683C64.024 45.7976 63.0536 46.8187 61.8243 46.8538H3.31409C2.08476 46.8187 1.11489 45.7976 1.14314 44.5683L1.14209 23.998H63.9963Z" fill="#F5F5F5"/>
<path d="M67.4242 3.42813V23.9978H1.14258V3.42813C1.14676 2.16741 2.1679 1.14627 3.42862 1.14209H65.1382C66.3989 1.14627 67.42 2.16741 67.4242 3.42813Z" fill="#C52828"/>
<path d="M63.9958 3.42813L63.9963 23.9978H1.14215L1.14267 3.42813C1.11494 2.1988 2.08481 1.17714 3.31415 1.14209H61.8243C63.0536 1.17714 64.024 2.1988 63.9958 3.42813Z" fill="#F44335"/>
<path d="M65.1381 0H3.42854C1.53484 0 0 1.53484 0 3.42854V44.5684C0 46.4616 1.53484 47.9964 3.42854 47.9964H65.1381C67.0318 47.9964 68.5667 46.4616 68.5667 44.5684V3.42854C68.5667 1.53484 67.0318 0 65.1381 0ZM3.42854 2.28552H65.1381C65.7695 2.28552 66.2811 2.79713 66.2811 3.42854V22.8557H2.28552V3.42854C2.28552 2.79713 2.79713 2.28552 3.42854 2.28552ZM65.1381 45.7109H3.42854C2.79713 45.7109 2.28552 45.1993 2.28552 44.5684V25.1412H66.2811V44.5684C66.2811 45.1993 65.7695 45.7109 65.1381 45.7109Z" fill="black"/>
</svg>
