<svg id="Layer_1" data-name="Layer 1" xmlns="http://www.w3.org/2000/svg" viewBox="0 0 780.01 125.69"><defs><style>.cls-1{fill:red;stroke:#111;stroke-miterlimit:10;}</style></defs><path class="cls-1" d="M67.15,108.84C60.57,115.43,53.94,120.32,46,122.9c-15.33,5-30,3.4-43.6-5.53-3.24-2.12-3.15-3.31.12-5.37C37.18,90.18,37.78,36.92,3.61,14.33c-4.75-3.14-4.72-3.85.32-6.92C22.86-4.15,46.1-2,62.85,12.86c3.63,3.22,4,3.23,7.74-.08C80.51,3.88,92-.78,105.44.11a45.41,45.41,0,0,1,25.31,10c2.52,2,1.54,3.41-.59,4.93-17.15,12.27-24.74,29.46-24.1,50,.58,18.7,8.35,34.2,23.84,45.35,3.24,2.33,3.24,3.32,0,5.8C112,130,87.33,128.61,70.62,113A44.12,44.12,0,0,1,67.15,108.84ZM41,62.28c.37,4.22.5,8.47,1.16,12.65,1.55,9.72,4.63,18.86,11.24,26.44,8.09,9.28,18.86,9.66,27.29.79a36.15,36.15,0,0,0,6-8.47c7.2-14.2,8.46-29.3,5.91-44.8-1.67-10.13-5.1-19.56-12.54-27s-17.41-7.71-24.94-.25a40.24,40.24,0,0,0-6.86,9.26C43,40.63,41.09,51.24,41,62.28Z"/><path d="M88.26,72.67H46.16l21-31.81Z"/><path d="M72.53,103.08H62.45V74.65H72.53Z"/><path d="M75.74,30.83a8.72,8.72,0,0,1-8.53,8.25c-4.49,0-8.71-4.38-8.46-8.73a8.51,8.51,0,0,1,17,.48Z"/><path d="M427.2,87.17c5.5-.1,4.31,1,4.43-4.87a1.79,1.79,0,0,0,0-.23.75.75,0,0,0-.75-.71c-.68,0-1.37,0-2.06,0l-4.8,0a.8.8,0,0,1-.88-.84c0-1,0-2,0-3s.23-1.13,1.3-1.15c1.83,0,3.66,0,5.49,0,.89,0,1.11-.23,1.13-1.07,0-1.14,0-2.29,0-3.43,0-.9-.21-1.11-1.06-1.13-1.76,0-3.51,0-5.27,0-1.46,0-1.57-.14-1.61-1.54,0-.61,0-1.22.05-1.83a.71.71,0,0,1,.72-.73c.69,0,1.38,0,2.06,0,1.61,0,3.21,0,4.81,0a.79.79,0,0,0,.88-.83c0-1.38,0-2.75,0-4.12a.72.72,0,0,0-.72-.74c-.38,0-.76,0-1.14,0H417.84a10.88,10.88,0,0,0-1.14.06.63.63,0,0,0-.62.56c-.05.53-.08,1.07-.08,1.6V84.71c0,.61,0,1.22.08,1.83a.61.61,0,0,0,.59.58c.46,0,.92.06,1.37.06C421.1,87.18,424.15,87.23,427.2,87.17Z"/><path d="M418.39,43.64c.51,1.84,1,3.7,1.47,5.54.4,1.43.41,1.46,1.84,1.47,3.29,0,6.57,0,9.85,0a1.34,1.34,0,0,0,1.11-.31,5.81,5.81,0,0,0-.53-2.16q-3.45-10.55-6.93-21.09-3-9-5.94-18c-.5-1.52-.52-1.53-2.06-1.54-4.05,0-8.1,0-12.14,0-1.7,0-1.71-.23-2.36,1.76-1.39,4.36-2.81,8.72-4.23,13.07Q394.29,35.18,390.12,48a4.91,4.91,0,0,0-.54,2.4c.1,0,.17.11.24.11,3.81.27,7.62.08,11.44.1.65,0,.89-.45,1-1,.52-2,1.08-4,1.61-6a1.17,1.17,0,0,1,1.3-1c4,0,7.94,0,11.91,0C418,42.67,418.16,42.79,418.39,43.64ZM415.47,33H407a2.49,2.49,0,0,1-.17-.51,1.19,1.19,0,0,1,0-.46q2-7.87,3.91-15.74c0-.13.17-.24.37-.48a26.66,26.66,0,0,1,1.17,4.27c.4,1.39.7,2.8,1.07,4.21s.84,2.93,1.18,4.41A16.18,16.18,0,0,1,415.47,33Z"/><path d="M410.6,102.19c0-.56-.36-.79-.89-.8-2.19-.06-2.26,0-2.25,2,0,3.28,0,6.55,0,10-.7-.28-.81-.76-1-1.14-1.79-3.11-3.61-6.2-5.32-9.36a2.39,2.39,0,0,0-2.68-1.56c-.53.08-1.07,0-1.6.07a.61.61,0,0,0-.61.56,5.5,5.5,0,0,0-.08.91v14a3.07,3.07,0,0,0,.11.91c.06.19.24.46.4.49a3.11,3.11,0,0,0,2.23-.11c.59-.38.33-1.11.38-1.7,0-.38,0-.77,0-1.15q0-4.12,0-8.25c0-.2-.08-.53.26-.51a.88.88,0,0,1,.51.36,6.66,6.66,0,0,1,.46.78c1.62,2.86,3.22,5.73,4.86,8.57,1.41,2.46.81,2.07,3.71,2.11a9.08,9.08,0,0,0,.91-.05.61.61,0,0,0,.62-.56,12.44,12.44,0,0,0,.08-1.37V103.33Q410.63,102.76,410.6,102.19Z"/><path d="M398.86,85c0-1.3,0-2.6,0-3.89,0-.63-.33-.85-.88-.68s-1.3.45-2,.64a11.69,11.69,0,0,1-4.27.63,5.06,5.06,0,0,1-4.85-3.85,13.22,13.22,0,0,1-.43-2.24,12.48,12.48,0,0,1,.49-5.43,5.11,5.11,0,0,1,6.14-3.84,22,22,0,0,1,2.65.69c.52.15,1,.36,1.51.53a.64.64,0,0,0,.79-.3,35.65,35.65,0,0,0,1.87-5,17.44,17.44,0,0,0-10.28-1.68,11.23,11.23,0,0,0-9.77,8.16A18,18,0,0,0,380,80.2,10,10,0,0,0,387.38,87a15.25,15.25,0,0,0,2.93.44,19.6,19.6,0,0,0,7.44-1A1.4,1.4,0,0,0,398.86,85Z"/><path d="M375.68,115.64c-.05-.71-.24-.9-1-.93s-1.21,0-1.81,0a.62.62,0,0,0-.63.54c-.07,1-.44,2.07.25,2.82s1.57.22,2.39.24a.69.69,0,0,0,.75-.67,4.64,4.64,0,0,0,0-.63C375.68,116.24,375.7,115.94,375.68,115.64Z"/><path d="M462.12,72.86c-.92-.54-1.86-1-2.81-1.53s-2.21-1-3.29-1.61a4.74,4.74,0,0,1-1.27-1,1.43,1.43,0,0,1,.46-2.3,3.72,3.72,0,0,1,1.31-.33,7.93,7.93,0,0,1,3,.27c1,.32,2,.66,3,1,.52.18.91.08,1.12-.43.52-1.28,1-2.55,1.51-3.84.27-.7.16-.95-.53-1.24a18.9,18.9,0,0,0-7.81-1.53,13.41,13.41,0,0,0-4.93.9,6.9,6.9,0,0,0-4.53,5.35c-.51,3.17.29,6.11,3.43,8.11A24.78,24.78,0,0,0,453,76c1.09.54,2.21,1,3.3,1.59a6.6,6.6,0,0,1,1.51,1,1.67,1.67,0,0,1-.39,2.71,4,4,0,0,1-2,.44,19,19,0,0,1-5.39-.94c-.91-.24-1.69-1.08-2.76-.69a9.37,9.37,0,0,0-.19,2.94c0,.46,0,.92,0,1.38,0,1.52.07,1.54,1.55,2.12a20.45,20.45,0,0,0,6.44,1c.93-.1,2.23-.18,3.5-.43a9.4,9.4,0,0,0,3.93-1.77C466.45,82.41,466.72,75.59,462.12,72.86Z"/><path d="M478.43,103.28a4,4,0,0,0-1.64-1.55,5.59,5.59,0,0,0-8,3.09,17.12,17.12,0,0,0-.64,5.1c0,.65.09,1.64.17,2.63a8.65,8.65,0,0,0,.75,2.86,5.43,5.43,0,0,0,9.8.09,7.31,7.31,0,0,0,.48-1.28,18.17,18.17,0,0,0-.05-9.06A8.32,8.32,0,0,0,478.43,103.28Zm-2.3,10.44a4.57,4.57,0,0,1-.26.87,2,2,0,0,1-1.95,1.31,1.88,1.88,0,0,1-1.88-1.39,18.39,18.39,0,0,1-.47-2.23,3.82,3.82,0,0,1,0-.68c0-.61,0-1.21,0-1.82h.06c0-.91-.06-1.83,0-2.74a7.28,7.28,0,0,1,.46-2,1.91,1.91,0,0,1,1.95-1.29,2,2,0,0,1,1.91,1.37,5.17,5.17,0,0,1,.23.88A20.82,20.82,0,0,1,476.13,113.72Z"/><path d="M430.55,101.65a10.48,10.48,0,0,0-7,0,7.09,7.09,0,0,0-4.69,4.93,10.89,10.89,0,0,0,.05,6.54,7.32,7.32,0,0,0,6.24,5.33c.6.09,1.21.1,1.83.15s1.21-.06,1.81-.16a7.42,7.42,0,0,0,6.14-4.85,10.51,10.51,0,0,0,.1-7.39A7,7,0,0,0,430.55,101.65Zm.95,11.15a4.29,4.29,0,0,1-4,2.93,4.41,4.41,0,0,1-4.61-2.27,7.6,7.6,0,0,1-.07-7.23,4.87,4.87,0,0,1,8.52.35A7.53,7.53,0,0,1,432,110,7.18,7.18,0,0,1,431.5,112.8Z"/><path d="M374,20.66a6.35,6.35,0,0,1,.28,2.45c-.18,3.35-.35,6.71-.33,10.07,0,4.89,0,9.78,0,14.66,0,.61,0,1.23,0,1.84s.28.94,1,1q4.35,0,8.7,0c.69,0,.89-.27.94-1q0-.57,0-1.14V10c0-.46,0-.92,0-1.38a.84.84,0,0,0-.84-.89c-.61,0-1.22,0-1.83,0H371.84c-3.18,0-2.62-.19-3.4,2.5-2.49,8.5-4.91,17-7.36,25.52-.21.7-.45,1.38-.7,2.16a2.25,2.25,0,0,1-.8-1.5L351.89,10.2c-.17-.58-.35-1.17-.53-1.75a1,1,0,0,0-1-.76c-.54,0-1.07,0-1.61,0H338.43c-3,0-2.7-.17-2.71,2.74V48c0,.53,0,1.07,0,1.6.05.88.19,1.05,1.12,1.06,2.67,0,5.35,0,8,0a3.44,3.44,0,0,0,.45,0,.62.62,0,0,0,.57-.61c0-.6.06-1.22.06-1.83,0-5.19,0-10.38,0-15.58,0-3.13,0-6.26-.36-9.38a27.15,27.15,0,0,1,0-2.74,6.77,6.77,0,0,1,.82,2q1.58,5.61,3.19,11.23,2.25,7.92,4.52,15.85c.29,1,.4,1.1,1.42,1.11q3.78,0,7.56,0c2.74,0,2.3.25,3-2.32,2.43-8.59,4.83-17.18,7.26-25.78C373.56,21.92,373.77,21.29,374,20.66Z"/><path d="M445.66,105.91a3.36,3.36,0,0,0-.9.08c-.2.05-.47.21-.51.38a4.73,4.73,0,0,0,0,2.45c0,.16.32.32.51.37a3.06,3.06,0,0,0,.68.07h.9c1.17,0,1.27-.15,1.3-1.34C447.69,106,447.59,105.86,445.66,105.91Z"/><path d="M446,115c-.3,0-.61,0-.91,0-.7.06-.91.28-.95,1-.16,2.29,0,2.49,2.34,2.38l.45,0a.72.72,0,0,0,.69-.76c0-.3,0-.61,0-.91C447.64,115.05,447.57,115,446,115Z"/><path d="M496.63,110.17c-.34-.16-.72-.27-.92-.7a11.19,11.19,0,0,0,1.12-.72,4.13,4.13,0,0,0,.12-6.39c-2.14-1.8-6.49-1.71-8.52.21a5.76,5.76,0,0,0-1.08,1.46c-.69,1.31-.42,1.75,1.09,1.88.92.08,1.88.24,2.18-1a1.24,1.24,0,0,1,.43-.52,2.59,2.59,0,0,1,2.8-.28,2.15,2.15,0,0,1,1,2.35,2,2,0,0,1-1.59,1.73,8.43,8.43,0,0,1-1.59.19.82.82,0,0,0-.8.91c0,.31,0,.61,0,.92a.79.79,0,0,0,.82.88,5.3,5.3,0,0,1,2.45.46,2.15,2.15,0,0,1,1.14,2.3,2.06,2.06,0,0,1-1.68,1.91,2.78,2.78,0,0,1-3.41-1.52,1.17,1.17,0,0,0-1.27-.72c-.52.08-1.06.13-1.58.22s-.79.41-.64,1a4.66,4.66,0,0,0,2.65,3.26,8.71,8.71,0,0,0,6.9,0,4.26,4.26,0,0,0,1-.62C499.23,115.75,499.67,111.52,496.63,110.17Z"/><path d="M255.4,67.41a.81.81,0,0,1,.84-.87c1.15,0,2.29,0,3.43,0,5.13-.1,4.11.83,4.22-4.4a3.07,3.07,0,0,0-.05-.68.67.67,0,0,0-.58-.61,12.44,12.44,0,0,0-1.37-.07H250.22c-.31,0-.61,0-.92,0-.75.05-1,.24-1,.93,0,.53,0,1.07,0,1.6V74.05c0,3.51,0,7,0,10.53,0,.61,0,1.22,0,1.83a.73.73,0,0,0,.72.73c.54,0,1.07,0,1.6,0h11c.38,0,.76,0,1.14,0,.93,0,1.11-.19,1.13-1.06q0-1.83,0-3.66c0-.93-.18-1.09-1.07-1.11-1.52,0-3.05,0-4.57,0-3.1,0-2.84.36-2.87-2.79,0-2.41.13-2.2,2.32-2.21,1.53,0,3.05,0,4.58,0,.75,0,1-.26,1-.93,0-1.22,0-2.44,0-3.66,0-.81-.25-1-1.16-1-1.37,0-2.75,0-4.12,0-2.78,0-2.66.37-2.64-2.79C255.38,67.71,255.39,67.56,255.4,67.41Z"/><path d="M249.58,48.56q-4.65-14.13-9.31-28.27C239,16.53,237.8,12.76,236.54,9c-.49-1.46-.51-1.47-2.1-1.48-2,0-4,0-6,0h-5.73c-2.54,0-2.13-.11-2.83,2.06q-6.33,19.36-12.58,38.76c-.17.51-.33,1-.47,1.53s0,.76.53.76c3.74,0,7.48,0,11.22,0,.56,0,.78-.37.91-.85.53-1.91,1.05-3.83,1.59-5.74.39-1.33.4-1.37,1.68-1.38q5.61,0,11.22,0c1.4,0,1.45.07,1.84,1.5.46,1.7,1,3.38,1.33,5.1.29,1.38.72,1.41,1.9,1.41H248C250.24,50.64,250.26,50.63,249.58,48.56ZM232.64,32.91a3,3,0,0,1-1.56.2c-2.13,0-4.25,0-6.38,0a.54.54,0,0,1-.57-.75c.28-1.18.59-2.36.88-3.54q1.4-5.64,2.78-11.28c.14-.58.31-1.15.49-1.82.68,1.4,3.28,10.92,4.36,15.88A1.82,1.82,0,0,1,232.64,32.91Z"/><path d="M301.63,84.9c-1.69-2.54-3.4-5.07-5.07-7.61-.33-.5-.82-.93-.8-1.67.65-.56,1.36-1.14,2-1.75,3.22-3,3.32-10.53-3-12.35a19.73,19.73,0,0,0-5.18-.77q-3.54,0-7.09,0c-2,0-2,0-2,2.07q0,11.2,0,22.42a10.86,10.86,0,0,0,0,1.14c0,.41.26.75.69.76,1.91,0,3.81,0,5.72,0a.69.69,0,0,0,.69-.75c0-.61,0-1.22,0-1.83,0-2,0-4,0-5.94,0-.36-.05-.81.44-.93a1.33,1.33,0,0,1,1.48.29,9.68,9.68,0,0,1,.74,1.14c1.2,2,2.38,4.08,3.57,6.12.27.46.53.93.82,1.38a1.12,1.12,0,0,0,.94.56l6.63,0a.45.45,0,0,0,.3-.68C302.3,85.92,302,85.4,301.63,84.9Zm-10.3-13.28a4.59,4.59,0,0,1-2.62.54c-.74,0-1-.22-1-.89s0-1.36,0-2h0c0-.76,0-1.52,0-2.27a.69.69,0,0,1,.66-.76,5.91,5.91,0,0,1,2.47.2,2.45,2.45,0,0,1,1.87,2.3A3,3,0,0,1,291.33,71.62Z"/><path d="M266.59,10.18c0-.53,0-1.06,0-1.6a.8.8,0,0,0-.84-.87c-3.27,0-6.55,0-9.83,0l-.23,0a.79.79,0,0,0-.72.75c0,.69,0,1.37,0,2.06V47.58c0,.61,0,1.22,0,1.83.05,1,.2,1.22,1.21,1.23,2.67,0,5.34,0,8,0s2.46.11,2.46-2.49Q266.61,29.17,266.59,10.18Z"/><path d="M228.87,72.91c-.85-.51-1.73-1-2.61-1.43-1.09-.56-2.2-1.06-3.29-1.61a7,7,0,0,1-1.34-.87,1.51,1.51,0,0,1,.59-2.68,5.43,5.43,0,0,1,1.35-.2,12.42,12.42,0,0,1,4,.68c.79.21,1.56,1,2.34.57s.76-1.45,1.08-2.21.56-1.42.83-2.13a.74.74,0,0,0-.5-1.08c-1.16-.39-2.31-.83-3.49-1.11a15.72,15.72,0,0,0-8.81.29c-4.47,1.51-5.76,5.14-4.95,9.06a7,7,0,0,0,3.26,4.52,44,44,0,0,0,4.68,2.41,12.65,12.65,0,0,1,2.18,1.24,1.69,1.69,0,0,1-.51,3.06,6.52,6.52,0,0,1-3.39.19,22.4,22.4,0,0,1-5.07-1.38c-1.38-.54-1.49-.44-1.54,1.11,0,.46,0,.92,0,1.38,0,.61,0,1.22,0,1.83A1.66,1.66,0,0,0,215,86.42a18.55,18.55,0,0,0,10.81.58,9.3,9.3,0,0,0,3.46-1.72C233.13,82.3,233.34,75.6,228.87,72.91Z"/><path d="M200.69,7.68c-.46,0-.92,0-1.38,0-3.43,0-6.87,0-10.31,0-2.7,0-2.45-.33-3.24,2.4q-3.78,13.21-7.6,26.4c-.14.48-.13,1.05-.79,1.29a8.41,8.41,0,0,1-.32-.87q-1.53-5.16-3-10.32-2.55-8.67-5.09-17.36c-.45-1.51-.48-1.53-2.07-1.54-3.74,0-7.48,0-11.23,0-2.93,0-2.64,0-2.64,2.57q0,18.92,0,37.82c0,.45,0,.91,0,1.37,0,1,.19,1.21,1.2,1.22,2.37,0,4.74,0,7.11,0,2,0,2,0,2-2.06,0-5.42.07-10.84,0-16.27-.05-3.58-.3-7.17-.46-10.75,0-.3-.25-.66.11-.92.47.34.49.81.61,1.25l5,17.62c.94,3.3,1.86,6.61,2.81,9.91.32,1.12.44,1.21,1.6,1.21,2.83,0,5.65,0,8.48,0,1.3,0,1.33-.06,1.73-1.35.15-.51.29-1,.43-1.55q3.47-12.34,6.92-24.69a5.09,5.09,0,0,1,.73-1.86,1.6,1.6,0,0,1,.28,1.39c-.37,8.47-.18,17-.23,25.43,0,.38,0,.77,0,1.15,0,1.38.1,1.46,1.41,1.47,2.59,0,5.19,0,7.79,0a5.07,5.07,0,0,0,.68,0,.73.73,0,0,0,.72-.73c0-.53,0-1.07,0-1.6q0-19.14,0-38.27c0-.38,0-.77,0-1.15C201.9,7.88,201.75,7.73,200.69,7.68Z"/><path d="M364.29,113.68a5.23,5.23,0,0,0-2.32-.86.8.8,0,0,0-.54.31,7.85,7.85,0,0,0-.52.76c-1.27,1.81-3.09,2.11-5.08,1.73a4.25,4.25,0,0,1-3.42-3.58,10.38,10.38,0,0,1,0-4.54,4.29,4.29,0,0,1,2.4-3.16,4.93,4.93,0,0,1,6,1.33,1.51,1.51,0,0,0,1.93.65c.35-.13.73-.21,1.09-.35a.62.62,0,0,0,.35-.92,6,6,0,0,0-4-3.51,10.89,10.89,0,0,0-6.54,0,6.74,6.74,0,0,0-4.46,4.27,11,11,0,0,0-.62,3.82c0,.68,0,1.38.13,2,.51,3.2,2.14,5.52,5.35,6.47a10.66,10.66,0,0,0,5.66.09,6.81,6.81,0,0,0,4.64-3.76C364.49,114.21,364.6,113.89,364.29,113.68Z"/><path d="M340.81,103c0-1.56-.1-1.62-1.72-1.63a10.86,10.86,0,0,0-1.14,0,.73.73,0,0,0-.7.75c0,.3,0,.61,0,.91v13.67a9.08,9.08,0,0,0,0,.91.72.72,0,0,0,.75.69c.53,0,1.07,0,1.6,0,1,0,1.17-.2,1.18-1.23,0-2.36,0-4.71,0-7.07h0C340.81,107.71,340.83,105.35,340.81,103Z"/><path d="M356,87.15c1.37,0,2.75,0,4.12,0,2.17,0,2.18,0,2.19-2.1q0-11.11,0-22.21c0-.46,0-.92-.05-1.37a.74.74,0,0,0-.75-.72c-1.9,0-3.81,0-5.72,0-.45,0-.65.36-.67.78,0,.61,0,1.22,0,1.83V84.49c0,.61,0,1.22,0,1.83A.79.79,0,0,0,356,87.15Z"/><path d="M340,61.55a.58.58,0,0,0-.59-.77c-1.9,0-3.81-.05-5.72,0-1.28,0-1.33,0-1.68,1.37-1.37,5.15-3,10.24-4.05,15.48-.08.37-.15.74-.61.86-.68-2.65-1.35-5.31-2-8q-1.12-4.31-2.31-8.61c-.28-1-.44-1.13-1.42-1.14q-3,0-5.95,0c-.62,0-.79.28-.63.89.11.44.25.87.4,1.31l4.27,13c1.09,3.34,2.17,6.67,3.27,10,.38,1.14.42,1.16,1.64,1.17,2,0,4,0,5.95,0A1.34,1.34,0,0,0,332,86.13c.06-.22.13-.44.2-.66q3.73-11.4,7.48-22.82A9.86,9.86,0,0,0,340,61.55Z"/><path d="M328.08,115.62c-.6,0-1.21,0-1.82,0-1.53,0-3.05,0-4.57,0-.87,0-1-.21-1.08-1.1,0-.38,0-.77,0-1.15,0-3.27,0-6.54,0-9.82,0-2.21,0-2.24-2.34-2.15-1.1,0-1.21.11-1.22,1.18,0,2.36,0,4.72,0,7.08h0v5.48c0,.76,0,1.52,0,2.28s.25.93,1,.95c1.06,0,2.13,0,3.19,0,2.44,0,4.88,0,7.31,0,.9,0,1.12-.24,1.18-1C329.81,115.86,329.62,115.65,328.08,115.62Z"/><path d="M300.88,9.37A23,23,0,0,0,294,7.85c-5.57-.37-11.14-.11-16.71-.18a5.2,5.2,0,0,0-.68.06.74.74,0,0,0-.71.75c0,.61,0,1.22,0,1.83V48.08c0,.61,0,1.22.05,1.83a.74.74,0,0,0,.75.71c.38,0,.76,0,1.15,0h12.36a28.52,28.52,0,0,0,5.91-.55c8.24-1.77,13.58-6.58,15.54-14.89a29.18,29.18,0,0,0,.28-12.27C310.66,16.45,307.1,11.81,300.88,9.37Zm-1.22,24.78c-1.12,4.37-3.81,6.61-8.28,6.91-1.06.07-2.13,0-3.2,0a.59.59,0,0,1-.6-.57c0-.61-.06-1.22-.08-1.83a1.76,1.76,0,0,1,0-.23V29c0-3.06,0-6.11,0-9.16q0-.91,0-1.83c0-.51.24-.9.8-.91a20.49,20.49,0,0,1,5.47.3,7.47,7.47,0,0,1,5.52,5,10.07,10.07,0,0,1,.58,2A23.83,23.83,0,0,1,299.66,34.15Z"/><path d="M447.86,49.71c0-.31,0-.61,0-.92-.07-9,.26-18-.44-27,0-.31,0-.62.51-.63.65,1.25,1.33,2.52,2,3.81,4.18,8.06,8.38,16.12,12.52,24.2a2.36,2.36,0,0,0,2.46,1.54c3.67-.1,7.33,0,11,0,2.78,0,2.55.23,2.55-2.63q0-18.9,0-37.81V9.53c0-1.82,0-1.84-1.76-1.86-2.14,0-4.28,0-6.41,0-.46,0-.92,0-1.38,0a.75.75,0,0,0-.7.75,11,11,0,0,0,0,1.15c.07,8.86-.2,17.72.26,26.57a6,6,0,0,1-.22.93c-.54-1-.91-1.6-1.25-2.26-4.46-8.52-8.94-17-13.36-25.58A2.54,2.54,0,0,0,451,7.63c-3.66.09-7.33,0-11,0-2.62,0-2.41,0-2.41,2.35V48.28c0,.53,0,1.07,0,1.6a.71.71,0,0,0,.72.73c.84,0,1.68,0,2.52,0,2,0,4,0,5.95,0C447.6,50.62,447.8,50.4,447.86,49.71Z"/><path d="M576.2,110.18a1.53,1.53,0,0,1-.94-.72l1.09-.7c2.14-1.41,2-5.05-.05-6.54a7.38,7.38,0,0,0-8.17.19,4.42,4.42,0,0,0-1,1.21c-1,1.83-.9,2.21,1.24,2.33.72,0,1.36,0,1.67-.81a2,2,0,0,1,.52-.73,2.55,2.55,0,0,1,2.78-.36,2.18,2.18,0,0,1,1.13,2.29,2.14,2.14,0,0,1-1.76,1.87,8.65,8.65,0,0,1-1.14.13c-.94.12-1,.23-1.07,1.1a6.92,6.92,0,0,0,0,.91.7.7,0,0,0,.73.71,5.76,5.76,0,0,1,2.45.44,2.37,2.37,0,0,1-.07,4.1,2.88,2.88,0,0,1-3.75-1.16,1.45,1.45,0,0,0-1.8-.91c-.37.07-.76.1-1.13.17-.64.12-.78.34-.65.93a4.4,4.4,0,0,0,2.61,3.27,8.68,8.68,0,0,0,6.89,0,4.51,4.51,0,0,0,.79-.46C578.78,116,579.23,111.56,576.2,110.18Z"/><path d="M595.81,115.6c-.69,0-1.38,0-2.06,0-1.07,0-2.14,0-3.2,0-.29,0-.64.08-.81-.25s.08-.73.34-1c.48-.49,1-1,1.5-1.41.81-.69,1.67-1.33,2.48-2a8.56,8.56,0,0,0,2.29-2.82,4.61,4.61,0,0,0-3.17-6.77,7.7,7.7,0,0,0-4.51.18,4.65,4.65,0,0,0-3,3.2c-.26.88,0,1.23,1,1.31,1.16.1,2.35.29,2.73-1.28,0-.19.28-.35.46-.49a2.47,2.47,0,0,1,2.79,0,2.11,2.11,0,0,1,.78,2.24,3.62,3.62,0,0,1-1.13,2c-.89.84-1.81,1.64-2.73,2.44a19.7,19.7,0,0,0-3.68,4,4.07,4.07,0,0,0-.6,2.61c0,.55.31.85.85.86,1.68,0,3.35,0,5,0v0c1.53,0,3,0,4.58,0,1.33,0,1.44-.14,1.43-1.44S597,115.64,595.81,115.6Z"/><path d="M588,86.26c0-1.37,0-2.75,0-4.12,0-.57-.38-.79-.91-.8l-1.6,0-5,0a.79.79,0,0,1-.88-.83c0-1.06,0-2.13,0-3.2,0-.65.32-.89,1-.93.45,0,.91,0,1.37,0,1.53,0,3.06,0,4.58,0a.8.8,0,0,0,.86-.86c0-1.3,0-2.59,0-3.89a.8.8,0,0,0-.87-.85c-1.45,0-2.9,0-4.35,0-2.82,0-2.7.21-2.68-2.79,0-.15,0-.31,0-.46,0-.53.28-.86.84-.87,1.14,0,2.29,0,3.43,0,5.12-.1,4.09.83,4.21-4.42a1.69,1.69,0,0,0,0-.23c-.06-.89-.22-1.08-1.1-1.09-2.22,0-4.43,0-6.65,0h-2.75c-1.37,0-2.75,0-4.12,0-.73,0-.94.25-1,1,0,.46,0,.91,0,1.37V84.87c0,.46,0,.91,0,1.37s.25.9.81.9q7,0,14,0C587.69,87.15,587.94,86.78,588,86.26Z"/><path d="M567.32,47.35c0-3.35,0-6.71,0-10.07h0c0-3.13,0-6.26,0-9.39,0-.54,0-1.07,0-1.6a.72.72,0,0,0-.7-.76q-.92-.06-1.83-.06H551.25c-2.44,0-2.45-.12-2.44,2.33,0,1.45,0,2.9,0,4.35,0,.46,0,.92,0,1.38.06.69.29.91,1,.94s1.38,0,2.06,0c1.15,0,2.3,0,3.44,0,.8,0,1,.2,1,.89q0,2.52,0,5a.87.87,0,0,1-.82.93,33.47,33.47,0,0,1-4.1.33,8.72,8.72,0,0,1-8.14-5c-1.77-3.47-1.83-11.34.14-14.94a9.35,9.35,0,0,1,7.64-5.12,19.2,19.2,0,0,1,5.24.19,25.46,25.46,0,0,1,5.28,1.5c1.1.44,1.16.4,1.66-.79.59-1.41,1.15-2.82,1.72-4.24.37-.92.71-1.85,1.1-2.76a.72.72,0,0,0-.43-1.09,16,16,0,0,0-1.5-.57,37.71,37.71,0,0,0-9.87-1.82,30,30,0,0,0-9.54.9c-7.7,2.09-12.49,7-14.18,14.87a31.34,31.34,0,0,0,.15,13.63c1.83,8.05,7.5,13.38,15.56,14.41A47.41,47.41,0,0,0,566,49.11C567.25,48.73,567.31,48.64,567.32,47.35Z"/><path d="M559.05,112.4c-.63-.09-1-.31-1-1,0-.46,0-.91,0-1.37,0-2.44,0-4.88,0-7.32,0-1.19-.16-1.32-1.29-1.37h-.85a2.39,2.39,0,0,0-2.64,1.39c-1.75,2.86-3.62,5.64-5.5,8.42a4.23,4.23,0,0,0-.67,2.82.77.77,0,0,0,.86.82c1.68,0,3.36,0,5,0s1.74,0,1.84,1.79.12,1.76,1.85,1.72h.22c.91-.05,1.09-.21,1.15-1.06,0-.53,0-1.06,0-1.6a.81.81,0,0,1,.87-.84,2.27,2.27,0,0,0,.45,0c.79-.17.88-.28.91-1C560.34,112.71,560.26,112.57,559.05,112.4Zm-7.26,0a8.69,8.69,0,0,1-1.14,0,.43.43,0,0,1-.34-.66,9.09,9.09,0,0,1,.69-1.16c1-1.58,2.08-3.16,3.13-4.73a.52.52,0,0,1,.38-.17c.18,0,.26.11.26.29v2.72h0v.68C554.78,112.8,555.06,112.35,551.79,112.39Z"/><path d="M692.85,42.25c0-.71-.26-.94-1-1-.54,0-1.07,0-1.61,0h-8.7c-.61,0-1.22,0-1.83-.06a.73.73,0,0,1-.71-.75q0-3.21,0-6.41a.79.79,0,0,1,.85-.86l2.06,0c2.9,0,5.8,0,8.7,0,1,0,1.21-.19,1.22-1.21,0-2.14,0-4.28,0-6.42,0-.15,0-.3,0-.46-.06-1-.25-1.13-1.28-1.19-.45,0-.91,0-1.37,0h-7.79c-.53,0-1.07,0-1.6,0a.73.73,0,0,1-.77-.7c0-1.75,0-3.51,0-5.26a.7.7,0,0,1,.74-.71c.61,0,1.22,0,1.83,0h8.93c.54,0,1.07,0,1.6-.05a.71.71,0,0,0,.7-.76c0-2.59,0-5.19,0-7.78a.71.71,0,0,0-.73-.73,12.45,12.45,0,0,0-1.37-.06h-21.3a12.45,12.45,0,0,0-1.37.06.75.75,0,0,0-.72.75c0,.6,0,1.22,0,1.83q0,9.39,0,18.78,0,7.79,0,15.58c0,1.6,0,3.21,0,4.81,0,.9.22,1.1,1,1.15.46,0,.92,0,1.38,0h20.61c.46,0,.92,0,1.38,0,.91,0,1.1-.21,1.12-1.06,0-1.15,0-2.29,0-3.44S692.88,43.54,692.85,42.25Z"/><path d="M741.32,8.93c-.05-1-.23-1.24-1.21-1.25-2.68,0-5.35,0-8,0a2.32,2.32,0,0,0-.46.06.69.69,0,0,0-.61.57,5.58,5.58,0,0,0-.07.91c.12,8.78-.3,17.57.32,26.34,0,.38,0,.76,0,1.14l-.41.11c-.4-.71-.82-1.42-1.2-2.14-4.43-8.46-8.87-16.9-13.25-25.38a2.54,2.54,0,0,0-2.63-1.66c-3.51.1-7,0-10.54,0-3.17,0-2.89-.15-2.9,2.81V47.82c0,.54,0,1.07,0,1.6,0,1,.2,1.21,1.22,1.22,2.21,0,4.43,0,6.64,0,2.67,0,2.49.08,2.47-2.51-.06-8.48.25-17-.39-25.43,0-.48-.28-1,.19-1.47.53.15.63.62.83,1,1,2,2,3.93,3.07,5.89,3.55,6.85,7.08,13.7,10.65,20.54,1.12,2.17.71,2,3.06,2h10.55c2.89,0,2.68.21,2.68-2.76V10.31C741.33,9.85,741.34,9.39,741.32,8.93Z"/><path d="M708.73,61.77a14.17,14.17,0,0,0-2.87-.71c-3.79-.59-7.61-.24-11.42-.3a1.81,1.81,0,0,0-.23,0,.79.79,0,0,0-.7.77c0,.53,0,1.06,0,1.6V76.42c0,3.13,0,6.25,0,9.38,0,1.21.15,1.36,1.3,1.37,2.74,0,5.49,0,8.23,0a15.62,15.62,0,0,0,4.49-.78,11.29,11.29,0,0,0,7.83-8.23,18.39,18.39,0,0,0,.37-7.49A10.46,10.46,0,0,0,708.73,61.77Zm-.66,15.34A5.2,5.2,0,0,1,703,81.27c-.53,0-1.06,0-1.59,0a.69.69,0,0,1-.71-.73c0-.38,0-.76,0-1.14q0-5.48,0-11c0-.38,0-.76,0-1.14a.7.7,0,0,1,.72-.71l.22,0c4.37-.3,6.57,1.64,6.83,6,0,.38,0,.76,0,1.15A10.76,10.76,0,0,1,708.07,77.11Z"/><path d="M642.28,81.38c-2.06,0-4.12,0-6.18,0-.68,0-1.37,0-2.05,0a.71.71,0,0,1-.7-.74c0-.61,0-1.22,0-1.83V63.42c0-.61,0-1.22,0-1.83a.8.8,0,0,0-.89-.83c-1.67,0-3.35,0-5,0-1,0-1.13.22-1.19,1.26,0,.45,0,.91,0,1.37V73.9c0,3.51,0,7,0,10.52,0,.54,0,1.07,0,1.6.05.92.22,1.09,1.06,1.15.3,0,.61,0,.91,0h13.27l1.14,0a.8.8,0,0,0,.86-.85c0-1.3,0-2.6,0-3.89C643.41,81.6,643.18,81.39,642.28,81.38Z"/><path d="M676.89,60.77c-.38,0-.76,0-1.14,0h-16c-.31,0-.61,0-.92,0-.84.05-1,.23-1.06,1.15s0,1.68,0,2.52c0,2.14,0,2.15,2.13,2.16,1.14,0,2.29,0,3.43,0a.79.79,0,0,1,.86.85c0,.54,0,1.07,0,1.61v7.79c0,1.68,0,3.36,0,5,0,1.37,0,2.75,0,4.12,0,.9.22,1.11,1.07,1.13,1.3,0,2.6,0,3.9,0,2.16,0,2.18,0,2.18-2.1,0-5.27,0-10.54,0-15.81,0-.61,0-1.22,0-1.83a.79.79,0,0,1,.89-.82c.53,0,1.06,0,1.6,0l3,0c.52,0,.89-.25.9-.8,0-1.38,0-2.75,0-4.13A.8.8,0,0,0,676.89,60.77Z"/><path d="M658.07,49.1c0-.3,0-.61,0-.91v-38c0-.53,0-1.07,0-1.6a.82.82,0,0,0-.86-.86c-.38,0-.77,0-1.15,0-3.89,0-7.79,0-11.68,0-1.76,0-1.76,0-2.24,1.6-.07.22-.1.45-.17.67q-3.81,13.19-7.63,26.38c-.14.49-.07,1.1-.81,1.43-.23-.7-.48-1.39-.69-2.09l-7.41-25.25c-.17-.59-.36-1.17-.53-1.75a1.23,1.23,0,0,0-1.33-1c-4.43,0-8.86,0-13.28,0-1,0-1.12.22-1.16,1.29,0,.46,0,.91,0,1.37V47.92c0,.54,0,1.07,0,1.6,0,.89.22,1.1,1.08,1.11,2.75,0,5.5,0,8.25,0h.23a.76.76,0,0,0,.73-.74c0-.46,0-.91,0-1.37,0-5.8.06-11.61,0-17.41,0-3.36-.35-6.71-.54-10.06l.12-.32c0,.11-.07.22-.11.34v0c.24,0,.49,0,.57.22.23.65.41,1.31.6,2q3.47,12.22,6.94,24.44c.18.66.4,1.31.57,2a1.18,1.18,0,0,0,1.32,1c3,0,6,0,8.93,0,1,0,1.12-.12,1.42-1.14.78-2.71,1.53-5.43,2.29-8.15q2.76-9.81,5.51-19.61c.12-.42.09-.94.66-1.09,0,.08.1.15.09.21-.6,9.23-.27,18.47-.35,27.71,0,.31,0,.61,0,.92,0,1,.16,1.14,1.26,1.15,2.59,0,5.19,0,7.79,0C658,50.63,658,50.59,658.07,49.1Z"/><path d="M599.84,7.66H578.08c-2,0-2,0-2,2.06q0,9.73,0,19.47v19c0,2.47-.16,2.44,2.31,2.44h21.08c.46,0,.91,0,1.37,0s.75-.25.75-.7c0-2.6,0-5.19,0-7.79a.8.8,0,0,0-.85-.86c-1.3,0-2.6,0-3.9,0-2.59,0-5.19,0-7.79,0-1.11,0-1.31-.23-1.33-1.37,0-1.83,0-3.66,0-5.5,0-1,.2-1.2,1.22-1.21,2.52,0,5,0,7.56,0l3.2,0a.8.8,0,0,0,.86-.86c0-2.52,0-5,0-7.56,0-.55-.38-.79-.9-.83-.3,0-.61,0-.91,0h-8.48c-.61,0-1.22,0-1.83-.07a.67.67,0,0,1-.63-.57,31.46,31.46,0,0,1,0-5.49.6.6,0,0,1,.61-.56c.76-.05,1.52-.06,2.28-.07,3.21,0,6.42,0,9.63,0,1.17,0,1.29-.14,1.3-1.36,0-2.06,0-4.13,0-6.19C601.62,7.74,601.57,7.71,599.84,7.66Z"/><path d="M515.25,61c-3.72-.56-7.46-.2-11.19-.26a.78.78,0,0,0-.88.82c0,.61,0,1.22,0,1.83v21c0,.61,0,1.22,0,1.83a.8.8,0,0,0,.84.87c.92,0,1.83,0,2.75,0,4-.06,3.52.59,3.56-3.48,0-1.06,0-2.13,0-3.2,0-2.13,0-2,1.95-2.09a20.87,20.87,0,0,0,2.73-.28c4.43-.77,7-3.6,7.29-8.09S520.64,61.84,515.25,61Zm-4.4,11.47c-.35-.06-.46-.38-.47-.69,0-.76,0-1.52,0-2.28h-.05v-.69c0-2.26.05-2.3,1.52-2.28,2.25,0,3.19.83,3.22,2.65C515.1,71.21,513.51,73,510.85,72.5Z"/><path d="M520,113c-.79-.29-.94-.21-1.5.52-.19.24-.36.5-.53.75-1.59,2.21-6.66,2.27-8-1.28a10.07,10.07,0,0,1-.5-3.48,13.82,13.82,0,0,1,.16-1.71,4.57,4.57,0,0,1,5.56-3.8,3.91,3.91,0,0,1,2.88,1.66,1.49,1.49,0,0,0,2.12.64c.28-.11.58-.17.87-.27a.63.63,0,0,0,.4-.91,5.82,5.82,0,0,0-3.74-3.46,10.7,10.7,0,0,0-7.17.09,6.32,6.32,0,0,0-3.86,3.67,11.38,11.38,0,0,0,.06,8.89,7.46,7.46,0,0,0,.55,1c2.59,4.27,10.84,4.41,13.59.44C522.35,113.6,522,113.72,520,113Z"/><path d="M517.56,22.34c-1.46-4.42-2.9-8.85-4.36-13.26-.51-1.55-.53-1.56-2-1.57h-12.6c-1.32,0-1.38,0-1.78,1.29-1.17,3.55-2.31,7.11-3.46,10.67Q488.69,33.72,484.05,48a4.84,4.84,0,0,0-.53,2.45,2.17,2.17,0,0,0,.63.19q5.39,0,10.77,0c.88,0,1.05-.15,1.28-1,.54-1.91,1-3.83,1.55-5.74.31-1.11.46-1.23,1.58-1.24,2.68,0,5.35,0,8,0h3.21c1.56,0,1.61.26,1.88,1.42.4,1.7.87,3.4,1.33,5.09.39,1.44.44,1.49,1.83,1.5,3.28,0,6.57,0,9.85,0a1.55,1.55,0,0,0,1.1-.25A4.83,4.83,0,0,0,526,48C523.2,39.43,520.37,30.89,517.56,22.34ZM500.82,32.9a3.62,3.62,0,0,1,0-.87q2-8,4.06-15.88s.13,0,.21-.07c.53,1.37,4,14.93,4.3,16.67C508,33.21,503.45,33.29,500.82,32.9Z"/><path d="M780,10.13c0-2.52.21-2.47-2.51-2.47H750c-.53,0-1.07,0-1.6,0-.69,0-.92.28-.93,1,0,2.22,0,4.43,0,6.64,0,1.77,0,1.79,1.77,1.81,2.37,0,4.74,0,7.1,0,1.54,0,1.58.08,1.63,1.51,0,.38,0,.76,0,1.14v14.9c0,4.73,0,9.47,0,14.2,0,1.68,0,1.7,1.62,1.72q3.33,0,6.64,0c3.79,0,3.28.48,3.29-3.26,0-9.47,0-18.94,0-28.41,0-1.77,0-1.79,1.79-1.8,2.52,0,5,0,7.56,0,.93,0,1.09-.18,1.11-1.06C780,14.1,780,12.11,780,10.13Z"/><path d="M540.3,112.39c-1-.2-1.08-.25-1.1-1.09,0-1.45,0-2.9,0-4.35h0v-3c0-2.84.13-2.57-2.61-2.61a2,2,0,0,0-1.89,1c-1.93,3-3.91,6-5.88,9a2.73,2.73,0,0,0-.57,1.47c-.06,1.94-.05,2,1.77,2,1.53,0,3,0,4.58,0,1.17,0,1.24.12,1.33,1.35,0,.16,0,.31,0,.46.1,1.66.14,1.7,1.68,1.69s1.49-.07,1.57-1.57c0-.23,0-.46,0-.69.07-1,.07-1,1.19-1.25.38-.07.78-.07,1-.48A1.33,1.33,0,0,0,540.3,112.39Zm-4.41-1.14c0,.9-.22,1.1-1.06,1.13s-1.68,0-2.52,0-1.16-.31-.68-1c1.2-1.86,2.43-3.7,3.66-5.54.06-.09.25-.1.38-.15.08.11.23.23.23.34C535.91,107.74,535.93,109.49,535.89,111.25Z"/><path d="M550.16,85.13c0-5.19,0-10.38,0-15.57,0-.61,0-1.22,0-1.83,0-.91.21-1.09,1.07-1.12,1.45,0,2.9,0,4.35,0,.53,0,.92-.24.93-.78,0-1.45,0-2.9,0-4.34a.72.72,0,0,0-.77-.69c-.38,0-.76,0-1.15,0h-16c-.38,0-.77,0-1.15,0a.8.8,0,0,0-.83.88c0,1.3,0,2.59,0,3.89,0,.84.21,1,1.13,1s2,0,3,0c2.39,0,2.3-.07,2.3,2.21V84.37c0,.53,0,1.06,0,1.6.05,1,.21,1.18,1.23,1.2,1.3,0,2.59,0,3.89,0C550.13,87.16,550.16,87.16,550.16,85.13Z"/></svg>