<svg width="38" height="37" viewBox="0 0 38 37" fill="none" xmlns="http://www.w3.org/2000/svg">
<path d="M11.8179 29.1309C9.68176 29.1309 7.9502 30.8626 7.9502 32.9986C7.9502 35.1347 9.68184 36.8663 11.8179 36.8663C13.954 36.8663 15.6855 35.1346 15.6855 32.9986C15.6856 30.8626 13.954 29.1309 11.8179 29.1309ZM11.8179 35.1474C10.6312 35.1474 9.66918 34.1854 9.66918 32.9987C9.66918 31.812 10.6312 30.85 11.8179 30.85C13.0046 30.85 13.9665 31.812 13.9665 32.9987C13.9666 34.1854 13.0046 35.1474 11.8179 35.1474Z" fill="#818181"/>
<path d="M28.1489 29.1309C26.0128 29.1309 24.2812 30.8626 24.2812 32.9986C24.2812 35.1347 26.0129 36.8663 28.1489 36.8663C30.2849 36.8663 32.0166 35.1346 32.0166 32.9986C32.0166 30.8626 30.285 29.1309 28.1489 29.1309ZM28.1489 35.1474C26.9622 35.1474 26.0002 34.1854 26.0002 32.9987C26.0002 31.812 26.9622 30.85 28.1489 30.85C29.3356 30.85 30.2976 31.812 30.2976 32.9987C30.2977 34.1854 29.3356 35.1474 28.1489 35.1474Z" fill="#818181"/>
<path d="M36.8721 6.5696C36.6931 6.37408 36.4482 6.25169 36.1845 6.22578L8.20814 5.83901L7.43461 3.47539C6.88966 1.89534 5.41005 0.828644 3.73877 0.810959H0.859491C0.384793 0.810959 0 1.19575 0 1.67045C0 2.14515 0.384793 2.52994 0.859491 2.52994H3.73877C4.67328 2.55059 5.49617 3.15064 5.80158 4.03407L11.2593 20.4933L10.8296 21.4817C10.3503 22.7177 10.4943 24.1088 11.2164 25.2204C11.9316 26.3123 13.1349 26.9861 14.4395 27.0254H31.1566C31.6313 27.0254 32.0161 26.6406 32.0161 26.1659C32.0161 25.6912 31.6313 25.3064 31.1566 25.3064H14.4394C13.7027 25.288 13.0245 24.9004 12.6345 24.275C12.2489 23.6573 12.1697 22.8962 12.4196 22.2122L12.7635 21.4387L30.8557 19.5478C32.843 19.3289 34.4778 17.8835 34.9383 15.9379L37.0011 7.30004C37.0941 7.05129 37.0447 6.77154 36.8721 6.5696ZM33.2623 15.5512C32.9833 16.8036 31.9199 17.7274 30.6409 17.8289L12.7635 19.6767L8.76682 7.55799L35.1101 7.94476L33.2623 15.5512Z" fill="#818181"/>
</svg>
