<svg width="70" height="48" viewBox="0 0 70 48" fill="none" xmlns="http://www.w3.org/2000/svg">
<path d="M0 31.9976V41.1236C0 44.9543 3.04203 47.9964 6.76006 47.9964H63.0939C66.8119 47.9964 69.854 44.9543 69.854 41.1236V31.9976H0Z" fill="#EA2839"/>
<path d="M63.0939 0.000488281H6.76006C3.04203 0.000488281 0 3.04252 0 6.87322V15.9993H69.854V6.87322C69.854 3.04252 66.8119 0.000488281 63.0939 0.000488281Z" fill="#FECB00"/>
<path d="M69.854 15.7734H0V32.1102H69.854V15.7734Z" fill="#34B233"/>
<path d="M63.0939 47.9964C66.812 47.9964 69.854 44.9543 69.854 41.1236V31.9976H44.3911L63.0939 47.9964Z" fill="#D31A30"/>
<path d="M63.0941 0H6.76025L25.4631 15.9988H69.8541V6.87273C69.8541 3.04203 66.8121 0 63.0941 0Z" fill="#FCAE00"/>
<path d="M44.5036 32.2229H69.8538V15.7734H25.3501L44.5036 32.2229Z" fill="#269E23"/>
<path d="M63.0941 0H6.76025L58.9254 15.9988H69.8541V6.87273C69.8541 3.04203 66.8121 0 63.0941 0Z" fill="#F99900"/>
<path d="M69.8539 19.2661V15.7734H58.3618L69.8539 19.2661Z" fill="#168410"/>
<path d="M69.854 41.124C69.854 44.9547 66.8119 47.9967 63.0939 47.9967H6.76006C3.04203 47.9967 0 44.9547 0 41.124" fill="#BF102D"/>
<path d="M41.6872 27.9413L52.6159 20.0546H39.0958L34.9271 7.21045L30.7584 20.0546H17.2383L28.167 27.9413L23.9983 40.7854L34.9271 32.8987L45.8559 40.7854L41.6872 27.9413Z" fill="white"/>
<path d="M34.927 7.21045L30.7583 20.0546H30.3076L42.4757 30.42L41.6871 27.9413L52.6158 20.0546H39.0957L34.927 7.21045Z" fill="#D8D8D8"/>
</svg>
