<svg width="74" height="48" viewBox="0 0 74 48" fill="none" xmlns="http://www.w3.org/2000/svg">
<path d="M1.95907 1.2832C0.761607 2.28919 0 3.79682 0 5.48305V42.485C0 44.1711 0.761607 45.6789 1.95907 46.6847L36.6075 23.984L1.95907 1.2832Z" fill="#F5F5F5"/>
<path d="M1.95898 46.6847C2.91207 47.4853 4.14085 47.9681 5.48302 47.9681H67.7314C70.7597 47.9681 73.2147 45.5132 73.2147 42.4848V23.9839H36.6074L1.95898 46.6847Z" fill="#FF4B55"/>
<path d="M67.7314 0H5.48302C4.14085 0 2.91192 0.483047 1.95898 1.28341L36.6072 23.9842H73.2147V5.48325C73.2147 2.45484 70.7598 0 67.7314 0Z" fill="#41479B"/>
<path d="M13.2545 28.0871C15.5203 28.0871 17.3571 26.2503 17.3571 23.9844C17.3571 21.7186 15.5203 19.8818 13.2545 19.8818C10.9887 19.8818 9.15186 21.7186 9.15186 23.9844C9.15186 26.2503 10.9887 28.0871 13.2545 28.0871Z" fill="#FFE15A"/>
<path d="M13.2543 23.9849L11.7158 17.8311L13.2543 15.7798L14.7927 17.8311L13.2543 23.9849Z" fill="#FFE15A"/>
<path d="M13.2543 23.9849L14.7927 30.1386L13.2543 32.1899L11.7158 30.1386L13.2543 23.9849Z" fill="#FFE15A"/>
<path d="M13.2545 23.9843L7.10062 25.5228L5.04932 23.9843L7.10062 22.4458L13.2545 23.9843Z" fill="#FFE15A"/>
<path d="M13.2544 23.9843L19.4082 22.4458L21.4595 23.9843L19.4082 25.5228L13.2544 23.9843Z" fill="#FFE15A"/>
<path d="M13.2544 23.9851L16.5179 18.5459L19.0562 18.1831L18.6936 20.7215L13.2544 23.9851Z" fill="#FFE15A"/>
<path d="M13.2541 23.9849L9.9905 29.4241L7.45215 29.7869L7.81479 27.2485L13.2541 23.9849Z" fill="#FFE15A"/>
<path d="M13.2541 23.9851L7.81479 20.7215L7.45215 18.1831L9.9905 18.5459L13.2541 23.9851Z" fill="#FFE15A"/>
<path d="M13.2544 23.9849L18.6936 27.2485L19.0562 29.7869L16.5179 29.4241L13.2544 23.9849Z" fill="#FFE15A"/>
<path d="M3.38273 6.20895L3.59665 7.80481L2.15581 8.5238C1.96934 8.61689 2.00852 8.89388 2.21372 8.93134L3.79757 9.22106L4.03609 10.8135C4.06697 11.0197 4.34253 11.0679 4.44163 10.8843L5.20667 9.46744L6.7948 9.73256C7.00043 9.76703 7.13142 9.51964 6.98756 9.36892L5.87647 8.20349L6.61934 6.77494C6.71544 6.59004 6.52082 6.38899 6.33292 6.47922L4.8812 7.1759L3.75224 6.02777C3.60638 5.87934 3.35513 6.00246 3.38273 6.20895Z" fill="#FFE15A"/>
<path d="M4.01838 37.2701L3.74826 38.8575L2.15884 39.1156C1.95306 39.1491 1.9083 39.4252 2.09291 39.5219L3.51903 40.2693L3.2735 41.8606C3.24176 42.0667 3.49043 42.1945 3.63958 42.0488L4.79128 40.9234L6.22898 41.6488C6.41517 41.7428 6.61365 41.5456 6.52127 41.3588L5.80685 39.9158L6.94083 38.7729C7.08769 38.6249 6.96171 38.375 6.75522 38.4054L5.16193 38.6389L4.42521 37.207C4.32969 37.0219 4.05313 37.0645 4.01838 37.2701Z" fill="#FFE15A"/>
<path d="M28.9905 21.633L28.0637 22.9498L26.5179 22.4993C26.3178 22.441 26.1585 22.6711 26.2835 22.8378L27.2495 24.1261L26.3433 25.4571C26.226 25.6294 26.3955 25.8519 26.5928 25.7846L28.1165 25.264L29.1023 26.5372C29.23 26.702 29.494 26.6094 29.4908 26.401L29.4665 24.7912L30.982 24.2469C31.1782 24.1766 31.1717 23.8967 30.9726 23.8354L29.4338 23.3609L29.3846 21.7514C29.3786 21.5428 29.1104 21.4624 28.9905 21.633Z" fill="#FFE15A"/>
</svg>
