<svg width="23" height="23" viewBox="0 0 23 23" fill="none" xmlns="http://www.w3.org/2000/svg">
<path d="M21.8499 10.35H12.65V1.14993C12.65 0.515266 12.1348 0 11.4999 0C10.8652 0 10.35 0.515266 10.35 1.14993V10.35H1.14993C0.515266 10.35 0 10.8652 0 11.4999C0 12.1348 0.515266 12.65 1.14993 12.65H10.35V21.8499C10.35 22.4847 10.8652 23 11.4999 23C12.1348 23 12.65 22.4847 12.65 21.8499V12.65H21.8499C22.4847 12.65 23 12.1348 23 11.4999C23 10.8652 22.4847 10.35 21.8499 10.35Z" fill="#FF0000"/>
</svg>
