<svg width="312" height="200" viewBox="0 0 312 200" fill="none" xmlns="http://www.w3.org/2000/svg">
<g opacity="0.02">
<path d="M70.4463 199.887C110.185 199.887 141.563 167.668 141.563 127.929C141.563 88.1898 108.925 55.9701 69.1863 55.9701C68.7888 55.9701 68.1891 56.0241 67.7916 56.0308C83.5039 43.5189 103.239 35.9794 124.84 35.9794C134.778 35.9794 142.775 27.9211 142.775 17.9898C142.775 8.05841 136.381 0.000153147 126.443 0.000154016C55.9063 0.00688931 0.172168 57.3918 0.172174 127.929C0.172174 127.942 0.172174 127.956 0.172174 127.976C0.172177 167.695 30.7209 199.887 70.4463 199.887Z" fill="#010101"/>
<path d="M238.99 199.887C278.729 199.887 310.16 167.668 310.16 127.929C310.16 88.1898 277.55 55.9701 237.804 55.9701C237.407 55.9701 236.821 56.0241 236.423 56.0308C252.135 43.5189 271.877 35.9794 293.478 35.9794C303.416 35.9794 311.42 27.9211 311.42 17.9898C311.42 8.05841 304.925 0.000153156 294.987 0.000154025C224.45 0.00688932 168.615 57.3918 168.615 127.929C168.615 127.942 168.615 127.956 168.615 127.976C168.615 167.695 199.265 199.887 238.99 199.887Z" fill="#010101"/>
</g>
</svg>
