<svg width="31" height="31" viewBox="0 0 31 31" fill="none" xmlns="http://www.w3.org/2000/svg">
<path d="M13.6698 0C6.13236 0 0 6.11559 0 13.6325C0 21.1495 6.13242 27.2651 13.6698 27.2651C21.2072 27.2651 27.3397 21.1495 27.3397 13.6325C27.3397 6.11559 21.2073 0 13.6698 0ZM13.6698 25.024C7.36788 25.024 2.24096 19.9135 2.24096 13.6325C2.24096 7.35104 7.36788 2.2409 13.6698 2.2409C19.9718 2.2409 25.0987 7.35104 25.0987 13.6325C25.0988 19.9135 19.9718 25.024 13.6698 25.024Z" fill="#818181"/>
<path d="M30.6699 29.0104L23.3121 21.6899C22.8732 21.2537 22.1639 21.2556 21.7273 21.694C21.2911 22.1329 21.293 22.8421 21.7314 23.2788L29.0893 30.5993C29.3082 30.8166 29.5935 30.9253 29.8796 30.9253C30.1676 30.9253 30.4552 30.8151 30.674 30.5951C31.1103 30.1562 31.1084 29.447 30.6699 29.0104Z" fill="#818181"/>
</svg>
