<svg width="74" height="48" viewBox="0 0 74 48" fill="none" xmlns="http://www.w3.org/2000/svg">
<path d="M71.9947 0H1.26312C0.565602 0 0 0.565458 0 1.26298V46.7333C0 47.4308 0.565602 47.9964 1.26312 47.9964H71.9948C72.6923 47.9964 73.2579 47.4308 73.2579 46.7333V1.26298C73.2578 0.565458 72.6922 0 71.9947 0Z" fill="#FFD250"/>
<path d="M26.5244 5.05219V42.9442C26.5244 43.6417 27.09 44.2073 27.7875 44.2073H68.2057C68.9032 44.2073 69.4688 43.6417 69.4688 42.9442V5.05219C69.4688 4.35466 68.9032 3.78906 68.2057 3.78906H27.7875C27.09 3.78921 26.5244 4.35466 26.5244 5.05219Z" fill="#963C3C"/>
<path d="M13.2622 3.78906H5.05219C4.35466 3.78906 3.78906 4.35466 3.78906 5.05219V42.9442C3.78906 43.6417 4.35466 44.2073 5.05219 44.2073H13.2622V3.78906Z" fill="#5AA587"/>
<path d="M21.4721 3.78906H13.2622V44.2072H21.4721C22.1696 44.2072 22.7352 43.6416 22.7352 42.9441V5.05204C22.7352 4.35452 22.1696 3.78906 21.4721 3.78906Z" fill="#FF7350"/>
<path d="M56.3103 34.1188C56.2679 33.8365 56.5165 33.4719 56.9005 32.9481C57.0394 32.7588 57.2402 32.4845 57.2943 32.3531C57.2585 32.3506 57.2093 32.3534 57.1726 32.3553C56.9602 32.3656 56.6387 32.3802 56.3578 32.0684C56.2479 31.9462 56.195 31.7934 56.2053 31.6264C56.2263 31.2872 56.5033 30.9537 56.6752 30.7772C56.232 30.466 55.8086 30.1428 55.4182 29.7525C54.6722 29.0063 53.8212 28.647 52.8818 28.6668C52.7948 29.6013 53.2764 30.2158 53.7903 30.8627C53.9419 31.0531 54.0928 31.2433 54.23 31.442C54.9061 32.4208 54.7647 34.3106 54.679 34.5108C54.5819 34.7377 54.0473 35.2408 53.314 35.1428C52.9768 35.0984 52.5886 35.2119 52.3439 35.4257C52.2388 35.5177 52.1133 35.6708 52.1133 35.876C52.1133 35.8863 52.1141 35.9382 52.1302 35.9478C52.2287 36.0073 52.5969 35.8911 52.8602 35.7488C52.9329 35.7091 53.0233 35.7209 53.0845 35.7778C53.6029 36.2631 54.1233 35.8438 54.1807 35.7944C54.2518 35.7336 54.3567 35.7316 54.4291 35.7898C54.9596 36.2173 55.5126 35.75 55.5359 35.7299C55.601 35.6736 55.6965 35.6669 55.7689 35.7143C55.9991 35.8652 56.2096 35.9083 56.3974 35.8439C56.5614 35.787 56.6484 35.6636 56.6586 35.6339C56.6633 35.5555 56.558 35.151 56.4881 34.8831C56.4149 34.602 56.3393 34.3115 56.3103 34.1188Z" fill="#FFD250"/>
<path d="M62.0555 16.2234C61.8957 16.2112 61.7799 16.2458 61.7008 16.3242C61.5556 16.4677 61.5675 16.7263 61.5677 16.7289C61.5707 16.7864 61.548 16.8425 61.5061 16.8817C61.4637 16.9207 61.4069 16.9408 61.3494 16.9323C61.0621 16.8947 60.6371 16.5915 59.8488 16.0136C58.5961 15.0954 56.7028 13.7078 54.8966 13.4796C52.797 13.2129 50.9285 13.8827 50.4539 15.0697C49.9253 16.3912 51.0487 17.5952 51.06 17.6074C51.1171 17.6679 51.1297 17.7582 51.0904 17.8316C50.7943 18.3896 51.0186 18.8014 51.2208 19.027C51.2842 18.8408 51.3789 18.7136 51.5094 18.6353C51.8245 18.447 52.236 18.6028 52.805 18.8183C53.1412 18.9453 53.5223 19.0896 53.9667 19.1985C55.1062 19.4778 56.4959 19.2288 57.7223 19.0092C58.1557 18.9315 58.5736 18.8569 58.9622 18.8073C59.9402 18.6826 60.9206 19.116 61.19 19.7954C61.3206 20.1245 61.3903 20.7848 60.3915 21.5114C58.5949 22.8181 50.4022 22.215 49.9196 22.1783C49.9089 22.1793 49.8983 22.1801 49.8757 22.1817C50.0548 22.3829 50.265 22.579 50.3566 22.6035C50.4499 22.6284 50.5107 22.7183 50.4988 22.8143C50.4869 22.9101 50.4062 22.9827 50.3096 22.9841L49.4703 22.9968L49.5476 23.8045C49.5532 23.8641 49.531 23.923 49.4872 23.9638C49.4436 24.0049 49.3832 24.022 49.3245 24.0142C49.2916 24.0087 48.5672 23.893 48.0664 23.6145L47.1185 24.2125C47.0873 24.2322 47.0513 24.2421 47.0151 24.2421C46.994 24.2421 46.9728 24.2388 46.9528 24.2318C46.8974 24.2129 46.8535 24.1703 46.8333 24.1153L46.4716 23.1319L46.0428 23.9898C46.0115 24.0526 45.9487 24.0934 45.879 24.0967C45.8093 24.104 45.7429 24.0658 45.7054 24.0063L45.3379 23.4204C45.1697 23.6304 44.9002 23.9362 44.6244 24.127C44.5741 24.1624 44.5103 24.171 44.4517 24.1512C44.3935 24.1313 44.3482 24.085 44.3297 24.0265L44.1371 23.4185C43.9667 23.634 43.7202 23.9196 43.4592 24.1338C43.4034 24.1801 43.3261 24.1909 43.2593 24.1617C43.1926 24.1326 43.1478 24.0688 43.1434 23.9966L43.0813 23.0192C42.8607 23.1316 42.5603 23.2781 42.3939 23.3301C42.3183 23.3538 42.2348 23.3285 42.1852 23.2663C42.1353 23.204 42.1287 23.1179 42.1686 23.0486C42.4672 22.5301 42.7412 21.8827 42.7621 21.5607C42.5641 21.7978 42.2869 22.0247 41.9771 22.2767C41.3181 22.8133 40.4981 23.4805 39.8945 24.6484C39.4729 25.4647 39.1702 26.8887 39.704 28.2162C40.1597 29.3487 41.1404 30.1937 42.6097 30.7366C42.5606 30.5222 42.5229 30.3116 42.519 30.1137C42.4998 29.1081 42.7086 28.1903 42.7176 28.1516C42.7416 28.0473 42.8452 27.9814 42.9495 28.0067C43.0538 28.0307 43.1187 28.1346 43.0948 28.2386C43.0928 28.2477 42.8882 29.1502 42.9062 30.1063C42.9152 30.5743 43.1165 31.1518 43.311 31.7101C43.5694 32.4524 43.8369 33.2199 43.7206 33.8658C43.5622 34.7437 42.4692 34.9663 41.4545 34.7969C41.166 34.7484 40.9036 34.8197 40.7152 34.9955C40.5239 35.174 40.4257 35.4475 40.4528 35.7274C40.4655 35.8592 40.5149 35.8858 40.5309 35.8947C40.6529 35.9606 40.9401 35.8709 41.0953 35.7898C41.1735 35.7487 41.27 35.7656 41.3298 35.8324C41.7368 36.2883 42.2848 35.8334 42.3078 35.8135C42.3864 35.7473 42.5037 35.7533 42.5744 35.8287C42.7276 35.9921 42.89 36.0734 43.0707 36.0775C43.4011 36.0977 43.7149 35.8034 43.718 35.8009C43.7751 35.7453 43.861 35.7308 43.9334 35.7637C44.5719 36.056 44.907 35.8862 44.9208 35.8782C45.4749 35.4057 45.1547 34.2847 45.1514 34.2733C45.1362 34.222 45.143 34.1668 45.17 34.121C45.1971 34.0749 45.2418 34.042 45.2938 34.03C46.07 33.852 46.5038 33.354 46.7136 33.0237C46.3301 33.02 46.0254 32.8855 45.8458 32.6051C45.5568 32.1522 45.6956 31.4704 46.1998 30.8679C47.0624 29.8371 47.5898 27.751 47.5107 26.9014C47.501 26.7949 47.5792 26.7008 47.6857 26.6906C47.7893 26.6801 47.8863 26.7592 47.8964 26.8656C47.9655 27.6098 47.63 29.1532 47.0176 30.317C47.7934 30.1024 48.5015 29.7884 49.2403 29.4513C49.9746 29.1162 50.7342 28.7699 51.6469 28.4839C53.1895 28.001 54.55 28.3356 55.6924 29.4784C56.2458 30.0319 56.8499 30.4371 57.5496 30.9068C57.8568 31.113 58.1766 31.3276 58.5082 31.5666C59.4075 32.2139 59.3916 32.7544 59.3747 33.3266C59.3697 33.501 59.3641 33.6813 59.3837 33.8766C59.4766 34.8059 58.7377 34.9529 58.3825 35.0234C58.3338 35.033 58.2882 35.042 58.2484 35.0519C58.1982 35.0645 58.1382 35.0768 58.0718 35.0902C57.7111 35.1634 57.1661 35.274 57.0322 35.7357C57.008 35.8184 57.0173 35.8473 57.0173 35.8473C57.0743 35.8732 57.3696 35.8062 57.6047 35.6993C57.6546 35.6765 57.7113 35.6762 57.7615 35.6976C57.8117 35.7191 57.8505 35.761 57.8684 35.8125C57.9369 36.0136 58.0438 36.0478 58.0788 36.0592C58.3227 36.1353 58.7214 35.911 58.8418 35.8255C58.9166 35.7727 59.0175 35.7783 59.085 35.8403C59.2849 36.0229 59.4697 36.1031 59.6359 36.0808C59.8582 36.0499 59.9931 35.8406 59.9946 35.8383C60.0266 35.7866 60.0811 35.7529 60.1416 35.7473C60.2032 35.744 60.2621 35.7657 60.303 35.8105C60.3035 35.8114 60.4729 35.9901 60.8196 36.0995C61.0469 36.1707 61.1043 36.0887 61.123 36.0615C61.2191 35.9213 61.1846 35.5636 60.9973 35.3296C60.7517 35.0226 60.6377 34.5557 60.707 34.1403C60.7705 33.7579 60.9768 33.4461 61.3029 33.2383C61.9007 32.8579 62.0372 32.448 61.999 32.3698C61.988 32.3644 61.923 32.356 61.8711 32.3491C61.6044 32.3138 61.158 32.2548 60.6988 31.407C60.2933 30.6589 60.6856 29.4743 61.1398 28.1023C61.3701 27.4073 61.6082 26.6884 61.7549 25.9832C62.1612 24.0328 60.8841 22.484 60.8712 22.4687C60.8053 22.39 60.812 22.2734 60.8871 22.203C61.7835 21.362 62.169 20.5823 62.032 19.8858C61.8897 19.1595 61.1863 18.6517 60.6274 18.4377C59.9309 18.1707 58.66 18.3224 57.4305 18.4686C56.4032 18.5906 55.4323 18.7064 54.8054 18.5755C54.4825 18.5077 54.246 18.3546 54.1025 18.1206C53.9843 17.9277 53.9554 17.7164 53.9564 17.5516C53.645 17.6686 53.4347 17.9571 53.4323 17.9605C53.3968 18.0103 53.3394 18.0404 53.2785 18.0415C53.202 18.0385 53.1588 18.0149 53.1216 17.9667C52.9632 17.7619 52.8994 17.5361 52.9328 17.295C52.9754 16.9834 53.1766 16.7154 53.3414 16.5426C52.6207 16.2895 52.0683 16.8936 52.0428 16.9223C51.9798 16.9921 51.8762 17.0069 51.7966 16.9589C51.4489 16.7452 51.2334 16.3257 51.247 15.8903C51.2601 15.4792 51.4722 15.1345 51.8286 14.9452C52.0728 14.8156 52.3072 14.7917 52.5244 14.8737C52.731 14.9515 52.876 15.1123 52.9672 15.2488C53.2309 14.9481 53.2531 14.429 53.2531 14.423C53.2547 14.371 53.2764 14.3219 53.3147 14.2866C53.3526 14.2513 53.4051 14.2291 53.4549 14.2347C53.9133 14.2536 54.2694 14.4192 54.5127 14.7267C54.8452 15.1475 54.8764 15.7319 54.8569 16.0937C55.5894 15.7199 55.4965 14.8569 55.4918 14.8166C55.4841 14.7499 55.511 14.6842 55.5632 14.6425C55.6154 14.601 55.6849 14.5879 55.7488 14.6113C56.526 14.8855 56.8088 15.5786 56.8754 16.0944C57.0954 15.8844 57.0987 15.615 57.0987 15.6115C57.0987 15.5231 57.1587 15.4459 57.2444 15.424C57.331 15.4024 57.4198 15.4411 57.4623 15.5187C57.7621 16.0667 58.2193 16.4079 58.5539 16.5987L58.3235 16.0402C58.2923 15.9645 58.3119 15.8774 58.3726 15.8226C58.4335 15.7676 58.5225 15.7571 58.5942 15.796C58.9777 16.0024 59.2814 16.2361 59.6029 16.4838C59.9907 16.7824 60.3918 17.0909 60.9566 17.3563C61.5082 17.6157 61.8802 17.5663 62.0943 17.4796C62.3161 17.39 62.4428 17.2321 62.484 17.1239C62.5619 16.9195 62.5846 16.6258 62.4596 16.4311C62.3792 16.3053 62.2432 16.2358 62.0555 16.2234Z" fill="#FFD250"/>
<path d="M39.1973 19.0074C39.1977 19.0076 39.1979 19.0079 39.1979 19.0079C39.1989 19.0082 39.1994 19.008 39.1999 19.0082C39.2142 19.0129 40.6619 19.4697 41.9762 19.548C42.0483 19.5523 42.1123 19.5967 42.1415 19.6628C42.1707 19.729 42.161 19.8063 42.1156 19.8626L42.0697 19.9197C42.3304 19.8807 42.6583 19.8445 42.9799 19.8432C42.8482 19.6864 42.6842 19.4869 42.5159 19.2779C42.1644 19.2714 40.8782 19.2155 39.8314 18.7111C39.5772 18.5878 39.1376 18.3749 38.9286 18.4826C38.8925 18.5012 38.833 18.5885 38.8429 18.6957C38.8559 18.8316 38.9814 18.9425 39.1973 19.0074Z" fill="#FFD250"/>
<path d="M43.5594 16.209C43.5392 16.209 43.5209 16.2111 43.5047 16.2161C43.4202 16.2415 43.3774 16.337 43.3659 16.4115C43.3519 16.5069 43.3761 16.6351 43.4868 16.7092C43.6315 16.8053 43.7862 16.7395 43.8743 16.6526C43.9021 16.6255 44.035 16.4833 43.9369 16.3277L43.9366 16.3273C43.7852 16.2575 43.6524 16.209 43.5594 16.209Z" fill="#FFD250"/>
<path d="M41.6592 20.8767C41.753 21.1002 41.8985 21.2735 42.0188 21.3897C42.0645 21.2908 42.1341 21.1882 42.2397 21.1112C42.343 21.036 42.5222 20.9626 42.7846 21.0172C42.7887 21.0175 42.7923 21.0184 42.7965 21.0188C42.804 21.0205 42.8099 21.0198 42.8176 21.0217C42.8244 21.0233 42.8286 21.0287 42.8354 21.0306C42.8447 21.0338 42.8545 21.0341 42.8634 21.0391C42.8701 21.0427 42.8743 21.0489 42.8803 21.0532C42.979 21.0952 43.0614 21.1628 43.1051 21.2649C43.2517 21.6072 42.9936 22.2716 42.7658 22.7444C42.9268 22.6647 43.0809 22.584 43.1642 22.5395C43.2221 22.5083 43.2922 22.5087 43.3497 22.5411C43.4076 22.5731 43.4448 22.6323 43.4489 22.6979L43.5036 23.5615C43.8063 23.2424 44.0448 22.8958 44.0478 22.8912C44.0896 22.8299 44.162 22.7992 44.2359 22.8089C44.3093 22.8198 44.3698 22.8714 44.3921 22.942L44.613 23.6395C44.9222 23.3552 45.1916 22.9745 45.1948 22.9696C45.2324 22.9167 45.2937 22.8885 45.3582 22.8873C45.4229 22.889 45.4828 22.9231 45.5173 22.978L45.8502 23.509L46.3254 22.5588C46.36 22.4896 46.4251 22.4459 46.5096 22.4519C46.5868 22.4562 46.6536 22.5059 46.6805 22.5786L47.1141 23.7577L47.9603 23.2237C48.0244 23.1828 48.1056 23.1839 48.1697 23.2257C48.4457 23.4064 48.8698 23.523 49.1371 23.583L49.0649 22.8251C49.0599 22.7711 49.0775 22.7178 49.1135 22.6776C49.1496 22.6374 49.2006 22.6137 49.2547 22.613L49.7389 22.6057C49.6225 22.4878 49.5262 22.3738 49.4791 22.316C49.4475 22.2776 49.435 22.2306 49.437 22.1845C49.0803 22.1693 48.5832 22.1057 48.0862 21.8912L47.7904 22.3473C47.7621 22.391 47.7177 22.4212 47.667 22.4315C47.6542 22.4343 47.6411 22.4356 47.6282 22.4356C47.5901 22.4356 47.5525 22.4243 47.5203 22.4027L46.402 21.6524L46.1965 22.2118C46.1729 22.2761 46.1171 22.323 46.0498 22.3353C45.9826 22.3485 45.9139 22.3237 45.8688 22.2724C45.6767 22.052 45.3749 21.7142 45.1955 21.5289C45.0338 21.6847 44.7502 21.9361 44.447 22.1044C44.3977 22.1319 44.3386 22.1361 44.2859 22.1167C44.233 22.0972 44.1912 22.0557 44.1715 22.0026L43.8648 21.1798C43.8276 21.0796 43.8784 20.968 43.9789 20.9307C44.0786 20.8935 44.1906 20.9447 44.228 21.0447L44.4515 21.6449C44.776 21.4196 45.0467 21.1294 45.05 21.1258C45.1191 21.0514 45.2341 21.0426 45.3128 21.1061C45.4256 21.1964 45.7315 21.5333 45.9451 21.7729L46.1234 21.2874C46.1437 21.2316 46.1889 21.1882 46.2454 21.1702C46.3014 21.1507 46.3636 21.1599 46.4131 21.1934L47.5728 21.9715L47.8532 21.5393C47.9072 21.4561 48.0151 21.427 48.1021 21.4715C48.6169 21.7289 49.1726 21.7912 49.5274 21.8006C49.311 21.3961 49.2919 20.8833 49.2906 20.7628C49.0008 20.6349 48.6446 20.4418 48.2862 20.1472L48.1468 20.4916C48.1244 20.5465 48.078 20.5883 48.0205 20.6047C47.9634 20.6206 47.9015 20.6103 47.8537 20.5756L47.2942 20.1696L47.2397 20.5889C47.2311 20.654 47.1906 20.71 47.1313 20.7384C47.0726 20.7667 47.0032 20.7638 46.947 20.7294C46.9275 20.7178 46.4672 20.4365 46.1929 20.1278C46.1218 20.048 46.1291 19.9255 46.2091 19.8546C46.2881 19.7835 46.4107 19.7903 46.4824 19.8707C46.5983 20.0011 46.7607 20.1306 46.896 20.2287L46.9523 19.7969C46.9611 19.7291 47.0051 19.6711 47.0677 19.6441C47.1307 19.6169 47.2031 19.6252 47.2582 19.6651L47.8809 20.1168L48.03 19.749C48.054 19.6899 48.1056 19.6464 48.1682 19.6328C48.2303 19.6193 48.2958 19.6371 48.3422 19.681C48.8249 20.1353 49.3473 20.3805 49.6721 20.5009C49.5611 19.9841 49.5189 19.3359 49.5167 19.3018C49.5164 19.297 49.5186 19.2928 49.5186 19.2881C49.2168 19.1217 48.7903 18.835 48.4216 18.3844C48.4198 18.6231 48.4004 18.866 48.3419 19.0194C48.3217 19.0723 48.2796 19.1137 48.2264 19.1329C48.1729 19.1513 48.1139 19.1465 48.0654 19.119C48.0421 19.1055 47.6207 18.8637 47.3071 18.5103C47.253 18.705 47.1879 18.9101 47.1331 19.0017C47.0807 19.0884 46.9713 19.1204 46.8804 19.0752C46.862 19.0662 46.5652 18.9159 46.3008 18.6862C46.2751 18.944 46.2353 19.2353 46.1786 19.3772C46.1583 19.4288 46.1165 19.4688 46.0644 19.4876C46.0122 19.5054 45.9547 19.5014 45.906 19.4753C45.8883 19.4657 45.5523 19.2814 45.2386 19.0477L45.1536 19.3707C45.1388 19.4259 45.1008 19.472 45.0493 19.4964C44.9973 19.5205 44.9382 19.521 44.8862 19.4977C44.8628 19.4871 44.3091 19.2324 43.9938 18.8471C43.9259 18.7644 43.938 18.6424 44.0209 18.575C44.1034 18.5072 44.2257 18.5192 44.2931 18.6022C44.4439 18.7863 44.6745 18.9403 44.8409 19.0369L44.9402 18.6595C44.9576 18.594 45.0075 18.5424 45.0725 18.5232C45.137 18.503 45.2072 18.5199 45.2575 18.5654C45.4425 18.7328 45.6929 18.8975 45.8709 19.0065C45.9088 18.7674 45.9381 18.4219 45.9507 18.1978C45.9557 18.1113 46.0174 18.0386 46.1016 18.0198C46.1869 18.0007 46.2731 18.0406 46.3141 18.1164C46.4206 18.3124 46.6764 18.5034 46.8693 18.6242C46.9222 18.4585 46.9875 18.2143 47.0365 18.0035C47.0554 17.9225 47.1235 17.8629 47.2062 17.8549C47.2889 17.8446 47.3676 17.8919 47.4015 17.9677C47.5224 18.2357 47.8155 18.4807 48.0247 18.6306C48.0474 18.3483 48.0264 17.9471 48.0005 17.6962C47.9909 17.6029 48.0494 17.5162 48.1394 17.4901C48.2314 17.4652 48.3254 17.5067 48.3668 17.5906C48.7562 18.3805 49.4449 18.8181 49.8032 19.0021C49.9985 16.8653 49.3722 16.0477 49.3655 16.0394C49.3304 15.9954 49.3157 15.9376 49.3261 15.8822C49.3367 15.827 49.3702 15.7783 49.419 15.75C49.7668 15.5487 49.9779 15.1809 50.1074 14.8241C49.3201 15.5873 48.0729 15.8805 47.4653 15.9819L47.762 16.3435C47.8072 16.3987 47.8185 16.4744 47.7911 16.5404C47.7637 16.6063 47.7024 16.6518 47.6313 16.6588C46.8869 16.7332 46.3436 16.6347 45.9779 16.5113L46.1045 16.745C46.1378 16.8062 46.1354 16.8809 46.0985 16.9398C46.0617 16.9991 45.9942 17.039 45.9261 17.0306C45.3196 17.0047 44.7889 16.7547 44.3528 16.5339C44.332 16.6763 44.2618 16.8149 44.1449 16.9293C44.0016 17.069 43.8195 17.1413 43.6388 17.1413C43.5109 17.1413 43.3839 17.105 43.2725 17.0306C43.0537 16.8845 42.943 16.6251 42.9836 16.3538C43.0212 16.1045 43.1785 15.9097 43.3942 15.8451C43.6828 15.7594 44.0124 15.9263 44.4292 16.1386C44.76 16.3071 45.1544 16.5079 45.5845 16.5979L45.3449 16.1552C45.3002 16.0728 45.3208 15.9705 45.394 15.9117C45.4674 15.8539 45.5714 15.8554 45.6423 15.9171C45.6466 15.9208 46.1285 16.3167 47.2223 16.2963L46.9464 15.96C46.901 15.9048 46.8899 15.8287 46.9173 15.7627C46.9451 15.6968 47.0069 15.6513 47.0782 15.6445C47.0991 15.6427 48.688 15.4814 49.6655 14.6938C49.3472 14.7869 49.1008 14.7722 49.0819 14.7719C49.0282 14.7676 48.9787 14.7414 48.9454 14.6992C48.4975 14.1364 48.0392 13.9625 47.8082 13.9087C47.6784 14.3176 47.3642 14.6485 47.3489 14.6644C47.3074 14.7075 47.248 14.7287 47.1891 14.7228C47.1295 14.7165 47.0763 14.6832 47.0445 14.6324C46.6992 14.0756 46.2012 13.9293 45.9119 13.8931C45.9474 14.3046 45.6598 14.6425 45.4684 14.7832C45.394 14.8371 45.2924 14.8323 45.2246 14.7716C44.3937 14.0289 43.752 14.2486 43.4924 14.397C43.5744 14.6006 43.5358 14.767 43.4802 14.8795C43.0835 15.6834 40.6291 15.8451 40.141 15.8693C40.0805 15.8736 40.0198 15.846 39.9809 15.7978C39.9418 15.7496 39.9285 15.6859 39.9443 15.6262C39.98 15.4923 39.9561 15.3479 39.8772 15.2189C39.7965 15.0871 39.6671 14.9911 39.5316 14.962C39.404 14.935 39.1606 14.9524 39.0151 15.112C38.8487 15.295 38.8374 15.6334 38.9822 16.0908C39.242 16.9119 40.0426 17.7209 40.5409 18.1643C40.5363 18.0622 40.5393 17.9871 40.5405 17.9683C40.5448 17.8856 40.601 17.8148 40.6807 17.7922C40.7605 17.7689 40.8454 17.7995 40.8928 17.8674C41.0579 18.1047 41.2548 18.2649 41.4027 18.3631L41.4998 17.7437C41.5134 17.658 41.5823 17.5916 41.6684 17.5814C41.7541 17.5741 41.8369 17.6198 41.87 17.7002C42.0454 18.1263 43.156 19.4602 43.5691 19.9383C43.622 19.9992 43.6313 20.0866 43.5924 20.1576C43.5536 20.2281 43.4752 20.2662 43.3951 20.2565C42.6874 20.1556 41.6478 20.3911 41.6375 20.3934C41.5572 20.412 41.4739 20.3775 41.43 20.3077C41.3864 20.2379 41.3915 20.148 41.4432 20.0835L41.5864 19.9052C40.6039 19.8031 39.6472 19.5448 39.2605 19.4318L38.9355 20.3146L39.8112 20.2271C39.8772 20.2188 39.9451 20.2495 39.9853 20.304C40.0263 20.3585 40.0353 20.43 40.0095 20.4931L39.8444 20.8966L40.5657 20.7058C40.6612 20.6793 40.7593 20.7304 40.7955 20.8217C40.891 21.0637 41.0082 21.2227 41.1018 21.3213L41.305 20.8722C41.337 20.8021 41.4068 20.7531 41.4841 20.7586C41.5604 20.759 41.6293 20.8055 41.6592 20.8767Z" fill="#FFD250"/>
<path d="M39.1516 30.7772C39.9152 31.2872 40.5325 30.7054 40.8623 30.2574C40.1588 29.7442 39.6465 29.1127 39.3442 28.3608C39.2453 28.1152 39.1811 27.8668 39.1309 27.6188C39.059 27.5625 37.9967 26.721 37.1068 25.7373C37.0613 25.8559 37.0017 25.9501 36.9533 26.0137C37.0158 26.268 36.955 26.4756 36.8768 26.6087C36.9307 26.79 36.8873 26.9698 36.8245 27.101C36.9592 27.3042 36.9836 27.5031 36.8974 27.6942C36.8776 27.738 36.851 27.7784 36.8232 27.818C36.934 27.9516 37.1081 28.2575 37.1081 28.8731C37.1081 29.287 37.2614 29.5354 37.3758 29.663C37.4426 29.6052 37.5158 29.5728 37.5962 29.5642C37.8404 29.537 38.041 29.7459 38.3153 30.034C38.5301 30.26 38.7972 30.541 39.1516 30.7772Z" fill="#FFD250"/>
<path d="M35.3535 25.5286C35.3392 25.5286 35.3247 25.5283 35.3104 25.5283C35.032 25.5257 34.7774 25.498 34.5429 25.4529C34.5203 25.5176 34.5684 25.7056 34.6186 25.7442C34.668 25.7821 34.701 25.8448 34.6993 25.907C34.6976 25.9691 34.6708 26.0301 34.6195 26.0651C34.5864 26.0883 34.4881 26.1762 34.4868 26.2617C34.4855 26.3453 34.5841 26.4316 34.6431 26.4759C34.6861 26.5081 34.7139 26.5571 34.7195 26.6106C34.7251 26.6642 34.7082 26.7177 34.6725 26.7584C34.6477 26.7878 34.5765 26.8956 34.5888 26.986C34.5914 27.0052 34.5994 27.0637 34.7003 27.1322C34.7439 27.1619 34.7737 27.2084 34.7826 27.2606C34.7912 27.3128 34.778 27.3662 34.7462 27.4085C34.7465 27.4085 34.6922 27.4879 34.7129 27.5669C34.7361 27.6544 34.8451 27.7216 34.9321 27.7625C35.0951 27.8392 35.3296 27.8886 35.5741 27.8982C35.5815 27.8969 35.5891 27.898 35.5967 27.8977C35.8028 27.9037 36.0144 27.8837 36.1951 27.817C36.3724 27.7516 36.49 27.6569 36.5448 27.5353C36.5619 27.4974 36.5976 27.4187 36.4452 27.2408C36.3857 27.1712 36.3829 27.0699 36.4385 26.997C36.4387 26.9966 36.5678 26.819 36.4883 26.6774C36.4456 26.6014 36.4586 26.5067 36.52 26.4455C36.5313 26.4329 36.6515 26.2914 36.5564 26.0374C36.5289 25.9643 36.5481 25.8819 36.605 25.8283C36.612 25.8213 36.7872 25.639 36.7833 25.3619C36.7595 25.333 36.7358 25.3039 36.7127 25.2749C36.3379 25.4339 35.8783 25.5286 35.3535 25.5286Z" fill="#FFD250"/>
<path d="M37.1245 12.0327C36.3415 12.4538 34.6718 13.774 34.6235 17.3883L34.6666 23.479C34.6718 23.4875 34.6792 23.4963 34.6835 23.5046C34.7845 23.6952 34.7367 23.9423 34.6801 24.1134C35.1638 24.2862 35.767 24.2153 36.0256 24.1513C35.9739 24.0003 35.9332 23.7564 36.1082 23.4802C36.081 16.2169 36.7736 13.1269 37.1245 12.0327Z" fill="#FFD250"/>
<path d="M37.2051 24.2375C37.2051 23.9279 36.9716 23.6869 36.7408 23.6088C36.693 23.5923 36.53 23.5471 36.4554 23.6451C36.3154 23.8281 36.3651 23.9575 36.4127 24.0828C36.4393 24.1525 36.4668 24.2243 36.4462 24.3065C36.42 24.4113 36.3244 24.4544 36.293 24.4687C36.0303 24.5879 35.0314 24.7443 34.3412 24.388C34.2477 24.3395 34.2098 24.2252 34.2562 24.1303C34.329 23.9811 34.382 23.762 34.3415 23.6859C34.3382 23.6796 34.3292 23.6623 34.2746 23.655C34.2231 23.6479 34.1719 23.6444 34.1211 23.6444C33.8855 23.6444 33.6668 23.7185 33.5487 23.845C33.4536 23.9469 33.4239 24.0765 33.4579 24.2409C33.5727 24.7951 34.2665 25.1313 35.3138 25.1409C36.0547 25.1383 36.692 24.9635 37.0101 24.648C37.1397 24.5199 37.2051 24.3819 37.2051 24.2375Z" fill="#FFD250"/>
<path d="M35.5387 28.831C35.5835 28.7719 35.6574 28.7436 35.7304 28.7587C35.8651 28.7869 36.1996 28.8579 36.3916 28.7089C36.4587 28.6574 36.4739 28.5171 36.4224 28.4255C36.4046 28.3939 36.351 28.2989 36.1494 28.3761C35.9585 28.4497 35.6845 28.5294 35.5124 28.3746C35.4779 28.3437 35.4561 28.3075 35.4395 28.2704C35.3877 28.266 35.3362 28.2631 35.2854 28.2554C35.269 28.298 35.2462 28.3395 35.2073 28.3746C35.0359 28.5291 34.7616 28.4497 34.5706 28.3761C34.3696 28.2997 34.3151 28.394 34.2976 28.4255C34.2461 28.5171 34.261 28.6574 34.3279 28.7085C34.5202 28.8567 34.855 28.7866 34.9649 28.7635C35.0363 28.7491 35.1237 28.7738 35.1694 28.8323C35.2147 28.8914 35.2339 28.9683 35.2006 29.0347C35.1569 29.1219 34.9674 29.4926 34.7821 29.7241C35.0242 30.0781 35.2338 30.7089 34.7427 31.2702C34.7027 31.3156 34.6404 31.3383 34.5826 31.3358C34.5221 31.3312 34.4669 31.2986 34.4342 31.2474C34.4063 31.205 34.3079 31.0875 34.1993 31.0664C34.1664 31.0601 34.1147 31.0575 34.0396 31.1087C33.989 31.1438 33.9605 31.2597 34.0033 31.3866C34.0797 31.6135 34.3172 31.7394 34.6522 31.7238C34.7283 31.7162 34.8107 31.7686 34.8414 31.8456C34.8719 31.9224 34.8503 32.0103 34.7875 32.0641L34.4719 32.3348L34.9872 32.4603C35.0556 32.4769 35.1094 32.5294 35.1282 32.5972C35.129 32.6005 35.206 32.875 35.3601 33.1067C35.5139 32.875 35.5911 32.6005 35.5918 32.5972C35.6104 32.5294 35.6645 32.4769 35.7327 32.4603L36.2481 32.3348L35.9322 32.0641C35.8693 32.0104 35.8477 31.9224 35.8782 31.8456C35.9087 31.7687 35.9855 31.7171 36.0675 31.7238C36.3986 31.7385 36.64 31.6135 36.7167 31.3863C36.7595 31.2597 36.731 31.1438 36.6803 31.1087C36.6042 31.0571 36.5518 31.0596 36.5195 31.0665C36.4072 31.0892 36.3065 31.2149 36.2856 31.2472C36.2527 31.2984 36.1976 31.3312 36.1372 31.3356C36.0744 31.3389 36.0169 31.3159 35.9771 31.2701C35.4862 30.7089 35.6961 30.0779 35.938 29.724C35.7527 29.4925 35.5632 29.122 35.5195 29.0346C35.4863 28.9689 35.4939 28.8897 35.5387 28.831Z" fill="#FFD250"/>
<path d="M62.7853 16.2214C62.6819 16.0603 62.4757 15.8631 62.0806 15.8374C61.8061 15.8176 61.586 15.8914 61.4259 16.0516C61.2971 16.1799 61.235 16.3389 61.2055 16.4732C60.9414 16.3343 60.5188 16.0247 60.0775 15.7013C58.7925 14.7595 56.8507 13.3363 54.9447 13.0952C53.3989 12.8987 51.6405 13.2071 50.6737 14.1042C50.6883 13.9856 50.6926 13.9062 50.6932 13.8926C50.6933 13.89 50.6912 13.8882 50.6912 13.8854C50.6915 13.8492 50.6815 13.8155 50.6631 13.7853C50.6591 13.7788 50.655 13.774 50.6503 13.768C50.6288 13.7401 50.6019 13.716 50.5664 13.7029C50.5659 13.7026 50.5654 13.7017 50.5647 13.7016H50.5641C50.5277 13.6888 50.4909 13.6908 50.4558 13.6991C50.4491 13.7007 50.4432 13.7019 50.4367 13.704C50.4029 13.7159 50.3731 13.7358 50.3502 13.7644C50.3487 13.7663 50.3459 13.7664 50.3445 13.7684C49.9429 14.3075 49.3919 14.3785 49.1887 14.3852C48.4637 13.5243 47.6975 13.4975 47.6644 13.4968C47.5534 13.5041 47.4829 13.5657 47.4686 13.6619C47.4382 13.8664 47.3193 14.0689 47.2187 14.2094C46.5799 13.4151 45.6805 13.4947 45.6404 13.498C45.5782 13.504 45.5229 13.5398 45.4917 13.594C45.4608 13.6479 45.4576 13.7136 45.4833 13.7707C45.5986 14.0242 45.4588 14.2451 45.3474 14.3679C44.0897 13.36 43.1219 14.1812 43.1117 14.1902C43.0379 14.2549 43.024 14.3651 43.08 14.4457C43.1737 14.5817 43.1572 14.6566 43.1322 14.7073C42.9287 15.1197 41.4524 15.3887 40.3468 15.4676C40.341 15.3121 40.2936 15.1573 40.2069 15.0154C40.0697 14.7914 39.8529 14.6338 39.6121 14.582C39.3444 14.5237 38.9678 14.5853 38.7279 14.8502C38.4596 15.1451 38.4211 15.6014 38.6125 16.2065C38.9119 17.1519 39.8104 18.0412 40.3345 18.499C40.2069 18.4517 40.0803 18.4002 39.9576 18.3413C39.6492 18.1911 39.1325 17.9397 38.7507 18.1381C38.5582 18.2377 38.4348 18.4871 38.4573 18.7308C38.4686 18.8528 38.5368 19.1271 38.8941 19.3022L38.4643 20.4698C38.4414 20.5323 38.4521 20.6024 38.4931 20.6551C38.5337 20.7079 38.5986 20.7365 38.6653 20.7292L39.5285 20.643L39.3381 21.1086C39.3103 21.1767 39.3234 21.2547 39.3719 21.3098C39.4204 21.3647 39.4941 21.3892 39.567 21.369L40.5041 21.1209C40.7462 21.6181 41.069 21.7921 41.0841 21.7999C41.1318 21.8252 41.1867 21.8289 41.2369 21.8114C41.2873 21.7941 41.3285 21.7568 41.3504 21.7083L41.4996 21.3778C41.6544 21.5944 41.8217 21.738 41.9252 21.8173C41.8622 21.8694 41.8001 21.9206 41.7319 21.9761C41.0813 22.5055 40.1903 23.2308 39.5499 24.4706C39.2282 25.0932 38.9777 26.0429 39.0525 27.0531C38.5861 26.6611 37.7067 25.8834 37.0592 25.0874C37.1372 25.0342 37.2201 24.984 37.2827 24.9222C37.4852 24.7219 37.5921 24.4845 37.5921 24.2367C37.5921 23.7219 37.2149 23.3596 36.8646 23.2411C36.7343 23.1972 36.6088 23.1906 36.4946 23.2101C36.4833 14.7713 37.4444 12.1878 37.6396 11.7527C37.6703 11.6838 37.6585 11.6031 37.6088 11.5462C37.5594 11.4895 37.4808 11.4665 37.4085 11.4878C37.2817 11.525 34.3018 12.4559 34.2361 17.3865L34.2776 23.2689C33.8731 23.2262 33.4891 23.3413 33.2654 23.5801C33.1384 23.716 33.003 23.9544 33.0783 24.3192C33.1786 24.8033 33.569 25.1606 34.1683 25.3569C34.1518 25.4204 34.1462 25.4922 34.1542 25.5726C34.1635 25.6672 34.193 25.7843 34.2477 25.8857C34.1746 25.9728 34.1027 26.0975 34.099 26.251C34.0956 26.3989 34.1544 26.5379 34.2744 26.6651C34.2271 26.7606 34.1857 26.8898 34.2039 27.0331C34.2149 27.1183 34.2508 27.2315 34.3518 27.341C34.3234 27.4254 34.3058 27.5359 34.3362 27.6573C34.3673 27.7828 34.4453 27.8907 34.561 27.9828C34.2646 27.9279 34.0562 28.0617 33.9588 28.2357C33.8123 28.4968 33.8717 28.8468 34.091 29.0155C34.2697 29.1528 34.4822 29.1968 34.6758 29.1866C34.5772 29.3534 34.473 29.5077 34.4075 29.5589C34.3649 29.5919 34.3378 29.6412 34.3334 29.6948C34.3287 29.7485 34.3465 29.8017 34.3827 29.8418C34.4029 29.8641 34.8252 30.3398 34.5738 30.8342C34.4961 30.7704 34.3955 30.7107 34.2759 30.6864C34.1203 30.6548 33.9629 30.6907 33.8197 30.789C33.6153 30.9292 33.5393 31.2254 33.6351 31.5094C33.7085 31.727 33.8915 31.9501 34.2039 32.0529L33.9322 32.2859C33.877 32.3331 33.8531 32.4075 33.8699 32.478C33.8868 32.5486 33.9418 32.6038 34.0123 32.621L34.7891 32.8103C34.8486 32.981 34.9847 33.3105 35.2121 33.5378C35.2484 33.5742 35.3174 33.5945 35.3689 33.5945C35.4204 33.5945 35.4695 33.5742 35.5058 33.5378C35.7332 33.3105 35.8694 32.981 35.9287 32.8103L36.7055 32.621C36.7761 32.6038 36.831 32.5487 36.8479 32.478C36.8648 32.4072 36.8406 32.3331 36.7857 32.2859L36.5139 32.0529C36.8262 31.9498 37.0094 31.7269 37.0827 31.5094C37.1786 31.2252 37.1026 30.9289 36.8981 30.789C36.7546 30.6904 36.5964 30.655 36.4418 30.6864C36.3224 30.7106 36.2221 30.7701 36.1441 30.8339C35.8968 30.3423 36.3155 29.8635 36.3358 29.8412C36.3716 29.8011 36.3893 29.7479 36.3845 29.6945C36.3797 29.641 36.3528 29.5918 36.3106 29.5589C36.2452 29.508 36.1415 29.354 36.0429 29.1872C36.2364 29.1889 36.4477 29.1537 36.6271 29.0152C36.6665 28.985 36.6944 28.9435 36.7231 28.9033C36.7369 29.753 37.2754 30.0893 37.2988 30.1035C37.3905 30.1581 37.5082 30.1292 37.5635 30.0381C37.6091 29.9637 37.6363 29.9494 37.6357 29.9485C37.7038 29.9522 37.8948 30.1534 38.0345 30.3C38.2623 30.5397 38.5461 30.8383 38.9365 31.0984C39.2225 31.2893 39.4929 31.3644 39.7413 31.3644C40.4384 31.3644 40.9605 30.7762 41.1833 30.474C41.6174 30.7463 42.1096 30.9827 42.6708 31.1744C42.6899 31.181 42.7094 31.1836 42.7287 31.184C42.7957 31.4014 42.8688 31.6201 42.9443 31.837C43.1866 32.532 43.437 33.2508 43.3385 33.7965C43.2113 34.5038 42.0923 34.5109 41.5172 34.4142C41.108 34.3475 40.7284 34.4523 40.4498 34.712C40.1713 34.9722 40.0277 35.3654 40.0667 35.7642C40.0937 36.0428 40.2332 36.1738 40.3458 36.2346C40.6042 36.3736 40.9536 36.2697 41.1435 36.192C41.5795 36.5717 42.1009 36.4124 42.4164 36.2118C42.6104 36.3739 42.8267 36.4589 43.0609 36.464C43.0687 36.4643 43.0762 36.4643 43.0841 36.4643C43.4381 36.4643 43.7359 36.278 43.8848 36.164C44.6347 36.4674 45.0635 36.2412 45.1386 36.1947C45.7474 35.6811 45.6473 34.758 45.5679 34.3567C46.8191 33.9778 47.2223 32.8904 47.2398 32.8422C47.264 32.7744 47.2486 32.6987 47.2 32.6456C47.1509 32.5928 47.0759 32.5715 47.0071 32.5899C46.6214 32.6935 46.3168 32.623 46.1717 32.3959C45.9752 32.0887 46.1026 31.5859 46.4962 31.1158C46.5787 31.017 46.6569 30.9079 46.7333 30.7941C47.7002 30.5779 48.5261 30.2019 49.4005 29.8031C50.1242 29.4732 50.8728 29.1318 51.7624 28.8529C52.0118 28.7747 52.2542 28.7287 52.4932 28.6977C52.4209 29.7466 52.9589 30.4377 53.4873 31.1026C53.6332 31.286 53.7792 31.4693 53.9114 31.6608C54.478 32.4813 54.3692 34.2017 54.3233 34.357C54.2831 34.4453 53.9034 34.8319 53.3651 34.758C52.9178 34.6985 52.4172 34.8459 52.089 35.1332C51.8549 35.3381 51.726 35.6017 51.726 35.8749C51.726 36.1079 51.8378 36.2235 51.932 36.2796C52.2124 36.4461 52.6765 36.268 52.9251 36.1489C53.1575 36.3285 53.3961 36.3948 53.6166 36.3948C53.8909 36.3948 54.1375 36.2926 54.3104 36.1793C54.8295 36.5072 55.3733 36.3152 55.6763 36.1084C56.056 36.3145 56.3612 36.2737 56.558 36.1963C56.6219 36.1713 56.6803 36.1395 56.7334 36.1037C56.7413 36.1119 56.7484 36.1229 56.7564 36.1296C56.9625 36.3069 57.3436 36.2125 57.5876 36.124C57.6986 36.3078 57.8454 36.3906 57.9615 36.4275C58.32 36.5417 58.7317 36.3452 58.9388 36.2226C59.1902 36.4169 59.4399 36.4986 59.6895 36.4636C59.9095 36.4331 60.0755 36.3149 60.1824 36.2113C60.2964 36.2933 60.4695 36.3943 60.7033 36.4682C60.8065 36.5011 60.8972 36.5142 60.9768 36.5142C61.2466 36.5142 61.3874 36.3604 61.4426 36.2801C61.6666 35.9532 61.5498 35.3996 61.2998 35.0871C61.1523 34.9028 61.0298 34.5579 61.0889 34.2033C61.1206 34.0142 61.219 33.75 61.5106 33.5645C62.0366 33.2299 62.3817 32.7769 62.3897 32.4108C62.3931 32.2596 62.3357 32.1348 62.2276 32.0592C62.1321 31.9924 62.0253 31.9783 61.9218 31.9647C61.6915 31.9342 61.4044 31.8963 61.0393 31.2219C60.7139 30.6208 61.0992 29.4564 61.5077 28.2234C61.7412 27.5178 61.9829 26.7883 62.1341 26.0617C62.5087 24.2633 61.6057 22.8143 61.2788 22.3632C62.1881 21.4688 62.5694 20.6104 62.4123 19.8103C62.2395 18.9286 61.4174 18.3247 60.7664 18.0753C59.9793 17.7737 58.6604 17.9305 57.385 18.0833C56.3904 18.2024 55.4501 18.3152 54.8853 18.1956C54.6719 18.151 54.5201 18.0583 54.4342 17.9198C54.285 17.679 54.365 17.3625 54.3657 17.3592C54.3813 17.2999 54.3677 17.2361 54.3293 17.1885C54.2908 17.1408 54.2272 17.1104 54.1708 17.1162C53.7998 17.1311 53.5042 17.3379 53.3216 17.5086C53.311 17.4566 53.3093 17.4032 53.3169 17.348C53.3671 16.9759 53.7956 16.6506 53.7998 16.6475C53.851 16.609 53.8802 16.5473 53.877 16.4831C53.874 16.419 53.8394 16.3606 53.7845 16.3271C52.9958 15.8468 52.2595 16.2025 51.8826 16.5366C51.7234 16.3806 51.6274 16.142 51.6348 15.9017C51.6395 15.7439 51.6953 15.454 52.0107 15.2864C52.1533 15.2104 52.276 15.1938 52.3871 15.2347C52.5731 15.304 52.6968 15.5326 52.7288 15.6152C52.7491 15.668 52.7922 15.7094 52.8454 15.728C52.8989 15.7475 52.9583 15.7416 53.0071 15.7129C53.4388 15.4611 53.5769 14.9321 53.6206 14.6386C53.8745 14.68 54.0681 14.7877 54.2087 14.9651C54.6033 15.4628 54.4419 16.3393 54.4404 16.3482C54.4278 16.4137 54.4499 16.4809 54.4986 16.5264C54.5472 16.5718 54.6161 16.5887 54.6806 16.5718C55.5568 16.337 55.8373 15.6255 55.8805 15.0995C56.5505 15.5167 56.5049 16.3796 56.5023 16.4201C56.498 16.4868 56.5282 16.5511 56.5821 16.5898C56.6362 16.6289 56.7063 16.6372 56.7682 16.6126C57.0888 16.4825 57.2662 16.2709 57.3647 16.0756C57.9746 16.8754 58.8225 17.153 58.8632 17.1663C58.935 17.1882 59.0131 17.1683 59.0643 17.1128C59.1153 17.0574 59.1297 16.9774 59.101 16.9079L58.9117 16.449C59.0658 16.5576 59.2141 16.672 59.3667 16.7894C59.771 17.1005 60.1888 17.4223 60.7918 17.7056C61.4697 18.0241 61.9527 17.9527 62.2396 17.8378C62.5256 17.722 62.7524 17.5063 62.8461 17.2605C62.9554 16.9741 62.9966 16.5503 62.7853 16.2214ZM62.4841 17.1234C62.4431 17.2315 62.3163 17.3895 62.0944 17.4791C61.8803 17.5658 61.5083 17.6151 60.9567 17.3557C60.3918 17.0903 59.9906 16.7817 59.603 16.4832C59.2815 16.2357 58.9778 16.002 58.5943 15.7954C58.5228 15.7567 58.4338 15.7671 58.3727 15.822C58.3119 15.8767 58.2923 15.964 58.3236 16.0397L58.554 16.5981C58.2194 16.4073 57.7621 16.0661 57.4624 15.5181C57.42 15.4405 57.331 15.4017 57.2445 15.4234C57.1588 15.4453 57.0988 15.5226 57.0988 15.611C57.0988 15.6144 57.0955 15.884 56.8755 16.0939C56.8088 15.5781 56.5261 14.8852 55.7488 14.6107C55.685 14.5875 55.6155 14.6004 55.5633 14.6419C55.511 14.6837 55.4841 14.7497 55.4919 14.816C55.4966 14.8562 55.5894 15.7193 54.857 16.0932C54.8768 15.7315 54.8454 15.147 54.5128 14.7262C54.2695 14.4186 53.9135 14.253 53.455 14.2341C53.4052 14.2286 53.3527 14.2507 53.3147 14.2861C53.2767 14.3214 53.2548 14.3705 53.2532 14.4224C53.2532 14.4284 53.2309 14.9475 52.9673 15.2483C52.876 15.1119 52.7311 14.951 52.5245 14.8731C52.3073 14.7911 52.0729 14.8152 51.8287 14.9447C51.4721 15.134 51.2601 15.4787 51.2471 15.8897C51.2335 16.3251 51.4489 16.7446 51.7966 16.9584C51.8763 17.0066 51.9799 16.9917 52.0429 16.9218C52.0684 16.893 52.6208 16.2889 53.3415 16.542C53.1767 16.7149 52.9755 16.983 52.9329 17.2945C52.8995 17.5355 52.9633 17.7614 53.1217 17.9661C53.1588 18.0143 53.2021 18.038 53.2785 18.041C53.3395 18.04 53.3967 18.0098 53.4323 17.96C53.4349 17.9565 53.6451 17.6681 53.9565 17.551C53.9552 17.7159 53.9842 17.9271 54.1025 18.1201C54.2461 18.354 54.4824 18.5071 54.8055 18.5749C55.4323 18.7059 56.4033 18.5901 57.4306 18.4681C58.6601 18.3218 59.931 18.1702 60.6275 18.4372C61.1864 18.6512 61.8898 19.1589 62.0321 19.8853C62.1691 20.5818 61.7836 21.3616 60.8872 22.2025C60.8121 22.2727 60.8052 22.3896 60.8713 22.4682C60.884 22.4835 62.1613 24.0322 61.755 25.9827C61.6083 26.6878 61.3702 27.4068 61.1399 28.1017C60.6857 29.4736 60.2937 30.6583 60.6989 31.4065C61.158 32.2544 61.6045 32.3132 61.8712 32.3486C61.9231 32.3553 61.9878 32.3639 61.9991 32.3693C62.0374 32.4474 61.9008 32.8573 61.303 33.2378C60.9768 33.4456 60.7706 33.7573 60.7071 34.1398C60.6379 34.5552 60.7518 35.0222 60.9974 35.3291C61.1847 35.563 61.2191 35.9209 61.1231 36.0608C61.1042 36.088 61.047 36.17 60.8197 36.0989C60.473 35.9891 60.3036 35.8104 60.3031 35.8098C60.2622 35.7651 60.2034 35.7432 60.1417 35.7465C60.0809 35.752 60.0264 35.7858 59.9946 35.8375C59.9931 35.8396 59.8583 36.0491 59.6359 36.08C59.4698 36.1024 59.285 36.022 59.0851 35.8395C59.0175 35.7778 58.9167 35.7722 58.8418 35.8247C58.7215 35.9101 58.3227 36.1345 58.0789 36.0584C58.0439 36.0471 57.937 36.0127 57.8685 35.8117C57.8506 35.76 57.8118 35.7183 57.7616 35.6968C57.7114 35.6753 57.6547 35.6756 57.6048 35.6985C57.3695 35.8054 57.0742 35.8725 57.0174 35.8468C57.0174 35.8468 57.0081 35.8176 57.0323 35.7349C57.1662 35.2731 57.7112 35.1625 58.0719 35.0894C58.1382 35.076 58.1983 35.0637 58.2485 35.0511C58.2883 35.0413 58.3339 35.0322 58.3825 35.0226C58.7378 34.9521 59.4767 34.805 59.3838 33.8758C59.3641 33.6805 59.3698 33.5002 59.3748 33.3258C59.3917 32.7535 59.4077 32.2131 58.5083 31.5658C58.1767 31.3267 57.8569 31.1122 57.5497 30.906C56.8501 30.4363 56.2459 30.0311 55.6925 29.4776C54.5502 28.3348 53.1897 28 51.647 28.4831C50.7344 28.7689 49.9748 29.1153 49.2403 29.4504C48.5016 29.7875 47.7935 30.1016 47.0177 30.3162C47.6301 29.1522 47.9655 27.6088 47.8965 26.8648C47.8864 26.7584 47.7894 26.6792 47.6858 26.6898C47.5793 26.7 47.501 26.7941 47.5108 26.9006C47.5899 27.7502 47.0625 29.8363 46.1999 30.8671C45.6958 31.4696 45.5568 32.1515 45.8459 32.6042C46.0254 32.8848 46.3301 33.0192 46.7137 33.0229C46.5041 33.3531 46.0699 33.8513 45.2939 34.0292C45.2419 34.0414 45.1971 34.074 45.1701 34.1202C45.1431 34.1661 45.1363 34.2212 45.1515 34.2724C45.1548 34.2837 45.475 35.4049 44.9209 35.8774C44.907 35.8854 44.5719 36.0551 43.9334 35.7629C43.8612 35.73 43.7753 35.7444 43.7181 35.8001C43.7148 35.8027 43.4012 36.0967 43.0708 36.0767C42.8901 36.0725 42.7277 35.9913 42.5745 35.8279C42.5039 35.7526 42.3866 35.7465 42.3079 35.8127C42.285 35.8326 41.7369 36.2874 41.3299 35.8316C41.2703 35.7648 41.1737 35.7479 41.0954 35.7889C40.94 35.8701 40.653 35.9599 40.531 35.8938C40.5148 35.885 40.4656 35.8585 40.4528 35.7266C40.4258 35.4468 40.524 35.1731 40.7153 34.9947C40.9038 34.8187 41.1664 34.7476 41.4546 34.7961C42.4693 34.9655 43.5623 34.7429 43.7207 33.8649C43.8369 33.2191 43.5694 32.4517 43.311 31.7093C43.1163 31.1508 42.9153 30.5733 42.9063 30.1055C42.8881 29.1495 43.0928 28.247 43.0948 28.2378C43.1189 28.1338 43.0539 28.0299 42.9496 28.0059C42.8453 27.9806 42.7417 28.0465 42.7177 28.1508C42.7087 28.1893 42.4998 29.1073 42.5191 30.1129C42.5231 30.3108 42.5606 30.5214 42.6098 30.7357C41.1405 30.1929 40.1598 29.348 39.7041 28.2154C39.1701 26.8878 39.473 25.4639 39.8945 24.6476C40.4981 23.4796 41.3182 22.8124 41.9772 22.2759C42.287 22.0239 42.5643 21.797 42.7622 21.5599C42.7413 21.8818 42.4674 22.5293 42.1687 23.0478C42.1289 23.1169 42.1353 23.2032 42.1853 23.2654C42.2351 23.3277 42.3183 23.3529 42.394 23.3293C42.5604 23.2773 42.8609 23.1308 43.0814 23.0183L43.1435 23.9957C43.1481 24.068 43.1929 24.1318 43.2594 24.1608C43.3262 24.19 43.4035 24.1793 43.4593 24.1329C43.7203 23.9189 43.9666 23.6333 44.1372 23.4177L44.3298 24.0256C44.3482 24.084 44.3936 24.1305 44.4518 24.1504C44.5102 24.1701 44.574 24.1614 44.6245 24.1262C44.9004 23.9354 45.1698 23.6296 45.3381 23.4195L45.7057 24.0055C45.7429 24.065 45.8095 24.1033 45.8792 24.0959C45.949 24.0926 46.0119 24.0518 46.043 23.989L46.4719 23.1311L46.8336 24.1145C46.8537 24.1694 46.8977 24.2121 46.953 24.231C46.9732 24.2381 46.9944 24.2413 47.0153 24.2413C47.0513 24.2413 47.0874 24.2311 47.1187 24.2116L48.0666 23.6137C48.5676 23.892 49.2921 24.0079 49.3248 24.0133C49.3831 24.0211 49.4438 24.004 49.4874 23.963C49.5311 23.922 49.5533 23.8632 49.5478 23.8037L49.4706 22.996L50.3099 22.9833C50.4065 22.9817 50.4872 22.9092 50.499 22.8134C50.5109 22.7174 50.4501 22.6276 50.3568 22.6027C50.2652 22.5782 50.0552 22.3819 49.8759 22.1809C49.8987 22.1793 49.9091 22.1783 49.9198 22.1774C50.4025 22.2142 58.5952 22.8173 60.3917 21.5105C61.3908 20.784 61.321 20.1235 61.1902 19.7946C60.9207 19.1152 59.9403 18.6818 58.9625 18.8064C58.5737 18.8562 58.1556 18.9306 57.7225 19.0083C56.4963 19.228 55.1065 19.4769 53.9669 19.1976C53.5225 19.0887 53.1415 18.9445 52.8052 18.8175C52.2362 18.602 51.8248 18.4462 51.5096 18.6345C51.379 18.7126 51.2843 18.8399 51.221 19.0262C51.0187 18.8006 50.7944 18.3886 51.0907 17.8308C51.1297 17.7574 51.1173 17.6672 51.0602 17.6066C51.0489 17.5944 49.9254 16.3904 50.4541 15.0689C50.9289 13.882 52.7974 13.2121 54.8968 13.4788C56.7032 13.7073 58.5963 15.0948 59.849 16.0128C60.6377 16.5907 61.0623 16.8939 61.3496 16.9315C61.4071 16.9398 61.4638 16.9199 61.5063 16.8809C61.5485 16.8418 61.571 16.7856 61.568 16.728C61.5677 16.7255 61.5558 16.4669 61.701 16.3234C61.7802 16.245 61.8959 16.2105 62.0557 16.2225C62.2436 16.2348 62.3794 16.3045 62.4599 16.4296C62.5847 16.6252 62.5621 16.9189 62.4841 17.1234ZM56.3974 35.8436C56.2096 35.9081 55.9991 35.8651 55.7689 35.714C55.6966 35.6666 55.601 35.6733 55.5359 35.7296C55.5126 35.7497 54.9593 36.217 54.4291 35.7895C54.3568 35.7313 54.2519 35.7333 54.1807 35.7941C54.1231 35.8435 53.6028 36.2627 53.0845 35.7775C53.0233 35.7206 52.9329 35.709 52.8602 35.7485C52.5966 35.8908 52.2286 36.007 52.1302 35.9475C52.114 35.9379 52.1133 35.886 52.1133 35.8757C52.1133 35.6705 52.2388 35.5174 52.3439 35.4254C52.5885 35.2116 52.9768 35.0982 53.314 35.1425C54.0475 35.2405 54.5822 34.7374 54.679 34.5105C54.7647 34.3103 54.9062 32.4207 54.23 31.4417C54.0928 31.2431 53.9419 31.0527 53.7903 30.8624C53.2762 30.2156 52.7948 29.6011 52.8818 28.6665C53.8212 28.6467 54.6722 29.0062 55.4182 29.7522C55.8086 30.1427 56.2319 30.466 56.6752 30.7769C56.5033 30.9535 56.2263 31.2869 56.2053 31.6261C56.195 31.793 56.2479 31.9458 56.3578 32.0681C56.6387 32.3799 56.9602 32.3654 57.1726 32.355C57.2093 32.353 57.2584 32.3503 57.2943 32.3528C57.2402 32.4842 57.0394 32.7585 56.9005 32.9478C56.5165 33.4716 56.2681 33.8362 56.3103 34.1185C56.3393 34.3111 56.415 34.6014 56.4883 34.8824C56.5581 35.1501 56.6636 35.5549 56.6587 35.6331C56.6485 35.6632 56.5615 35.7865 56.3974 35.8436ZM57.2127 33.1767C57.5849 32.6689 57.7739 32.3939 57.6644 32.1751C57.5521 31.9504 57.3226 31.9601 57.1546 31.9687C56.9743 31.9773 56.8035 31.9848 56.6455 31.8094C56.6045 31.7638 56.5877 31.7148 56.5916 31.6509C56.605 31.4297 56.8546 31.1427 56.9982 31.0019C57.1094 31.0773 57.2199 31.1527 57.3333 31.2288C57.6374 31.4328 57.9534 31.645 58.2814 31.8811C59.0138 32.4085 59.0031 32.7695 58.9874 33.3158C58.9819 33.4938 58.976 33.6955 58.9982 33.9157C59.0519 34.4534 58.7453 34.5569 58.3067 34.644C58.2513 34.655 58.1995 34.6655 58.1539 34.6769C58.1085 34.6882 58.0543 34.6992 57.9942 34.7115C57.7145 34.7682 57.2674 34.8639 56.9564 35.1538C56.9308 35.0489 56.8996 34.9275 56.8624 34.7855C56.7919 34.5142 56.7188 34.2339 56.6928 34.0618C56.6714 33.9156 57.0237 33.4351 57.2127 33.1767ZM37.5965 29.5645C37.5161 29.5731 37.443 29.6055 37.3762 29.6633C37.2617 29.5357 37.1085 29.2875 37.1085 28.8734C37.1085 28.2578 36.9343 27.9518 36.8236 27.8183C36.8512 27.7787 36.8779 27.7385 36.8977 27.6945C36.9838 27.5035 36.9594 27.3045 36.8249 27.1013C36.8877 26.97 36.931 26.7903 36.8771 26.609C36.9555 26.4759 37.0162 26.2682 36.9536 26.014C37.0021 25.9504 37.0618 25.8562 37.1072 25.7376C37.997 26.721 39.0594 27.5626 39.1312 27.6191C39.1814 27.8669 39.2457 28.1153 39.3445 28.3612C39.6469 29.113 40.1591 29.7443 40.8626 30.2577C40.5328 30.7055 39.9157 31.2875 39.1519 30.7775C38.7975 30.5413 38.5303 30.2601 38.3158 30.0343C38.0413 29.7462 37.8407 29.5371 37.5965 29.5645ZM35.9767 31.2706C36.0165 31.3165 36.074 31.3394 36.1368 31.3361C36.1973 31.3315 36.2525 31.2989 36.2852 31.2477C36.3062 31.2155 36.4069 31.0896 36.5191 31.067C36.5513 31.0598 36.6037 31.0574 36.6799 31.1092C36.7306 31.1442 36.759 31.2601 36.7163 31.3868C36.6397 31.614 36.3982 31.739 36.0671 31.7243C35.9851 31.7176 35.9083 31.7691 35.8778 31.8461C35.8473 31.9229 35.8689 32.0109 35.9318 32.0645L36.2477 32.3352L35.7323 32.4607C35.6639 32.4773 35.6101 32.5298 35.5914 32.5977C35.5905 32.6009 35.5135 32.8755 35.3597 33.1072C35.2056 32.8755 35.1286 32.6009 35.1278 32.5977C35.1092 32.5298 35.0551 32.4773 34.9868 32.4607L34.4715 32.3352L34.7871 32.0645C34.8499 32.0106 34.8715 31.9229 34.841 31.8461C34.8103 31.7692 34.7279 31.7167 34.6517 31.7243C34.3166 31.7399 34.0793 31.614 34.0029 31.387C33.9601 31.2603 33.9886 31.1442 34.0392 31.1092C34.114 31.058 34.166 31.0605 34.1989 31.0668C34.3075 31.088 34.4059 31.2055 34.4338 31.2478C34.4667 31.299 34.5218 31.3318 34.5822 31.3362C34.64 31.3388 34.7022 31.3161 34.7423 31.2707C35.2334 30.7095 35.0236 30.0786 34.7817 29.7246C34.967 29.4931 35.1565 29.1226 35.2002 29.0352C35.2335 28.969 35.2142 28.8917 35.169 28.8327C35.1233 28.7744 35.0359 28.7495 34.9645 28.7639C34.8546 28.7871 34.5198 28.8572 34.3275 28.709C34.2607 28.6578 34.246 28.5173 34.2972 28.426C34.3145 28.3943 34.3693 28.3002 34.5702 28.3766C34.7612 28.4501 35.0356 28.5296 35.2069 28.375C35.246 28.34 35.2686 28.2985 35.285 28.2558C35.3358 28.2636 35.3873 28.2663 35.4391 28.2709C35.4557 28.3081 35.4775 28.3441 35.5119 28.375C35.6842 28.5297 35.9581 28.4501 36.1489 28.3766C36.3506 28.2993 36.4043 28.3945 36.4219 28.426C36.4735 28.5175 36.4583 28.6579 36.3912 28.7094C36.199 28.8581 35.8645 28.7873 35.73 28.7592C35.6572 28.744 35.5833 28.7727 35.5383 28.8315C35.4935 28.8901 35.4859 28.9692 35.5188 29.0355C35.5625 29.1226 35.752 29.4934 35.9373 29.7249C35.6955 30.0784 35.4859 30.7096 35.9767 31.2706ZM36.6047 25.8283C36.5477 25.8818 36.5285 25.9642 36.556 26.0374C36.6513 26.2916 36.5311 26.4328 36.5197 26.4454C36.4581 26.5067 36.4453 26.6014 36.4879 26.6774C36.5676 26.819 36.4385 26.9964 36.4381 26.997C36.3827 27.0698 36.3853 27.1711 36.4448 27.2408C36.5971 27.4185 36.5615 27.4974 36.5444 27.5353C36.4898 27.6569 36.372 27.7516 36.1947 27.817C36.0137 27.8838 35.8023 27.9037 35.5964 27.8977C35.5888 27.898 35.5812 27.8969 35.5738 27.8981C35.3294 27.8884 35.0947 27.8392 34.9318 27.7625C34.8448 27.7216 34.7359 27.6543 34.7126 27.5669C34.6915 27.4879 34.746 27.4085 34.7459 27.4085C34.7777 27.3662 34.7907 27.3127 34.7822 27.2606C34.7734 27.2083 34.7437 27.162 34.7 27.1322C34.5991 27.0637 34.5911 27.0052 34.5885 26.986C34.5762 26.8956 34.6472 26.7878 34.6722 26.7584C34.7077 26.7177 34.7246 26.6642 34.7191 26.6105C34.7136 26.557 34.6858 26.5082 34.6427 26.4759C34.5836 26.4316 34.4852 26.345 34.4865 26.2617C34.4878 26.176 34.5861 26.0882 34.6191 26.0651C34.6706 26.0301 34.6972 25.9691 34.699 25.907C34.7007 25.8448 34.6678 25.782 34.6183 25.7442C34.5679 25.7056 34.5201 25.5177 34.5426 25.4529C34.7771 25.4981 35.0315 25.5258 35.3101 25.5283C35.3244 25.5283 35.3388 25.5286 35.3531 25.5286C35.878 25.5286 36.3374 25.4338 36.7118 25.2749C36.735 25.3039 36.7588 25.333 36.7824 25.3619C36.7868 25.639 36.6117 25.8215 36.6047 25.8283ZM35.3139 25.1411C34.2666 25.1315 33.5726 24.7951 33.458 24.2411C33.424 24.0764 33.4537 23.9469 33.5487 23.8452C33.6669 23.7186 33.8855 23.6446 34.1212 23.6446C34.1718 23.6446 34.2234 23.648 34.2747 23.6552C34.3292 23.6625 34.3383 23.6798 34.3415 23.6861C34.3822 23.7622 34.3292 23.9813 34.2563 24.1305C34.2099 24.2252 34.2477 24.3397 34.3413 24.3882C35.0315 24.7443 36.0303 24.5881 36.293 24.4689C36.3247 24.4546 36.4201 24.4114 36.4463 24.3066C36.467 24.2244 36.4395 24.1526 36.4128 24.0832C36.3651 23.9578 36.3155 23.8285 36.4554 23.6455C36.5301 23.5475 36.6929 23.5927 36.7409 23.6091C36.9718 23.6872 37.2052 23.9282 37.2052 24.2378C37.2052 24.3819 37.1396 24.5201 37.0103 24.6485C36.6921 24.9637 36.0548 25.1385 35.3139 25.1411ZM36.0256 24.1513C35.7672 24.2154 35.1638 24.2865 34.6801 24.1133C34.7367 23.9422 34.7848 23.6951 34.6835 23.5045C34.6791 23.4964 34.6718 23.4875 34.6666 23.4789L34.6236 17.3882C34.6718 13.7738 36.3414 12.4536 37.1245 12.0327C36.7736 13.1268 36.081 16.2167 36.1082 23.4801C35.9332 23.7564 35.9741 24.0003 36.0256 24.1513ZM41.3042 20.8717L41.101 21.3208C41.0076 21.2222 40.8902 21.0631 40.7947 20.8212C40.7586 20.7299 40.6606 20.6788 40.565 20.7053L39.8437 20.8962L40.0089 20.4927C40.0346 20.4297 40.0255 20.358 39.9847 20.3035C39.9445 20.2489 39.8765 20.2182 39.8105 20.2267L38.9349 20.3141L39.2598 19.4313C39.6464 19.5442 40.6032 19.8026 41.5858 19.9047L41.4425 20.083C41.3909 20.1476 41.3859 20.2373 41.4294 20.3072C41.4733 20.3771 41.5566 20.4115 41.6368 20.3929C41.6471 20.3908 42.6868 20.1551 43.3945 20.256C43.4747 20.2657 43.553 20.2277 43.5918 20.1571C43.6305 20.0863 43.6212 19.9987 43.5684 19.9378C43.1552 19.4599 42.0448 18.1258 41.8694 17.6997C41.8363 17.6193 41.7533 17.5737 41.6678 17.581C41.5816 17.5913 41.5126 17.6575 41.4992 17.7432L41.402 18.3626C41.2541 18.2646 41.0572 18.1042 40.8921 17.867C40.8447 17.7989 40.7599 17.7681 40.6801 17.7917C40.6004 17.8145 40.5441 17.8851 40.5398 17.9678C40.5388 17.9867 40.5357 18.062 40.5403 18.1639C40.0418 17.7203 39.2415 16.9113 38.9815 16.0903C38.8366 15.6328 38.8479 15.2945 39.0143 15.1115C39.1597 14.9518 39.4033 14.9345 39.531 14.9616C39.6666 14.9906 39.796 15.0866 39.8765 15.2184C39.9555 15.3476 39.9792 15.4918 39.9436 15.6257C39.9277 15.6854 39.941 15.7492 39.9802 15.7973C40.019 15.8455 40.0798 15.8733 40.1404 15.8688C40.6284 15.8447 43.0828 15.683 43.4796 14.879C43.535 14.7665 43.5737 14.6001 43.4918 14.3965C43.7514 14.2483 44.3929 14.0285 45.2239 14.7711C45.2917 14.8319 45.3933 14.8366 45.4677 14.7827C45.659 14.6421 45.9467 14.304 45.9113 13.8926C46.2007 13.9289 46.6986 14.0755 47.0439 14.6319C47.0757 14.6828 47.1289 14.716 47.1884 14.7223C47.2475 14.7282 47.3066 14.707 47.3482 14.6639C47.3635 14.6481 47.6778 14.3171 47.8075 13.9082C48.0386 13.9621 48.4969 14.136 48.9447 14.6987C48.9782 14.7409 49.0276 14.7671 49.0812 14.7714C49.1001 14.7717 49.3467 14.7864 49.6649 14.6933C48.6872 15.4809 47.0983 15.6421 47.0775 15.6441C47.0061 15.6508 46.9445 15.6963 46.9167 15.7622C46.8892 15.8282 46.9002 15.9045 46.9457 15.9596L47.2216 16.2958C46.1277 16.3161 45.646 15.9203 45.6417 15.9166C45.5709 15.8551 45.4667 15.8537 45.3933 15.9112C45.3202 15.9699 45.2996 16.0723 45.3442 16.1547L45.5839 16.5974C45.1538 16.5074 44.7593 16.3068 44.4285 16.1381C44.0119 15.9259 43.6823 15.759 43.3936 15.8447C43.1778 15.9092 43.0206 16.1041 42.983 16.3533C42.9423 16.6249 43.0531 16.8843 43.2718 17.0301C43.3833 17.1045 43.5104 17.1408 43.6381 17.1408C43.8186 17.1408 44.001 17.0686 44.1442 16.9288C44.2612 16.8146 44.3315 16.6758 44.3521 16.5335C44.7882 16.7544 45.319 17.004 45.9254 17.0301C45.9935 17.0384 46.0611 16.9985 46.0978 16.9394C46.1349 16.8803 46.1372 16.8057 46.1039 16.7445L45.9772 16.5108C46.3431 16.6342 46.8864 16.7326 47.6307 16.6584C47.7018 16.6512 47.763 16.606 47.7905 16.5399C47.8177 16.4739 47.8064 16.3982 47.7613 16.343L47.4647 15.9814C48.0724 15.8803 49.3196 15.5868 50.1067 14.8236C49.9772 15.1805 49.7662 15.5482 49.4183 15.7495C49.3697 15.7778 49.3361 15.8263 49.3255 15.8817C49.3152 15.9371 49.3298 15.9949 49.3648 16.039C49.3714 16.0473 49.9978 16.8648 49.8025 19.0016C49.4442 18.8175 48.7556 18.3799 48.3661 17.5901C48.3248 17.5064 48.2308 17.4648 48.1388 17.4897C48.0488 17.5156 47.9904 17.6024 47.9998 17.6957C48.0257 17.9467 48.0468 18.3479 48.024 18.6302C47.8148 18.4802 47.5218 18.2351 47.4009 17.9673C47.3668 17.8913 47.2881 17.8439 47.2056 17.8544C47.1229 17.8624 47.0548 17.9222 47.0359 18.003C46.987 18.2138 46.9217 18.458 46.8686 18.6237C46.6759 18.503 46.4199 18.3121 46.3135 18.1159C46.2724 18.04 46.1863 18.0002 46.101 18.0194C46.0166 18.038 45.955 18.1109 45.95 18.1973C45.9374 18.4214 45.9078 18.7671 45.8702 19.006C45.6922 18.897 45.4418 18.7323 45.2568 18.5649C45.2066 18.5196 45.1363 18.5027 45.0718 18.5227C45.0071 18.5419 44.9571 18.5935 44.9396 18.6591L44.8403 19.0364C44.6739 18.9398 44.4432 18.7858 44.2924 18.6017C44.2249 18.5189 44.1027 18.5067 44.0203 18.5745C43.9375 18.642 43.9253 18.7641 43.9931 18.8467C44.3086 19.2321 44.862 19.4867 44.8855 19.4972C44.9377 19.5206 44.9967 19.52 45.0486 19.496C45.1003 19.4715 45.1383 19.4254 45.1529 19.3702L45.2379 19.0473C45.5518 19.2809 45.8878 19.4652 45.9054 19.4748C45.954 19.501 46.0116 19.5051 46.0638 19.4871C46.116 19.4682 46.1575 19.428 46.178 19.3768C46.2346 19.2348 46.2745 18.9437 46.3002 18.6857C46.5646 18.9155 46.8613 19.0656 46.8798 19.0747C46.9705 19.1199 47.08 19.0879 47.1325 19.0012C47.1871 18.9096 47.2521 18.7046 47.3065 18.5098C47.6199 18.863 48.0415 19.1051 48.0648 19.1185C48.1134 19.146 48.1725 19.1507 48.2259 19.1324C48.2791 19.1132 48.3212 19.0719 48.3414 19.0189C48.3997 18.8654 48.4192 18.6226 48.4211 18.3839C48.7898 18.8343 49.2164 19.1212 49.5181 19.2876C49.5181 19.2924 49.5159 19.2965 49.5162 19.3014C49.5182 19.3354 49.5606 19.9836 49.6716 20.5004C49.3467 20.3801 48.8243 20.135 48.3416 19.6805C48.2953 19.6366 48.2298 19.619 48.1677 19.6323C48.1051 19.6459 48.0535 19.6894 48.0294 19.7485L47.8804 20.1164L47.2577 19.6646C47.2027 19.6249 47.1305 19.6164 47.0672 19.6436C47.0044 19.6707 46.9606 19.7286 46.9518 19.7964L46.8955 20.2283C46.7602 20.1302 46.5978 20.0006 46.4819 19.8703C46.4103 19.7898 46.2876 19.7831 46.2086 19.8541C46.1287 19.9252 46.1214 20.0475 46.1924 20.1274C46.4667 20.4359 46.927 20.7172 46.9465 20.7289C47.0027 20.7635 47.0719 20.7661 47.1307 20.7379C47.19 20.7096 47.2305 20.6535 47.2392 20.5884L47.2937 20.1692L47.8532 20.5751C47.901 20.6098 47.9629 20.6203 48.02 20.6043C48.0775 20.5878 48.1239 20.546 48.1463 20.4911L48.2857 20.1467C48.6441 20.4413 49.0003 20.6346 49.2901 20.7624C49.2916 20.8828 49.3105 21.3957 49.5269 21.8001C49.1722 21.7908 48.6164 21.7286 48.1016 21.4711C48.0146 21.4267 47.9067 21.4557 47.8527 21.5389L47.5723 21.971L46.4126 21.1929C46.3633 21.1594 46.301 21.1503 46.2449 21.1697C46.1884 21.1879 46.1433 21.2313 46.1229 21.2869L45.9446 21.7724C45.7311 21.5329 45.4251 21.1958 45.3123 21.1056C45.2333 21.0421 45.1185 21.051 45.0495 21.1254C45.0462 21.1288 44.7753 21.419 44.451 21.6445L44.2275 21.0442C44.1903 20.9445 44.0782 20.893 43.9784 20.9302C43.8781 20.9674 43.8271 21.0793 43.8643 21.1793L44.171 22.0022C44.1907 22.0551 44.2325 22.0968 44.2854 22.1162C44.3382 22.1357 44.397 22.1314 44.4465 22.1039C44.7499 21.9355 45.0335 21.6841 45.195 21.5284C45.3746 21.7137 45.6762 22.0515 45.8683 22.2719C45.9136 22.3234 45.9819 22.348 46.0493 22.3348C46.1166 22.3225 46.1724 22.2756 46.196 22.2114L46.4015 21.6519L47.5198 22.4022C47.552 22.4237 47.5896 22.4351 47.6277 22.4351C47.6404 22.4351 47.6536 22.4339 47.6664 22.431C47.7174 22.4207 47.7619 22.3904 47.7899 22.3469L48.0857 21.8907C48.5827 22.1053 49.0798 22.1689 49.4365 22.184C49.4345 22.2301 49.447 22.277 49.4786 22.3155C49.5258 22.3733 49.6221 22.4871 49.7384 22.6053L49.2542 22.6126C49.2003 22.6134 49.1491 22.6367 49.1131 22.6771C49.0771 22.7172 49.0595 22.7705 49.0645 22.8246L49.1368 23.5825C48.8695 23.5226 48.4455 23.406 48.1694 23.2252C48.1053 23.1835 48.024 23.1825 47.9599 23.2232L47.1137 23.7572L46.6802 22.5781C46.6536 22.5054 46.5865 22.4559 46.5092 22.4515C46.4251 22.4454 46.3597 22.4891 46.3251 22.5583L45.8499 23.5085L45.5169 22.9776C45.4823 22.9226 45.4226 22.8886 45.3578 22.8868C45.2933 22.8879 45.2321 22.916 45.1944 22.9691C45.1911 22.9738 44.9216 23.3544 44.6127 23.639L44.3917 22.9415C44.3693 22.871 44.3089 22.8193 44.2355 22.8084C44.1617 22.7987 44.0893 22.8295 44.0475 22.8907C44.0445 22.8953 43.806 23.2418 43.5032 23.5611L43.4485 22.6974C43.4444 22.6319 43.4072 22.5726 43.3494 22.5406C43.2919 22.5084 43.2218 22.5077 43.1638 22.539C43.0805 22.5837 42.9266 22.6644 42.7655 22.7439C42.9933 22.271 43.2517 21.6067 43.1047 21.2644C43.0609 21.1623 42.9785 21.0946 42.8799 21.0527C42.8738 21.0484 42.8696 21.0422 42.8631 21.0387C42.854 21.0338 42.8443 21.0335 42.835 21.0301C42.8284 21.0282 42.8241 21.0228 42.8173 21.0212C42.8095 21.0193 42.8037 21.0199 42.7961 21.0183C42.7921 21.0179 42.7884 21.0171 42.7842 21.0168C42.5217 20.9621 42.3427 21.0354 42.2394 21.1108C42.1338 21.188 42.0641 21.2905 42.0184 21.3892C41.8981 21.273 41.7527 21.0998 41.6589 20.8763C41.6293 20.8052 41.56 20.7585 41.4832 20.7575C41.4061 20.7526 41.3362 20.8016 41.3042 20.8717ZM39.8319 18.7112C40.8785 19.2157 42.1648 19.2715 42.5164 19.2779C42.6846 19.4869 42.8487 19.6865 42.9804 19.8432C42.6587 19.8445 42.3306 19.8808 42.0701 19.9198L42.116 19.8627C42.1614 19.8062 42.1713 19.729 42.1419 19.6628C42.1127 19.5968 42.0486 19.5525 41.9767 19.548C40.6623 19.4699 39.2146 19.0132 39.2003 19.0082C39.1997 19.008 39.1992 19.0082 39.1986 19.008C39.1986 19.008 39.198 19.0076 39.1974 19.0075C38.9817 18.9424 38.8561 18.8315 38.8435 18.6957C38.8337 18.5885 38.8933 18.5014 38.9292 18.4827C39.1381 18.3748 39.5776 18.5878 39.8319 18.7112ZM41.661 18.8203C41.7028 18.7903 41.7337 18.7472 41.7419 18.6957L41.7985 18.3327C41.9146 18.5015 42.0552 18.6884 42.2003 18.8767C42.0505 18.8664 41.8663 18.8487 41.661 18.8203ZM41.3202 18.7655C41.2258 18.7481 41.1286 18.7276 41.0303 18.705C41.039 18.6635 41.0339 18.6192 41.014 18.5792C41.0084 18.5682 41.0034 18.5565 40.9984 18.5445C41.1209 18.6449 41.2341 18.7169 41.3202 18.7655ZM43.8736 16.6519C43.7856 16.7386 43.6311 16.8044 43.4866 16.7084C43.3759 16.6346 43.3518 16.5066 43.3658 16.4111C43.3771 16.3367 43.4199 16.2413 43.5045 16.216C43.5207 16.2112 43.5391 16.2088 43.5591 16.2088C43.652 16.2088 43.7845 16.2574 43.9359 16.3267L43.9362 16.3271C44.0343 16.4828 43.9014 16.6249 43.8736 16.6519ZM51.2352 19.5502C51.2906 19.5855 51.3607 19.5898 51.421 19.5621C51.4807 19.5342 51.5221 19.4772 51.5308 19.4118C51.563 19.1683 51.6225 19.0189 51.7079 18.9677C51.8622 18.8751 52.2359 19.0168 52.6679 19.1805C52.9971 19.3052 53.407 19.4602 53.874 19.5747C55.093 19.8733 56.5259 19.6169 57.7899 19.3904C58.217 19.314 58.6284 19.2404 59.0108 19.1915C59.8105 19.0896 60.6258 19.4244 60.8298 19.9384C60.9839 20.3263 60.7471 20.7738 60.1632 21.1985C58.5445 22.3755 50.7939 21.8528 50.0037 21.7963C49.7935 21.5961 49.7112 21.1863 49.6868 20.9163C49.8145 20.9571 49.9002 20.9774 49.9113 20.9799C49.9244 20.9827 49.9377 20.984 49.951 20.984C50.0064 20.984 50.0601 20.96 50.0975 20.9172C50.1435 20.8637 50.1571 20.79 50.1329 20.7237C50.0121 20.3942 49.9457 19.7854 49.9181 19.4738C49.9693 19.4878 50.0234 19.4828 50.0689 19.4546C50.1193 19.4237 50.1526 19.371 50.1596 19.3124C50.3886 17.3673 49.9892 16.3532 49.7799 15.9733C49.8307 15.9345 49.8782 15.8926 49.9236 15.8488C49.9376 16.7681 50.4708 17.5074 50.6889 17.7714C50.2996 18.6531 50.8649 19.3154 51.2352 19.5502Z" fill="#464655"/>
<path d="M31.815 9.58117C31.7399 8.02143 31.3696 5.4989 30.186 5.4411C29.519 5.41034 29.1903 5.82098 29.1767 5.83858C29.1376 5.88923 29.0735 5.9177 29.0115 5.91456L28.5592 5.88737L28.6402 6.18713C28.6596 6.25938 28.6351 6.33708 28.5779 6.38558C28.5504 6.40876 27.9109 6.9642 28.3 7.6716C28.5965 8.21059 29.5547 8.4657 30.2543 8.65171C30.5666 8.73498 30.8366 8.80681 31.0117 8.89251C31.3239 9.04518 31.5974 9.30273 31.815 9.58117Z" fill="#FFD250"/>
<path d="M30.2047 5.05454C29.5241 5.0212 29.1004 5.36044 28.9412 5.52256L28.3138 5.48493C28.2543 5.4802 28.1916 5.50782 28.1521 5.55604C28.1128 5.60426 28.0989 5.6685 28.115 5.72874L28.2355 6.17572C27.9279 6.48964 27.5662 7.14153 27.9605 7.85822C28.3365 8.54244 29.3875 8.82187 30.1545 9.0262C30.4474 9.10403 30.7004 9.17142 30.8417 9.24039C31.2953 9.46216 31.6596 9.96667 31.8492 10.365C31.8817 10.4335 31.9505 10.4753 32.024 10.4753C32.0379 10.4753 32.0518 10.4738 32.0658 10.4707C32.1538 10.4513 32.2166 10.3736 32.2175 10.2836C32.2195 10.0744 32.2442 5.15398 30.2047 5.05454ZM30.2541 8.65175C29.5546 8.46574 28.5964 8.21063 28.2999 7.67164C27.9107 6.96439 28.5503 6.40895 28.5778 6.38562C28.6349 6.33712 28.6593 6.25957 28.64 6.18717L28.559 5.88741L29.0113 5.9146C29.0735 5.91789 29.1376 5.88927 29.1766 5.83862C29.1902 5.82088 29.5188 5.41024 30.1859 5.44114C31.3696 5.49895 31.7397 8.02148 31.8148 9.58121C31.5972 9.30291 31.3238 9.04522 31.0114 8.89256C30.8366 8.80671 30.5665 8.73488 30.2541 8.65175Z" fill="#464655"/>
<path d="M64.1782 9.58117C64.2533 8.02143 64.6236 5.4989 65.8072 5.4411C66.4743 5.41034 66.8029 5.82098 66.8165 5.83858C66.8556 5.88923 66.9197 5.9177 66.9818 5.91456L67.434 5.88737L67.3531 6.18713C67.3336 6.25938 67.3581 6.33708 67.4153 6.38558C67.4428 6.40876 68.0823 6.9642 67.6932 7.6716C67.3967 8.21059 66.4385 8.4657 65.739 8.65171C65.4266 8.73498 65.1566 8.80681 64.9815 8.89251C64.6693 9.04518 64.3957 9.30273 64.1782 9.58117Z" fill="#FFD250"/>
<path d="M63.7756 10.2836C63.7766 10.3736 63.8394 10.4513 63.9273 10.4707C63.9413 10.4737 63.9552 10.4753 63.969 10.4753C64.0424 10.4753 64.1113 10.4335 64.1437 10.365C64.3333 9.96663 64.6976 9.46213 65.1512 9.24035C65.2927 9.17124 65.5454 9.10399 65.8384 9.02616C66.6056 8.82198 67.6563 8.5424 68.0324 7.85818C68.4266 7.14134 68.0649 6.48946 67.7574 6.17569L67.8779 5.7287C67.8941 5.66832 67.88 5.60407 67.8408 5.556C67.8015 5.50778 67.7387 5.48002 67.6791 5.48489L67.0517 5.52252C66.8925 5.36069 66.4688 5.02145 65.7882 5.0545C63.749 5.15365 63.7737 10.0741 63.7756 10.2836ZM64.9815 8.89209C64.6691 9.0449 64.3956 9.30259 64.1781 9.58074C64.2532 8.02101 64.6235 5.49848 65.8071 5.44068C66.4741 5.40991 66.8028 5.82056 66.8164 5.83816C66.8554 5.88881 66.9195 5.91728 66.9816 5.91413L67.4339 5.88695L67.3529 6.1867C67.3335 6.25896 67.3579 6.33665 67.4152 6.38516C67.4426 6.40834 68.0822 6.96378 67.693 7.67117C67.3966 8.21016 66.4383 8.46528 65.7388 8.65128C65.4268 8.73456 65.1566 8.80638 64.9815 8.89209Z" fill="#464655"/>
<path d="M64.1782 38.415C64.2533 39.9748 64.6236 42.4973 65.8072 42.5551C66.4743 42.5859 66.8029 42.1752 66.8165 42.1575C66.8556 42.1068 66.9197 42.0784 66.9818 42.0815L67.434 42.1087L67.3531 41.8089C67.3336 41.7367 67.3581 41.659 67.4153 41.6105C67.4428 41.5873 68.0823 41.0319 67.6932 40.3245C67.3967 39.7855 66.4385 39.5304 65.739 39.3444C65.4266 39.2611 65.1566 39.1893 64.9815 39.1035C64.6693 38.9512 64.3957 38.6935 64.1782 38.415Z" fill="#FFD250"/>
<path d="M65.7887 42.9418C66.4693 42.9751 66.8929 42.6359 67.0523 42.4738L67.6797 42.5114C67.7392 42.5161 67.8019 42.4885 67.8414 42.4403C67.8807 42.3921 67.8946 42.3278 67.8784 42.2676L67.7579 41.8206C68.0656 41.5067 68.4273 40.8548 68.0329 40.1381C67.6569 39.4539 66.606 39.1745 65.8389 38.9701C65.546 38.8923 65.2931 38.8249 65.1517 38.7559C64.6981 38.5342 64.3338 38.0297 64.1443 37.6313C64.1118 37.5628 64.043 37.521 63.9696 37.521C63.9557 37.521 63.9418 37.5226 63.9278 37.5256C63.8398 37.545 63.777 37.6227 63.7761 37.7127C63.774 37.9219 63.7492 42.8423 65.7887 42.9418ZM65.7393 39.3446C66.4389 39.5306 67.3971 39.7857 67.6935 40.3247C68.0827 41.0319 67.4432 41.5874 67.4157 41.6107C67.3586 41.6592 67.3341 41.7368 67.3534 41.8092L67.4344 42.1089L66.9821 42.0817C66.9199 42.0784 66.8558 42.107 66.8169 42.1577C66.8033 42.1754 66.4746 42.5861 65.8076 42.5552C64.6239 42.4974 64.2537 39.9748 64.1786 38.4151C64.3962 38.6934 64.6697 38.9511 64.982 39.1038C65.1569 39.1896 65.427 39.2614 65.7393 39.3446Z" fill="#464655"/>
<path d="M31.815 38.415C31.7399 39.9748 31.3696 42.4973 30.186 42.5551C29.519 42.5859 29.1903 42.1752 29.1767 42.1575C29.1376 42.1068 29.0735 42.0784 29.0115 42.0815L28.5592 42.1087L28.6402 41.8089C28.6596 41.7367 28.6351 41.659 28.5779 41.6105C28.5504 41.5873 27.9109 41.0319 28.3 40.3245C28.5965 39.7855 29.5547 39.5304 30.2543 39.3444C30.5666 39.2611 30.8366 39.1893 31.0117 39.1035C31.3239 38.9512 31.5974 38.6935 31.815 38.415Z" fill="#FFD250"/>
<path d="M32.2174 37.7122C32.2164 37.6222 32.1536 37.5445 32.0657 37.5251C32.0517 37.5221 32.0378 37.5205 32.0239 37.5205C31.9505 37.5205 31.8817 37.5623 31.8491 37.6308C31.6595 38.0292 31.2952 38.5337 30.8417 38.7554C30.7001 38.8246 30.4475 38.8918 30.1544 38.9696C29.3872 39.1738 28.3366 39.4534 27.9604 40.1376C27.5662 40.8545 27.9279 41.5063 28.2354 41.8201L28.1149 42.2671C28.0988 42.3275 28.1128 42.3917 28.152 42.4398C28.1914 42.488 28.2542 42.5158 28.3137 42.5109L28.9411 42.4733C29.1004 42.6351 29.524 42.9743 30.2047 42.9413C32.2441 42.8421 32.2194 37.9217 32.2174 37.7122ZM31.0115 39.1038C31.3238 38.951 31.5974 38.6933 31.8149 38.4152C31.7398 39.9749 31.3695 42.4975 30.1859 42.5553C29.5189 42.586 29.1902 42.1754 29.1766 42.1578C29.1376 42.1071 29.0735 42.0787 29.0114 42.0818L28.5591 42.109L28.6401 41.8092C28.6595 41.737 28.635 41.6593 28.5778 41.6108C28.5503 41.5876 27.9108 41.0322 28.3 40.3248C28.5964 39.7858 29.5546 39.5307 30.2542 39.3447C30.5664 39.2612 30.8365 39.1894 31.0115 39.1038Z" fill="#464655"/>
</svg>
