<svg width="23" height="20" viewBox="0 0 23 20" fill="none" xmlns="http://www.w3.org/2000/svg">
<path d="M0.405734 9.58993L5.69869 11.5654L7.74739 18.154C7.87848 18.576 8.39448 18.732 8.73698 18.4519L11.6874 16.0467C11.9966 15.7948 12.4371 15.7822 12.7603 16.0168L18.0818 19.8803C18.4482 20.1466 18.9672 19.9458 19.0591 19.5031L22.9573 0.751873C23.0576 0.268259 22.5825 -0.135187 22.122 0.0429145L0.399532 8.42278C-0.136533 8.62951 -0.131862 9.38847 0.405734 9.58993ZM7.41722 10.5138L17.7616 4.14268C17.9475 4.02852 18.1388 4.2799 17.9792 4.42798L9.44203 12.3637C9.14195 12.643 8.94838 13.0168 8.89356 13.4225L8.60275 15.5777C8.56423 15.8654 8.16002 15.894 8.08062 15.6155L6.96217 11.6856C6.83407 11.2373 7.02074 10.7585 7.41722 10.5138Z" fill="white"/>
</svg>
