<svg width="41" height="41" viewBox="0 0 41 41" fill="none" xmlns="http://www.w3.org/2000/svg">
<path fill-rule="evenodd" clip-rule="evenodd" d="M0 20.0348C0 8.96985 8.96985 0 20.0348 0C31.0997 0 40.0696 8.96985 40.0696 20.0348C40.0696 31.0997 31.0997 40.0696 20.0348 40.0696C8.96985 40.0696 0 31.0997 0 20.0348ZM14.6295 21.425L9.40081 19.4735C8.86974 19.2745 8.86512 18.5248 9.39468 18.3205L30.8534 10.0424C31.3083 9.86645 31.7778 10.265 31.6787 10.7427L27.8277 29.2663C27.737 29.7037 27.2242 29.902 26.8623 29.639L21.6054 25.8224C21.2862 25.5906 20.851 25.603 20.5455 25.852L17.6309 28.228C17.2926 28.5046 16.7828 28.3505 16.6533 27.9336L14.6295 21.425ZM26.546 14.0924L16.3272 20.3862C15.9355 20.6279 15.7511 21.1009 15.8777 21.5437L16.9825 25.4259C17.061 25.701 17.4603 25.6728 17.4983 25.3886L17.7856 23.2596C17.8398 22.8588 18.031 22.4895 18.3274 22.2136L26.7609 14.3742C26.9186 14.2279 26.7297 13.9796 26.546 14.0924Z" fill="#758CB5"/>
</svg>
