<svg width="31" height="27" viewBox="0 0 31 27" fill="none" xmlns="http://www.w3.org/2000/svg">
<path d="M0.547552 12.9419L7.69058 15.6079L10.4554 24.4995C10.6323 25.069 11.3286 25.2794 11.7909 24.9016L15.7725 21.6556C16.1899 21.3156 16.7843 21.2986 17.2205 21.6152L24.402 26.8291C24.8964 27.1885 25.5969 26.9176 25.7209 26.3201L30.9817 1.01468C31.1171 0.362025 30.4758 -0.182439 29.8544 0.0579146L0.539182 11.3668C-0.184255 11.6458 -0.177952 12.6701 0.547552 12.9419ZM10.0098 14.1888L23.9699 5.5907C24.2208 5.43663 24.479 5.77587 24.2635 5.97572L12.7423 16.6852C12.3374 17.0622 12.0762 17.5666 12.0022 18.1142L11.6097 21.0226C11.5577 21.4109 11.0122 21.4495 10.9051 21.0737L9.39569 15.7701C9.22281 15.1652 9.47474 14.519 10.0098 14.1888Z" fill="white"/>
</svg>
