<svg width="28" height="28" viewBox="0 0 28 28" fill="none" xmlns="http://www.w3.org/2000/svg">
<path d="M14.0859 27.1455C16.1659 26.85 17.9893 24.6791 19.1368 21.4731C17.4781 21.1016 15.7854 20.9022 14.0859 20.8785V27.1455Z" fill="#FF0000"/>
<path d="M17.4092 26.6359C17.5322 26.6003 17.6547 26.5644 17.7762 26.525C17.8787 26.492 17.9798 26.4564 18.081 26.4211C18.2006 26.3798 18.3197 26.3373 18.4384 26.2922C18.5395 26.2537 18.6397 26.2129 18.7401 26.1721C18.8559 26.1234 18.9715 26.075 19.0859 26.0263C19.1859 25.9824 19.2851 25.9364 19.3843 25.8901C19.4966 25.8371 19.6084 25.7833 19.7192 25.7272C19.8165 25.6776 19.9136 25.6271 20.0109 25.5751C20.1199 25.5167 20.2281 25.4571 20.3357 25.3959C20.433 25.3408 20.5267 25.2855 20.6214 25.2285C20.7268 25.1638 20.8317 25.099 20.9359 25.0342C21.0292 24.9748 21.1223 24.9145 21.2141 24.8523C21.3167 24.7833 21.4178 24.7113 21.5184 24.6394C21.6089 24.5746 21.6988 24.5101 21.7871 24.445C21.8844 24.37 21.9841 24.2924 22.0817 24.2145C22.1683 24.1455 22.2547 24.0769 22.3399 24.0059C22.437 23.9252 22.5301 23.8416 22.6243 23.7581C22.7069 23.6848 22.79 23.6121 22.8707 23.5369C22.9635 23.4502 23.0539 23.3605 23.1444 23.2715C23.2227 23.1941 23.302 23.1179 23.3786 23.0387C23.3929 23.0239 23.4064 23.008 23.4211 22.9928C22.3608 22.4452 21.244 22.0154 20.0902 21.7111C19.4902 23.6247 18.4223 25.3589 16.9834 26.756C17.0228 26.7458 17.0622 26.7375 17.1016 26.7273C17.2056 26.6981 17.3076 26.666 17.4092 26.6359V26.6359Z" fill="#FF0000"/>
<path d="M27.1998 14.0589H21.3711C21.3491 16.3347 21.0189 18.597 20.3896 20.7843C21.6728 21.127 22.9111 21.6198 24.079 22.2524C25.9964 19.9414 27.0939 17.0601 27.1998 14.0589V14.0589Z" fill="#FF0000"/>
<path d="M14.0859 13.0868H20.399C20.3744 10.8914 20.0523 8.7096 19.442 6.60065C17.6841 7.00155 15.8887 7.21565 14.0859 7.23939V13.0868Z" fill="#FF0000"/>
<path d="M14.0859 0V6.26705C15.7854 6.24308 17.4781 6.04393 19.1368 5.67246C17.9893 2.46642 16.1659 0.295515 14.0859 0V0Z" fill="#FF0000"/>
<path d="M14.0859 19.9063C15.8887 19.9303 17.6841 20.1444 19.442 20.5453C20.0523 18.4363 20.3744 16.2543 20.399 14.0589H14.0859V19.9063Z" fill="#FF0000"/>
<path d="M24.079 4.89319C22.9111 5.52576 21.6728 6.01852 20.3896 6.36127C21.0189 8.54856 21.3491 10.8108 21.3711 13.0867H27.1998C27.0937 10.0857 25.9961 7.20438 24.079 4.89319V4.89319Z" fill="#FF0000"/>
<path d="M23.423 4.15568C23.4087 4.1412 23.3952 4.12554 23.3812 4.11058C23.3043 4.0313 23.2245 3.95487 23.1462 3.87773C23.056 3.78872 22.966 3.69876 22.873 3.61236C22.7925 3.53735 22.7092 3.46638 22.6266 3.39161C22.5324 3.30806 22.4381 3.2238 22.3413 3.1431C22.2573 3.07212 22.1711 3.00424 22.0857 2.93612C21.9883 2.85731 21.8887 2.77898 21.7885 2.70374C21.7007 2.63752 21.6117 2.57343 21.5222 2.50934C21.4206 2.43623 21.3185 2.36336 21.215 2.29382C21.1241 2.23258 21.0318 2.17276 20.9394 2.11413C20.8343 2.04649 20.7294 1.98026 20.6223 1.91617C20.5286 1.85992 20.4339 1.80438 20.3389 1.7505C20.2302 1.68831 20.1213 1.62802 20.0114 1.56915C19.914 1.52049 19.817 1.46756 19.7196 1.4189C19.6079 1.36241 19.4951 1.30805 19.3795 1.25465C19.2822 1.20836 19.1834 1.16326 19.0833 1.11935C18.9682 1.06832 18.8519 1.02227 18.7358 0.973612C18.6356 0.932786 18.5359 0.892434 18.4348 0.853982C18.3168 0.808883 18.1972 0.766633 18.0776 0.725332C17.9765 0.689728 17.8753 0.654361 17.7728 0.62113C17.6513 0.581728 17.5298 0.545887 17.4049 0.509808C17.3038 0.480137 17.2022 0.449992 17.0999 0.422933C17.0607 0.412252 17.0208 0.403944 16.9814 0.393738C18.4203 1.79085 19.488 3.52477 20.0883 5.43862C21.2433 5.13432 22.3617 4.70422 23.423 4.15568V4.15568Z" fill="#FF0000"/>
<path d="M0 13.0867H5.82865C5.85072 10.8108 6.18089 8.54856 6.8099 6.36127C5.52696 6.01876 4.28865 5.52599 3.12083 4.89319C1.20342 7.20414 0.105863 10.0857 0 13.0867Z" fill="#FF0000"/>
<path d="M13.1143 27.1455V20.8785C11.4148 20.9025 9.72216 21.1016 8.06348 21.4731C9.21064 24.6791 11.0343 26.85 13.1143 27.1455Z" fill="#FF0000"/>
<path d="M13.1139 14.0589H6.80078C6.82547 16.2543 7.14733 18.4363 7.75782 20.5453C9.51572 20.1441 11.3109 19.93 13.1139 19.9063V14.0589Z" fill="#FF0000"/>
<path d="M13.1143 0C11.0343 0.295515 9.21064 2.46642 8.06348 5.67246C9.72216 6.04417 11.4148 6.24332 13.1143 6.26705V0Z" fill="#FF0000"/>
<path d="M13.1139 7.23939C11.3111 7.21565 9.51572 7.00155 7.75782 6.60065C7.14733 8.7096 6.82547 10.8914 6.80078 13.0868H13.1139V7.23939Z" fill="#FF0000"/>
<path d="M10.2156 0.393372C10.1762 0.403578 10.1368 0.411886 10.0974 0.422092C9.99437 0.449626 9.89278 0.480246 9.79024 0.509916C9.66823 0.54552 9.54718 0.581362 9.4247 0.620289C9.32145 0.653757 9.21986 0.689361 9.11827 0.724728C8.99935 0.766741 8.88019 0.808517 8.76246 0.853141C8.66087 0.892068 8.56071 0.932419 8.46006 0.97372C8.34447 1.02238 8.22864 1.07104 8.11447 1.11946C8.0143 1.16337 7.91532 1.20942 7.8161 1.25571C7.70383 1.30864 7.59203 1.36252 7.48119 1.41854C7.38387 1.46814 7.28655 1.51894 7.18947 1.57068C7.08052 1.62908 6.97252 1.68889 6.86523 1.75013C6.76791 1.80449 6.67226 1.86027 6.5785 1.91723C6.47287 1.98085 6.36844 2.04659 6.26447 2.11163C6.17095 2.17145 6.07814 2.23174 5.98628 2.29392C5.88374 2.363 5.78263 2.43492 5.68199 2.50684C5.59155 2.57164 5.50159 2.6362 5.41306 2.70147C5.3136 2.77624 5.21866 2.8541 5.11849 2.93172C5.03209 3.00079 4.94498 3.06938 4.86048 3.14083C4.76316 3.22106 4.67083 3.30414 4.57707 3.38721C4.49399 3.46127 4.4102 3.53319 4.32903 3.60986C4.23669 3.69602 4.14673 3.7855 4.05654 3.87428C3.97821 3.95166 3.89845 4.02809 3.82155 4.1076C3.80754 4.12232 3.79401 4.13846 3.7793 4.15341C4.83935 4.70125 5.95638 5.13111 7.11019 5.4354C7.71024 3.52275 8.77742 1.78977 10.2156 0.393372V0.393372Z" fill="#FF0000"/>
<path d="M4.05398 23.2679C4.14441 23.3569 4.23437 23.4469 4.32718 23.5335C4.40788 23.6083 4.49096 23.6793 4.5738 23.754C4.66803 23.8378 4.76226 23.9218 4.85911 24.0026C4.94313 24.073 5.02882 24.1412 5.11475 24.2095C5.21206 24.2883 5.30915 24.3667 5.41216 24.4424C5.49975 24.5081 5.58876 24.5717 5.67777 24.637C5.77936 24.7099 5.8819 24.7828 5.98539 24.8528C6.0763 24.914 6.16863 24.9738 6.26097 25.0327C6.36612 25.1001 6.47103 25.1663 6.57808 25.2304C6.67184 25.2869 6.76655 25.3422 6.86149 25.3963C6.9702 25.4585 7.07915 25.5188 7.18905 25.5774C7.28613 25.6261 7.38345 25.679 7.48077 25.7277C7.59256 25.7842 7.70531 25.8385 7.8209 25.8922C7.91822 25.938 8.01697 25.9831 8.11713 26.0272C8.23225 26.0783 8.34832 26.1243 8.46463 26.173C8.5648 26.2138 8.66449 26.2542 8.7656 26.2926C8.88357 26.3379 9.0032 26.3802 9.12283 26.4215C9.22395 26.4569 9.32506 26.4925 9.4276 26.5255C9.54913 26.5649 9.67066 26.6009 9.79551 26.6368C9.89663 26.6665 9.99822 26.6966 10.1003 26.7239C10.1397 26.7346 10.1796 26.7429 10.219 26.7531C8.78008 25.3557 7.71243 23.6218 7.11214 21.708C5.95833 22.0125 4.84131 22.4424 3.78125 22.9904C3.79549 23.0049 3.80902 23.0206 3.82326 23.0355C3.89613 23.1143 3.9747 23.1908 4.05398 23.2679V23.2679Z" fill="#FF0000"/>
<path d="M3.12083 22.2524C4.28865 21.6198 5.52696 21.127 6.8099 20.7843C6.18089 18.597 5.85072 16.3347 5.82865 14.0589H0C0.106101 17.0599 1.20342 19.9412 3.12083 22.2524V22.2524Z" fill="#FF0000"/>
</svg>
