<svg width="28" height="28" viewBox="0 0 28 28" fill="none" xmlns="http://www.w3.org/2000/svg">
<path d="M14.3634 0H14.3566C6.83568 0 0.719727 6.11766 0.719727 13.6403C0.719727 16.6241 1.68137 19.3896 3.31649 21.6352L1.61657 26.7025L6.85955 25.0265C9.01642 26.4553 11.5893 27.2805 14.3634 27.2805C21.8843 27.2805 28.0003 21.1612 28.0003 13.6403C28.0003 6.11937 21.8843 0 14.3634 0ZM22.3003 19.2618C21.9713 20.191 20.6652 20.9617 19.6234 21.1867C18.9107 21.3385 17.9798 21.4596 14.8459 20.1603C10.8374 18.4996 8.25598 14.4263 8.05478 14.162C7.86211 13.8977 6.435 12.0051 6.435 10.0478C6.435 8.09039 7.42903 7.13727 7.82972 6.72806C8.15879 6.39217 8.70269 6.23872 9.22443 6.23872C9.39323 6.23872 9.54498 6.24724 9.68138 6.25406C10.0821 6.27111 10.2833 6.29499 10.5475 6.92755C10.8766 7.72039 11.678 9.67777 11.7735 9.87897C11.8706 10.0802 11.9678 10.353 11.8314 10.6172C11.7036 10.8901 11.591 11.0111 11.3898 11.243C11.1886 11.4749 10.9977 11.6522 10.7965 11.9011C10.6123 12.1177 10.4043 12.3496 10.6362 12.7502C10.8681 13.1424 11.6695 14.4502 12.8493 15.5005C14.3719 16.856 15.6064 17.289 16.048 17.4732C16.3771 17.6096 16.7692 17.5772 17.0096 17.3214C17.3148 16.9924 17.6916 16.4468 18.0753 15.9097C18.3481 15.5243 18.6925 15.4766 19.054 15.613C19.4222 15.7409 21.3711 16.7042 21.7718 16.9037C22.1725 17.1049 22.4367 17.2004 22.5339 17.3692C22.6294 17.538 22.6294 18.3308 22.3003 19.2618Z" fill="white"/>
</svg>
